<svg xmlns="http://www.w3.org/2000/svg" xmlns:xlink="http://www.w3.org/1999/xlink" width="1920" zoomAndPan="magnify" viewBox="0 0 1440 809.999993" height="1080" preserveAspectRatio="xMidYMid meet" version="1.0"><rect x="-144" width="1728" fill="#ffffff" y="-80.999999" height="971.999992" fill-opacity="1"/><rect x="-144" width="1728" fill="#e6f5fa" y="-80.999999" height="971.999992" fill-opacity="1"/><path fill="#8fd6ff" d="M -194.707031 728.457031 C -197.703125 725.460938 -200.136719 722.089844 -202.824219 718.90625 C -205.257812 716.035156 -200.386719 723.835938 -201.824219 720.402344 C -202.136719 719.59375 -202.761719 718.78125 -203.195312 717.96875 C -203.632812 717.15625 -204.007812 716.285156 -204.445312 715.472656 C -207.003906 710.476562 -203.882812 715.410156 -203.757812 717.59375 C -203.820312 716.035156 -204.882812 713.847656 -205.382812 712.289062 C -207.191406 706.855469 -204.132812 721.402344 -205.070312 713.660156 C -205.570312 709.730469 -204.570312 703.734375 -205.195312 715.910156 C -205.070312 713.722656 -205.195312 711.414062 -205.257812 709.292969 C -205.445312 704.421875 -206.320312 719.03125 -205.632812 714.160156 C -205.507812 713.226562 -205.445312 712.226562 -205.320312 711.289062 C -205.070312 709.042969 -204.570312 706.792969 -204.257812 704.546875 C -203.757812 700.738281 -205.445312 709.667969 -205.257812 709.292969 C -204.882812 708.480469 -204.820312 707.292969 -204.507812 706.421875 C -203.757812 703.859375 -203.011719 701.300781 -202.199219 698.804688 C -199.949219 691.75 -204.570312 703.734375 -202.074219 698.429688 C -201.199219 696.617188 -200.449219 694.746094 -199.515625 692.875 C -198.453125 690.75 -197.390625 688.628906 -196.207031 686.566406 C -195.707031 685.695312 -195.207031 684.757812 -194.707031 683.882812 C -194.207031 683.070312 -190.898438 678.265625 -193.457031 681.824219 C -195.894531 685.132812 -192.023438 679.886719 -191.398438 679.078125 C -189.960938 677.140625 -188.527344 675.269531 -186.964844 673.457031 C -183.96875 669.773438 -180.722656 666.339844 -177.289062 663.03125 C -176.351562 662.097656 -171.734375 658.226562 -173.667969 659.722656 C -175.792969 661.410156 -170.359375 657.289062 -169.734375 656.851562 C -164.992188 653.480469 -160.058594 650.421875 -155.003906 647.550781 C -135.335938 636.5 -112.738281 628.824219 -91.886719 623.640625 C -46.753906 612.402344 -1.054688 605.039062 42.457031 587.933594 C 80.664062 572.886719 116.683594 552.597656 149.582031 528.0625 C 218.503906 476.683594 274.6875 408.140625 309.710938 329.480469 C 348.542969 242.269531 361.214844 145.691406 349.164062 51.113281 C 337.492188 -40.34375 302.34375 -129.113281 246.347656 -202.46875 C 191.972656 -273.761719 116.183594 -329.820312 27.535156 -348.800781 C -15.351562 -357.976562 -59.925781 -355.976562 -101.003906 -340.246094 C -137.523438 -326.261719 -169.359375 -299.980469 -191.273438 -267.644531 C -241.714844 -193.230469 -252.953125 -93.53125 -226.671875 -8.066406 C -200.324219 77.707031 -135.152344 146.128906 -57.738281 189.328125 C 29.847656 238.210938 131.417969 253.878906 230.425781 257.125 C 283.804688 258.875 337.117188 257.0625 390.492188 256.003906 C 441.433594 255.066406 495.683594 255.316406 543.628906 271.359375 C 563.917969 278.101562 583.394531 287.464844 601.0625 299.515625 C 605.183594 302.324219 609.238281 305.320312 613.171875 308.441406 C 614.046875 309.191406 614.984375 309.878906 615.855469 310.628906 C 612.796875 308.066406 615.796875 310.628906 616.292969 311.125 C 618.542969 313.1875 620.789062 315.246094 622.972656 317.433594 C 630.339844 324.734375 636.519531 332.789062 642.765625 341.03125 C 644.761719 343.589844 642.015625 339.78125 641.890625 339.53125 C 642.703125 340.84375 643.511719 342.089844 644.261719 343.464844 C 645.449219 345.460938 646.570312 347.460938 647.632812 349.457031 C 648.882812 351.828125 650.066406 354.265625 651.191406 356.699219 C 651.753906 357.886719 652.253906 359.007812 652.753906 360.195312 C 656.25 367.9375 651.566406 356.136719 653.003906 360.757812 C 654.75 366.25 656.558594 371.621094 657.996094 377.175781 C 658.308594 378.425781 658.558594 379.734375 658.933594 381.046875 C 660.242188 386.101562 657.683594 374.117188 658.558594 379.234375 C 659.058594 382.292969 659.683594 385.292969 660.117188 388.351562 C 661.054688 394.46875 661.804688 400.648438 662.367188 406.828125 C 662.617188 409.511719 662.804688 412.136719 663.054688 414.820312 C 663.675781 421.875 662.929688 413.132812 662.929688 412.261719 C 662.992188 414.070312 663.179688 415.820312 663.242188 417.628906 C 663.988281 430.238281 664.425781 442.851562 665.175781 455.398438 C 668.171875 504.902344 675.539062 554.222656 702.007812 597.171875 C 723.484375 632.007812 752.449219 661.035156 787.535156 682.261719 C 855.707031 723.589844 939.984375 732.015625 1014.023438 701.988281 C 1093.742188 669.652344 1153.113281 598.359375 1183.640625 519.386719 C 1220.472656 424.058594 1214.042969 318.367188 1176.835938 224.289062 C 1159.417969 180.214844 1134.195312 138.886719 1103.855469 102.492188 C 1075.078125 67.96875 1040.617188 39.378906 1005.03125 12.222656 C 988.175781 -0.636719 971.136719 -13.375 954.589844 -26.671875 C 950.785156 -29.730469 946.976562 -32.851562 943.292969 -35.972656 C 946.476562 -33.289062 941.292969 -37.71875 940.421875 -38.46875 C 938.484375 -40.15625 936.488281 -41.902344 934.550781 -43.652344 C 926.875 -50.519531 919.445312 -57.636719 912.328125 -65.125 C 905.335938 -72.429688 898.71875 -80.109375 892.601562 -88.164062 C 889.792969 -91.84375 887.167969 -95.714844 884.484375 -99.523438 C 882.613281 -102.207031 885.484375 -97.902344 885.609375 -97.777344 C 884.734375 -98.835938 884.046875 -100.273438 883.359375 -101.460938 C 882.050781 -103.582031 880.800781 -105.765625 879.613281 -107.953125 C 877.179688 -112.382812 874.871094 -116.878906 872.8125 -121.4375 C 871.9375 -123.433594 871.125 -125.433594 870.1875 -127.429688 C 868.628906 -130.800781 871.3125 -124.371094 871.3125 -124.433594 C 870.8125 -126.179688 870.0625 -127.929688 869.4375 -129.613281 C 867.691406 -134.734375 866.253906 -139.976562 864.882812 -145.222656 C 864.007812 -148.59375 865.632812 -149.21875 865.257812 -143.222656 C 865.320312 -144.347656 864.757812 -145.90625 864.570312 -147.03125 C 864.007812 -150.402344 863.507812 -153.835938 863.132812 -157.207031 C 862.945312 -158.769531 862.199219 -167.445312 862.695312 -160.890625 C 863.195312 -154.398438 862.695312 -163.949219 862.695312 -165.886719 C 862.695312 -168.445312 862.695312 -171.066406 862.757812 -173.625 C 862.757812 -173.875 863.320312 -178.246094 862.945312 -178.808594 C 863.632812 -177.683594 862.136719 -169.941406 862.820312 -175.9375 C 863.507812 -181.992188 864.195312 -187.984375 865.195312 -193.914062 C 865.445312 -195.226562 865.695312 -196.476562 865.882812 -197.785156 C 866.503906 -201.90625 865.195312 -194.726562 865.195312 -194.601562 C 866.378906 -197.785156 866.753906 -201.46875 867.628906 -204.777344 C 869.066406 -210.269531 870.6875 -215.703125 872.5 -221.070312 C 873.433594 -223.941406 874.246094 -227.003906 875.558594 -229.75 C 875.433594 -229.5 873.308594 -224.253906 874.808594 -227.8125 C 875.683594 -229.8125 876.429688 -231.871094 877.304688 -233.867188 C 881.925781 -244.730469 887.230469 -255.21875 893.160156 -265.457031 C 894.722656 -268.203125 896.347656 -270.890625 897.96875 -273.574219 C 898.71875 -274.757812 902.277344 -280.316406 899.71875 -276.445312 C 903.460938 -282.0625 907.269531 -287.621094 911.265625 -293.113281 C 918.445312 -302.914062 926.0625 -312.464844 933.988281 -321.707031 C 950.472656 -340.996094 968.261719 -359.160156 986.429688 -376.890625 C 1066.460938 -455.113281 1148.242188 -531.589844 1229.148438 -608.875 C 1268.914062 -646.828125 1308.746094 -684.847656 1348.511719 -722.804688 C 1354.066406 -728.109375 1356.6875 -739.660156 1357.6875 -746.652344 C 1359.0625 -756.203125 1358.75 -768.191406 1355.691406 -777.429688 C 1351.382812 -790.351562 1341.457031 -804.273438 1328.347656 -791.789062 C 1247.316406 -714.378906 1166.222656 -637.027344 1085.191406 -559.617188 C 1045.859375 -522.035156 1006.15625 -484.828125 967.265625 -446.8125 C 930.742188 -411.164062 896.53125 -373.644531 869.6875 -330.070312 C 840.972656 -283.4375 824.679688 -229.6875 822.742188 -174.9375 C 820.871094 -122.1875 836.101562 -71.183594 866.003906 -27.855469 C 889.601562 6.292969 922.128906 33.445312 954.527344 58.792969 C 970.945312 71.652344 987.738281 84.078125 1004.285156 96.875 C 1012.335938 103.117188 1020.265625 109.421875 1028.132812 115.851562 C 1029.003906 116.539062 1029.878906 117.289062 1030.691406 117.976562 C 1030.378906 117.664062 1028.070312 115.726562 1030.191406 117.539062 C 1032.1875 119.222656 1034.125 120.910156 1036.121094 122.65625 C 1040.429688 126.464844 1044.738281 130.335938 1048.917969 134.332031 C 1065.402344 150 1080.695312 166.980469 1094.554688 185.023438 C 1101.359375 193.886719 1107.851562 203 1113.96875 212.367188 C 1111.222656 208.183594 1114.21875 212.863281 1115.28125 214.488281 C 1116.777344 216.921875 1118.277344 219.421875 1119.773438 221.917969 C 1122.710938 226.910156 1125.582031 231.90625 1128.328125 237.023438 C 1133.570312 246.824219 1138.503906 256.8125 1142.9375 267.050781 C 1144.058594 269.675781 1145.246094 272.359375 1146.308594 274.980469 C 1146.804688 276.105469 1147.242188 277.289062 1147.679688 278.414062 C 1149.554688 283.035156 1146.621094 278.226562 1147.242188 277.226562 C 1146.308594 278.726562 1152.363281 291.585938 1152.988281 293.460938 C 1156.421875 303.949219 1159.480469 314.621094 1161.976562 325.359375 C 1162.289062 326.734375 1164.035156 334.664062 1162.851562 328.980469 C 1161.539062 322.988281 1163.476562 332.414062 1163.722656 333.851562 C 1164.722656 339.46875 1165.660156 345.148438 1166.347656 350.769531 C 1167.03125 356.011719 1167.59375 361.320312 1168.03125 366.625 C 1168.78125 375.738281 1167.78125 359.820312 1168.09375 367 C 1168.21875 369.871094 1168.34375 372.742188 1168.40625 375.613281 C 1168.53125 380.921875 1168.53125 386.289062 1168.46875 391.597656 C 1168.40625 394.46875 1168.28125 397.339844 1168.15625 400.210938 C 1167.71875 409.636719 1168.84375 392.65625 1168.09375 401.523438 C 1167.21875 411.449219 1165.847656 421.375 1163.972656 431.175781 C 1163.785156 432.238281 1163.535156 433.359375 1163.351562 434.421875 C 1162.601562 438.480469 1164.285156 429.988281 1164.222656 430.300781 C 1163.476562 432.800781 1163.039062 435.359375 1162.414062 437.855469 C 1161.164062 442.914062 1159.792969 447.90625 1158.292969 452.839844 C 1156.917969 457.457031 1155.421875 462.015625 1153.796875 466.574219 C 1153.300781 468.070312 1150.488281 475.5625 1152.238281 470.878906 C 1154.046875 466.199219 1151.050781 473.8125 1150.488281 475.125 C 1146.496094 484.675781 1142 494.101562 1137.066406 503.21875 C 1134.757812 507.460938 1132.386719 511.644531 1129.949219 515.765625 C 1128.828125 517.699219 1127.578125 519.511719 1126.453125 521.445312 C 1124.332031 525.003906 1129.203125 517.328125 1126.890625 520.820312 C 1126.082031 522.070312 1125.269531 523.257812 1124.457031 524.503906 C 1118.839844 532.746094 1112.90625 540.738281 1106.539062 548.414062 C 1100.234375 556.03125 1093.492188 563.398438 1086.4375 570.390625 C 1083.066406 573.761719 1079.570312 577.007812 1076.011719 580.191406 C 1074.953125 581.191406 1073.828125 582.125 1072.703125 583.125 C 1072.515625 583.3125 1069.769531 585.621094 1071.769531 583.9375 C 1073.765625 582.25 1070.957031 584.5625 1070.769531 584.75 C 1069.332031 585.871094 1067.898438 587.058594 1066.460938 588.183594 C 1050.980469 600.292969 1034.1875 610.84375 1016.394531 619.269531 C 1007.46875 623.515625 998.351562 627.199219 988.988281 630.320312 C 978.5625 633.816406 974.253906 634.941406 963.207031 637 C 945.101562 640.371094 926.5625 641.371094 908.144531 640.246094 C 898.90625 639.683594 889.726562 638.5625 880.675781 637 C 876.304688 636.25 871.9375 635.316406 867.628906 634.316406 C 866.628906 634.066406 861.136719 632.753906 862.324219 633.003906 C 864.382812 633.566406 861.136719 632.691406 861.011719 632.632812 C 859.386719 632.132812 857.703125 631.695312 856.078125 631.195312 C 838.414062 625.828125 821.308594 618.460938 805.261719 609.40625 C 797.273438 604.914062 789.46875 599.980469 782.039062 594.613281 C 778.167969 591.867188 774.425781 588.929688 770.742188 585.996094 C 767.058594 583.125 772.800781 587.871094 769.304688 584.8125 C 767.308594 583 765.246094 581.253906 763.3125 579.378906 C 756.695312 573.199219 750.390625 566.644531 744.519531 559.652344 C 741.710938 556.34375 739.027344 552.910156 736.40625 549.414062 C 735.03125 547.542969 733.660156 545.605469 732.285156 543.734375 C 731.722656 542.921875 731.160156 542.046875 730.597656 541.238281 C 728.414062 538.113281 730.226562 541.359375 731.347656 542.421875 C 728.601562 539.800781 726.605469 534.554688 724.730469 531.183594 C 722.484375 527.066406 720.421875 522.882812 718.488281 518.574219 C 717.488281 516.453125 716.617188 514.265625 715.679688 512.082031 C 713.246094 506.527344 717.863281 518.386719 715.867188 512.644531 C 714.242188 507.835938 712.621094 503.03125 711.246094 498.097656 C 710.683594 496.101562 710.183594 494.164062 709.75 492.167969 C 709.4375 490.980469 709.3125 489.734375 708.9375 488.546875 C 711.433594 496.351562 709.75 492.480469 709.375 490.234375 C 708.375 484.050781 707.375 477.871094 706.628906 471.628906 C 705.941406 465.824219 705.503906 460.019531 705.003906 454.210938 C 704.628906 449.65625 705.316406 458.207031 705.253906 458.082031 C 704.753906 457.019531 705.003906 453.648438 704.941406 452.714844 C 704.753906 449.59375 704.628906 446.410156 704.441406 443.285156 C 701.757812 389.660156 700.195312 332.226562 671.292969 284.96875 C 647.570312 246.140625 611.488281 217.234375 569.535156 200.066406 C 522.152344 180.714844 470.335938 176.09375 419.582031 175.90625 C 366.707031 175.722656 313.832031 178.53125 260.953125 177.96875 C 208.265625 177.34375 155.511719 174.160156 103.636719 164.796875 C 58.9375 156.679688 15.425781 143.570312 -25.464844 123.65625 C -44.628906 114.355469 -63.109375 103.617188 -80.652344 91.566406 C -89.203125 85.636719 -97.507812 79.457031 -105.558594 72.839844 C -106.433594 72.089844 -107.371094 71.402344 -108.246094 70.65625 C -107.433594 71.339844 -105.125 73.339844 -108.746094 70.21875 C -110.492188 68.71875 -112.179688 67.222656 -113.925781 65.660156 C -117.921875 62.101562 -121.792969 58.417969 -125.601562 54.671875 C -140.457031 40.003906 -154.003906 23.957031 -165.679688 6.605469 C -166.304688 5.667969 -166.925781 4.730469 -167.550781 3.792969 C -167.425781 4.042969 -164.867188 8.039062 -166.613281 5.230469 C -167.988281 2.984375 -169.425781 0.734375 -170.796875 -1.574219 C -173.480469 -6.132812 -176.105469 -10.8125 -178.539062 -15.558594 C -180.847656 -19.992188 -182.972656 -24.421875 -185.03125 -28.980469 C -186.15625 -31.414062 -187.214844 -33.910156 -188.214844 -36.347656 C -188.589844 -37.28125 -188.964844 -38.28125 -189.339844 -39.21875 C -191.085938 -43.152344 -187.152344 -32.726562 -188.402344 -36.847656 C -191.085938 -45.710938 -194.207031 -54.324219 -196.394531 -63.316406 C -196.707031 -64.625 -196.894531 -66.0625 -197.328125 -67.3125 C -197.453125 -67.75 -195.644531 -58.820312 -196.394531 -62.816406 C -196.832031 -65.1875 -197.265625 -67.5625 -197.703125 -69.933594 C -198.515625 -74.675781 -199.140625 -79.421875 -199.640625 -84.230469 C -199.890625 -86.289062 -200.015625 -88.347656 -200.203125 -90.410156 C -200.824219 -97.277344 -199.703125 -80.484375 -200.078125 -89.035156 C -200.324219 -93.84375 -200.386719 -98.648438 -200.324219 -103.457031 C -200.324219 -105.890625 -200.265625 -108.265625 -200.140625 -110.699219 C -200.078125 -111.699219 -200.015625 -112.757812 -200.015625 -113.757812 C -199.890625 -118.003906 -200.574219 -107.703125 -200.386719 -108.265625 C -199.015625 -112.445312 -199.515625 -118.191406 -198.953125 -122.621094 C -198.390625 -127.054688 -197.703125 -131.425781 -196.894531 -135.792969 C -196.644531 -137.167969 -196.332031 -138.480469 -196.144531 -139.851562 C -195.457031 -143.847656 -197.265625 -134.859375 -197.078125 -135.296875 C -196.207031 -137.855469 -195.832031 -140.664062 -195.144531 -143.222656 C -194.019531 -147.53125 -192.835938 -151.777344 -191.460938 -155.957031 C -190.835938 -157.894531 -190.210938 -159.828125 -189.527344 -161.765625 C -188.964844 -163.386719 -186.03125 -171.378906 -187.902344 -166.257812 C -189.839844 -161.140625 -187.277344 -167.570312 -186.777344 -168.757812 C -185.84375 -170.941406 -184.90625 -173.0625 -183.90625 -175.1875 C -181.910156 -179.429688 -179.851562 -183.613281 -177.601562 -187.734375 C -175.542969 -191.542969 -173.171875 -195.226562 -171.046875 -198.972656 C -169.425781 -201.78125 -172.421875 -196.910156 -172.359375 -196.910156 C -172.046875 -197.910156 -170.734375 -199.285156 -170.109375 -200.21875 C -168.800781 -202.15625 -167.425781 -204.027344 -166.054688 -205.902344 C -160.683594 -213.082031 -154.878906 -219.886719 -148.574219 -226.253906 C -145.265625 -229.5625 -141.832031 -232.683594 -138.398438 -235.742188 C -141.582031 -232.933594 -138.460938 -235.679688 -137.023438 -236.804688 C -134.902344 -238.425781 -132.777344 -240.050781 -130.59375 -241.609375 C -114.425781 -253.222656 -96.445312 -261.460938 -77.53125 -267.515625 C -74.722656 -268.390625 -76.59375 -267.890625 -72.910156 -268.765625 C -70.726562 -269.328125 -68.476562 -269.828125 -66.230469 -270.265625 C -60.675781 -271.386719 -55.054688 -272.324219 -49.375 -273.011719 C -39.136719 -274.195312 -28.835938 -274.632812 -18.597656 -274.382812 C 0.816406 -273.886719 24.164062 -270.328125 40.394531 -265.644531 C 82.285156 -253.660156 121.425781 -232.808594 155.761719 -206.089844 C 157.949219 -204.402344 160.132812 -202.65625 162.253906 -200.90625 C 163.191406 -200.15625 164.066406 -199.410156 165.003906 -198.660156 C 164.628906 -198.972656 162.628906 -200.65625 164.753906 -198.847656 C 169.183594 -194.976562 173.554688 -191.105469 177.800781 -187.046875 C 185.417969 -179.867188 192.84375 -172.378906 199.898438 -164.636719 C 214.070312 -149.152344 227.179688 -132.734375 239.105469 -115.441406 C 240.664062 -113.195312 242.164062 -110.949219 243.660156 -108.699219 C 246.78125 -104.082031 241.726562 -111.882812 244.722656 -107.140625 C 247.84375 -102.207031 250.902344 -97.214844 253.835938 -92.21875 C 259.144531 -83.167969 264.136719 -73.929688 268.820312 -64.5 C 273.5 -55.074219 277.871094 -45.523438 281.929688 -35.847656 C 282.992188 -33.351562 283.988281 -30.789062 285.050781 -28.292969 C 287.484375 -22.363281 283.054688 -33.664062 285.300781 -27.667969 C 287.171875 -22.550781 289.046875 -17.429688 290.792969 -12.25 C 294.289062 -1.949219 297.472656 8.539062 300.285156 19.027344 C 301.59375 23.894531 302.78125 28.828125 303.964844 33.761719 C 304.464844 36.007812 304.964844 38.316406 305.527344 40.566406 C 306.464844 44.621094 304.714844 36.507812 304.714844 36.757812 C 305.027344 38.691406 305.464844 40.566406 305.839844 42.5 C 307.835938 52.800781 309.460938 63.226562 310.769531 73.589844 C 311.394531 78.582031 311.957031 83.640625 312.394531 88.695312 C 312.644531 91.378906 312.832031 94.128906 313.082031 96.8125 C 313.644531 103.492188 312.582031 87.636719 313.019531 96.6875 C 313.582031 107.550781 313.769531 118.410156 313.582031 129.335938 C 313.519531 134.394531 313.332031 139.449219 313.082031 144.507812 C 313.019531 145.691406 312.957031 146.816406 312.894531 148.003906 C 312.707031 152.496094 313.269531 142.695312 313.207031 143.195312 C 312.894531 146.316406 312.707031 149.375 312.457031 152.496094 C 311.519531 162.921875 310.148438 173.347656 308.460938 183.710938 C 307.648438 188.707031 306.714844 193.699219 305.714844 198.632812 C 304.464844 205.1875 307.585938 190.265625 305.527344 199.382812 C 304.902344 202.003906 304.339844 204.625 303.65625 207.246094 C 301.15625 217.421875 298.285156 227.472656 295.039062 237.398438 C 293.542969 242.019531 291.980469 246.578125 290.296875 251.132812 C 289.546875 253.257812 288.734375 255.316406 287.984375 257.4375 C 286.675781 260.933594 289.109375 254.503906 289.109375 254.566406 C 288.296875 256.253906 287.734375 258.0625 287.046875 259.75 C 279.433594 278.414062 270.628906 296.519531 260.640625 314 C 258.269531 318.179688 255.773438 322.363281 253.210938 326.546875 C 251.839844 328.792969 250.402344 330.980469 249.09375 333.164062 C 247.40625 335.972656 249.964844 331.851562 250.089844 331.601562 C 249.09375 333.164062 248.03125 334.726562 247.03125 336.285156 C 241.414062 344.652344 235.546875 352.890625 229.425781 360.882812 C 217.191406 376.925781 203.894531 392.160156 189.785156 406.578125 C 182.480469 414.007812 174.867188 421.25 167.0625 428.242188 C 165.375 429.738281 163.691406 431.238281 162.003906 432.675781 C 161.132812 433.421875 160.320312 434.109375 159.445312 434.859375 C 156.511719 437.355469 162.066406 432.675781 159.070312 435.171875 C 155.074219 438.480469 150.957031 441.789062 146.835938 445.035156 C 130.917969 457.394531 114.25 468.820312 96.894531 479.058594 C 79.226562 489.484375 60.933594 498.785156 42.019531 506.777344 C 32.71875 510.710938 23.351562 514.328125 13.800781 517.578125 C 9.246094 519.136719 4.625 520.636719 -0.0585938 522.070312 C -2.554688 522.820312 -5.050781 523.570312 -7.546875 524.320312 C -8.484375 524.566406 -14.292969 526.191406 -11.980469 525.566406 C -58.300781 537.925781 -106.996094 543.171875 -151.007812 563.148438 C -193.023438 582.25 -222.675781 615.835938 -237.222656 659.601562 C -251.828125 703.613281 -249.582031 763.042969 -215.121094 797.691406 C -202.761719 810.113281 -191.273438 796.128906 -187.777344 783.332031 C -185.09375 773.46875 -184.09375 762.667969 -185.78125 752.554688 C -186.839844 744.3125 -188.777344 734.449219 -194.707031 728.457031 Z M -194.707031 728.457031 " fill-opacity="1" fill-rule="nonzero"/></svg>