<svg xmlns="http://www.w3.org/2000/svg" xmlns:xlink="http://www.w3.org/1999/xlink" width="1920" zoomAndPan="magnify" viewBox="0 0 1440 809.999993" height="1080" preserveAspectRatio="xMidYMid meet" version="1.0"><defs><clipPath id="c31dc1a23d"><path d="M 210.308594 0 L 1440 0 L 1440 810 L 210.308594 810 Z M 210.308594 0 " clip-rule="nonzero"/></clipPath></defs><rect x="-144" width="1728" fill="#ffffff" y="-80.999999" height="971.999992" fill-opacity="1"/><rect x="-144" width="1728" fill="#e6f5fa" y="-80.999999" height="971.999992" fill-opacity="1"/><g clip-path="url(#c31dc1a23d)"><path fill="#8fd6ff" d="M 1029.484375 -351.25 C 1042.453125 -351.082031 1053.507812 -350.5 1058.996094 -349.671875 C 1063.816406 -348.921875 1069.21875 -348.007812 1071.050781 -347.59375 C 1072.878906 -347.09375 1077.535156 -346.179688 1081.441406 -345.429688 C 1085.347656 -344.683594 1090.085938 -343.351562 1092.082031 -342.4375 C 1093.992188 -341.605469 1096.070312 -340.859375 1096.570312 -340.859375 C 1097.152344 -340.859375 1100.726562 -339.363281 1104.46875 -337.535156 C 1108.292969 -335.703125 1111.535156 -334.207031 1111.785156 -334.207031 C 1112.03125 -334.207031 1114.859375 -332.460938 1118.101562 -330.21875 C 1121.425781 -328.054688 1124.917969 -325.730469 1125.917969 -325.0625 C 1126.914062 -324.398438 1130.738281 -321.324219 1134.480469 -318.164062 C 1138.21875 -315.085938 1141.296875 -312.34375 1141.296875 -312.011719 C 1141.296875 -311.597656 1142.792969 -309.851562 1144.621094 -308.023438 C 1146.449219 -306.191406 1150.441406 -301.703125 1153.515625 -298.046875 C 1156.675781 -294.386719 1160.5 -289.316406 1162.160156 -286.824219 C 1163.742188 -284.328125 1166.484375 -279.921875 1168.148438 -277.015625 C 1169.808594 -274.1875 1171.222656 -271.691406 1171.222656 -271.445312 C 1171.222656 -271.195312 1172.136719 -269.03125 1173.21875 -266.707031 C 1174.382812 -264.292969 1175.710938 -259.722656 1176.210938 -256.480469 C 1176.710938 -253.238281 1177.539062 -249.332031 1177.957031 -247.75 C 1178.371094 -246.171875 1178.703125 -239.105469 1178.703125 -232.207031 C 1178.703125 -223.3125 1178.207031 -216.660156 1177.125 -210.175781 C 1176.128906 -204.441406 1174.214844 -197.625 1172.304688 -192.800781 C 1170.558594 -188.480469 1168.726562 -184.320312 1168.230469 -183.65625 C 1167.730469 -182.992188 1166.484375 -180.746094 1165.570312 -178.585938 C 1164.570312 -176.339844 1163.492188 -174.597656 1163.074219 -174.597656 C 1162.742188 -174.679688 1161.996094 -173.597656 1161.496094 -172.351562 C 1160.914062 -171.105469 1159.75 -169.277344 1158.917969 -168.359375 C 1158.085938 -167.445312 1156.175781 -164.785156 1154.597656 -162.542969 C 1153.015625 -160.214844 1146.863281 -153.480469 1140.878906 -147.496094 C 1134.976562 -141.59375 1127.828125 -135.023438 1125.167969 -132.945312 C 1122.425781 -130.953125 1118.683594 -128.125 1116.855469 -126.628906 C 1114.941406 -125.132812 1111.035156 -122.304688 1108.042969 -120.3125 C 1105.050781 -118.316406 1101.558594 -115.988281 1100.144531 -115.074219 C 1098.730469 -114.242188 1096.15625 -112.664062 1094.324219 -111.75 C 1092.496094 -110.75 1084.265625 -106.511719 1076.035156 -102.355469 C 1067.808594 -98.199219 1060.492188 -94.789062 1059.828125 -94.789062 C 1059.160156 -94.789062 1057.996094 -94.289062 1057.332031 -93.710938 C 1056.667969 -93.128906 1053.09375 -91.464844 1049.433594 -90.050781 C 1045.777344 -88.636719 1039.460938 -86.144531 1035.300781 -84.566406 C 1031.144531 -82.984375 1023.664062 -80.40625 1018.675781 -78.746094 C 1013.6875 -77.082031 1007.289062 -75.171875 1004.542969 -74.421875 C 1001.800781 -73.757812 995.648438 -72.179688 990.828125 -71.015625 C 986.003906 -69.851562 980.1875 -68.355469 977.941406 -67.6875 C 975.613281 -67.023438 968.382812 -65.277344 961.730469 -63.699219 C 955.082031 -62.121094 942.195312 -59.292969 933.050781 -57.464844 C 923.90625 -55.550781 913.765625 -53.472656 910.605469 -52.726562 C 907.445312 -52.058594 901.460938 -50.980469 897.304688 -50.316406 C 893.148438 -49.648438 887.410156 -48.484375 884.417969 -47.820312 C 881.425781 -47.15625 875.273438 -45.992188 870.703125 -45.328125 C 866.128906 -44.660156 856.570312 -43.332031 849.503906 -42.5 C 838.945312 -41.171875 832.546875 -40.921875 814.171875 -41.085938 C 801.871094 -41.253906 789.484375 -41.75 786.738281 -42.25 C 783.996094 -42.75 776.679688 -43.832031 770.527344 -44.578125 C 764.378906 -45.328125 757.976562 -46.40625 756.398438 -46.988281 C 754.816406 -47.488281 752.242188 -48.234375 748.082031 -49.066406 L 748.167969 -33.023438 C 748.25 -24.292969 748.582031 -13.320312 748.914062 -8.75 C 749.246094 -4.175781 750.328125 5.382812 751.324219 12.449219 C 752.324219 19.515625 753.488281 26.664062 753.902344 28.246094 C 754.320312 29.824219 755.816406 35.0625 757.144531 39.882812 C 758.476562 44.703125 760.554688 51.1875 761.800781 54.429688 C 763.046875 57.671875 765.207031 62.660156 766.621094 65.652344 C 768.035156 68.648438 769.449219 71.640625 769.863281 72.304688 C 770.195312 72.96875 771.691406 75.628906 773.023438 78.125 C 774.4375 80.617188 776.597656 84.273438 777.84375 86.1875 C 779.09375 88.097656 781.171875 91.339844 782.582031 93.253906 C 783.914062 95.25 785.992188 97.992188 787.15625 99.40625 C 788.320312 100.820312 790.398438 103.394531 791.726562 105.222656 C 793.058594 106.96875 799.460938 113.703125 805.859375 120.105469 C 812.261719 126.589844 819.578125 133.324219 822.070312 135.234375 C 824.566406 137.148438 829.46875 140.886719 832.878906 143.632812 C 836.285156 146.292969 840.441406 149.367188 842.1875 150.53125 C 843.851562 151.613281 847.757812 154.273438 850.917969 156.351562 C 853.992188 158.429688 857.898438 160.921875 859.480469 161.921875 C 861.058594 162.917969 864.21875 164.746094 866.378906 165.992188 C 868.625 167.242188 872.53125 169.484375 875.109375 170.980469 C 877.769531 172.394531 883.421875 175.304688 887.746094 177.464844 C 892.066406 179.625 898.300781 182.621094 901.460938 184.117188 C 904.621094 185.695312 910.023438 188.105469 913.265625 189.4375 C 916.589844 190.851562 919.5 192.011719 919.75 192.011719 C 920 192.011719 922.328125 193.011719 924.902344 194.175781 C 927.5625 195.421875 931.222656 196.835938 933.050781 197.417969 C 934.878906 198 938.207031 199.246094 940.53125 200.242188 C 942.777344 201.15625 947.101562 202.65625 950.09375 203.652344 C 953.085938 204.566406 959.070312 206.476562 963.394531 207.890625 C 967.71875 209.304688 975.449219 211.464844 980.4375 212.796875 C 985.425781 214.042969 990.910156 215.539062 992.488281 216.039062 C 994.070312 216.539062 1000.054688 217.699219 1005.792969 218.617188 C 1011.527344 219.53125 1017.097656 220.445312 1018.261719 220.695312 C 1019.425781 221.027344 1029.898438 221.191406 1041.539062 221.191406 C 1053.175781 221.191406 1064.066406 220.941406 1065.644531 220.695312 C 1067.226562 220.445312 1072.710938 219.695312 1077.699219 219.03125 C 1082.6875 218.367188 1086.925781 217.699219 1087.09375 217.617188 C 1087.261719 217.453125 1086.925781 215.289062 1086.34375 212.796875 C 1085.761719 210.300781 1085.015625 207.808594 1084.683594 207.394531 C 1084.351562 206.976562 1082.769531 201.324219 1081.191406 194.921875 C 1079.527344 188.523438 1077.867188 181.039062 1077.367188 178.296875 C 1076.867188 175.554688 1076.039062 167.324219 1075.539062 160.007812 C 1075.039062 152.691406 1074.625 145.210938 1074.539062 143.382812 C 1074.539062 141.554688 1074.789062 136.898438 1075.121094 132.992188 C 1075.457031 129.082031 1076.121094 121.019531 1076.535156 115.117188 C 1077.035156 109.214844 1077.949219 101.898438 1078.53125 98.90625 C 1079.113281 95.914062 1080.441406 89.761719 1081.441406 85.191406 C 1082.4375 80.617188 1083.769531 75.710938 1084.351562 74.382812 C 1084.933594 73.050781 1086.097656 69.808594 1086.84375 67.316406 C 1087.675781 64.824219 1088.757812 61.828125 1089.421875 60.664062 C 1090.003906 59.503906 1092.246094 54.847656 1094.410156 50.273438 C 1096.570312 45.703125 1099.730469 39.882812 1101.308594 37.390625 C 1102.972656 34.894531 1105.964844 30.65625 1108.042969 27.914062 C 1110.121094 25.253906 1112.53125 22.09375 1113.445312 20.847656 C 1114.359375 19.683594 1116.9375 16.6875 1119.265625 14.195312 C 1121.511719 11.703125 1125.085938 7.960938 1127.164062 5.882812 C 1129.242188 3.804688 1133.5625 -0.1875 1136.722656 -3.011719 C 1139.964844 -5.839844 1144.203125 -9.164062 1146.199219 -10.496094 C 1148.195312 -11.824219 1152.351562 -14.484375 1155.34375 -16.398438 C 1158.335938 -18.308594 1161.082031 -19.886719 1161.414062 -19.972656 C 1161.828125 -19.972656 1163.824219 -20.804688 1165.984375 -21.882812 C 1168.230469 -22.964844 1171.636719 -24.292969 1173.714844 -24.875 C 1175.796875 -25.457031 1179.121094 -26.539062 1181.199219 -27.203125 C 1183.359375 -27.953125 1189.511719 -28.617188 1195.746094 -28.867188 C 1202.730469 -29.117188 1207.882812 -28.949219 1210.292969 -28.285156 C 1212.371094 -27.703125 1217.609375 -26.789062 1221.933594 -26.207031 C 1226.253906 -25.625 1231.492188 -24.710938 1233.570312 -24.128906 C 1235.648438 -23.546875 1237.894531 -22.796875 1238.558594 -22.382812 C 1239.222656 -22.050781 1241.882812 -21.050781 1244.378906 -20.304688 C 1246.871094 -19.472656 1251.195312 -17.726562 1253.9375 -16.230469 C 1256.683594 -14.816406 1261.003906 -12.324219 1263.5 -10.660156 C 1265.992188 -9.082031 1268.652344 -7.085938 1269.316406 -6.335938 C 1269.984375 -5.589844 1271.0625 -4.925781 1271.5625 -5.007812 C 1272.144531 -5.007812 1277.296875 -0.4375 1282.867188 5.132812 C 1288.519531 10.789062 1294.589844 17.1875 1296.417969 19.433594 C 1298.164062 21.59375 1300.574219 24.585938 1301.738281 26.082031 C 1302.902344 27.496094 1305.148438 30.738281 1306.808594 33.234375 C 1308.472656 35.726562 1310.632812 39.136719 1311.546875 40.714844 C 1312.546875 42.292969 1314.789062 46.617188 1316.621094 50.273438 C 1318.363281 53.933594 1320.691406 59.167969 1321.691406 61.914062 C 1322.6875 64.65625 1324.265625 69.894531 1325.183594 73.550781 C 1326.59375 79.289062 1326.84375 83.027344 1326.925781 100.984375 C 1326.925781 114.203125 1326.59375 123.761719 1325.929688 127.171875 C 1325.429688 130.164062 1323.769531 136.316406 1322.4375 140.886719 C 1321.027344 145.460938 1318.945312 151.445312 1317.785156 154.1875 C 1316.535156 156.933594 1313.960938 162.5 1311.964844 166.660156 C 1309.96875 170.816406 1306.894531 176.550781 1305.148438 179.542969 C 1303.484375 182.535156 1300.160156 187.773438 1297.914062 191.183594 C 1295.585938 194.589844 1292.511719 199.246094 1290.933594 201.492188 C 1289.351562 203.734375 1284.199219 210.136719 1279.625 215.621094 C 1274.972656 221.191406 1267.988281 228.675781 1264.082031 232.332031 C 1260.089844 235.988281 1255.519531 240.148438 1253.773438 241.558594 C 1252.027344 242.972656 1247.703125 246.214844 1244.128906 248.625 C 1240.554688 251.121094 1235.816406 254.195312 1233.738281 255.441406 C 1231.578125 256.691406 1225.507812 259.847656 1220.269531 262.34375 C 1215.03125 264.917969 1209.796875 267.414062 1208.632812 267.996094 C 1207.46875 268.660156 1204.476562 269.742188 1201.980469 270.574219 C 1199.488281 271.402344 1196.992188 272.320312 1196.578125 272.652344 C 1196.164062 273.066406 1192.421875 274.3125 1188.265625 275.5625 C 1184.109375 276.808594 1180.367188 278.054688 1179.953125 278.304688 C 1179.535156 278.46875 1180.035156 279.382812 1181.199219 280.300781 C 1182.363281 281.214844 1185.273438 283.292969 1187.765625 284.953125 C 1190.261719 286.617188 1194 289.027344 1196.078125 290.273438 C 1198.15625 291.523438 1202.894531 294.097656 1206.554688 296.011719 C 1210.210938 297.839844 1215.28125 300.167969 1217.777344 301 C 1220.269531 301.914062 1222.765625 302.992188 1223.179688 303.328125 C 1223.59375 303.660156 1226.253906 304.65625 1229 305.40625 C 1231.742188 306.234375 1234.902344 307.234375 1236.066406 307.734375 C 1237.230469 308.230469 1242.050781 309.726562 1246.871094 311.058594 C 1251.695312 312.386719 1259.757812 314.382812 1264.746094 315.546875 C 1269.734375 316.710938 1274.304688 317.957031 1274.722656 318.289062 C 1275.136719 318.707031 1277.214844 319.289062 1279.292969 319.621094 C 1281.371094 319.953125 1285.859375 320.949219 1289.269531 321.949219 C 1292.679688 322.863281 1299.246094 324.609375 1303.816406 325.855469 C 1308.390625 327.101562 1316.453125 329.265625 1321.691406 330.761719 C 1326.929688 332.171875 1332 333.753906 1332.914062 334.167969 C 1333.828125 334.585938 1337.070312 335.664062 1340.144531 336.664062 C 1343.304688 337.578125 1346.464844 338.65625 1347.210938 339.074219 C 1348.042969 339.570312 1350.953125 340.734375 1353.695312 341.648438 C 1356.441406 342.648438 1359.597656 343.976562 1360.761719 344.558594 C 1361.925781 345.140625 1366 347.21875 1369.90625 349.132812 C 1373.8125 351.042969 1379.21875 354.035156 1381.960938 355.617188 C 1384.703125 357.277344 1389.773438 360.6875 1393.183594 363.179688 C 1396.59375 365.675781 1402.992188 370.828125 1407.316406 374.570312 C 1411.640625 378.3125 1418.703125 385.042969 1423.027344 389.535156 C 1427.351562 394.105469 1432.921875 400.425781 1435.582031 403.582031 C 1438.15625 406.742188 1442.230469 411.894531 1444.558594 415.054688 C 1446.96875 418.132812 1448.882812 420.792969 1448.882812 421.039062 C 1448.882812 421.289062 1450.378906 423.617188 1452.207031 426.277344 C 1453.953125 428.855469 1455.449219 431.515625 1455.53125 432.097656 C 1455.53125 432.597656 1456.03125 433.59375 1456.613281 434.175781 C 1457.195312 434.675781 1458.941406 437.417969 1460.4375 440.160156 C 1462.015625 442.90625 1464.425781 447.394531 1465.839844 450.136719 C 1467.335938 452.878906 1470.164062 458.699219 1472.074219 463.023438 C 1474.070312 467.34375 1476.898438 473.578125 1478.394531 476.738281 C 1479.890625 479.898438 1481.386719 483.472656 1481.71875 484.636719 C 1482.050781 485.800781 1482.632812 487.128906 1482.964844 487.546875 C 1483.382812 487.960938 1484.460938 490.621094 1485.542969 493.363281 C 1486.539062 496.109375 1487.621094 498.769531 1488.035156 499.183594 C 1488.367188 499.601562 1489.699219 502.84375 1490.863281 506.25 C 1492.109375 509.660156 1493.355469 512.902344 1493.773438 513.316406 C 1494.105469 513.730469 1495.269531 516.808594 1496.265625 519.96875 C 1497.265625 523.125 1498.429688 526.203125 1498.761719 526.617188 C 1499.09375 527.035156 1500.171875 530.109375 1501.171875 533.269531 C 1502.167969 536.425781 1503.414062 539.835938 1503.914062 540.75 C 1504.414062 541.664062 1505.496094 544.824219 1506.324219 547.816406 C 1507.15625 550.808594 1508.238281 553.96875 1508.652344 554.882812 C 1509.152344 555.796875 1510.480469 560.121094 1511.730469 564.441406 C 1512.976562 568.765625 1514.804688 575.914062 1515.96875 580.238281 C 1517.050781 584.558594 1518.460938 590.046875 1519.210938 592.292969 C 1519.875 594.617188 1521.207031 601.101562 1522.121094 606.839844 C 1523.035156 612.574219 1524.117188 617.980469 1524.53125 618.894531 C 1524.945312 619.808594 1525.777344 624.878906 1526.527344 630.117188 C 1527.191406 635.351562 1528.023438 641.589844 1528.273438 643.832031 C 1528.605469 646.160156 1528.769531 650.816406 1528.855469 654.222656 C 1528.855469 659.378906 1528.605469 660.625 1527.359375 661.539062 C 1526.441406 662.121094 1524.449219 662.621094 1522.867188 662.621094 C 1521.289062 662.703125 1519.210938 662.621094 1518.296875 662.539062 C 1517.382812 662.453125 1514.972656 661.539062 1512.894531 660.460938 C 1510.816406 659.378906 1508.320312 657.632812 1507.324219 656.550781 C 1506.324219 655.554688 1505.078125 652.8125 1504.578125 650.484375 C 1504.082031 648.15625 1503.332031 645.910156 1502.917969 645.496094 C 1502.585938 645.078125 1501.421875 640.507812 1500.421875 635.519531 C 1499.34375 630.53125 1498.261719 625.960938 1497.929688 625.542969 C 1497.597656 625.128906 1496.433594 620.972656 1495.351562 616.398438 C 1494.269531 611.828125 1493.109375 607.921875 1492.859375 607.671875 C 1492.527344 607.421875 1491.445312 604.179688 1490.53125 600.355469 C 1489.53125 596.613281 1488.285156 592.292969 1487.621094 590.878906 C 1486.957031 589.382812 1485.625 585.476562 1484.628906 582.316406 C 1483.628906 579.15625 1482.382812 575.414062 1481.71875 574.003906 C 1481.136719 572.589844 1479.640625 568.847656 1478.394531 565.6875 C 1477.230469 562.53125 1475.402344 557.625 1474.402344 554.800781 C 1473.40625 552.054688 1472.160156 549.230469 1471.660156 548.5625 C 1471.160156 547.898438 1470.246094 545.902344 1469.664062 544.074219 C 1469.082031 542.246094 1466.589844 536.425781 1464.09375 531.191406 C 1461.601562 525.953125 1458.941406 520.132812 1458.191406 518.304688 C 1457.527344 516.476562 1456.53125 514.398438 1455.949219 513.730469 C 1455.449219 513.066406 1454.285156 510.824219 1453.453125 508.746094 C 1452.621094 506.667969 1451.625 504.585938 1451.292969 504.171875 C 1450.960938 503.757812 1448.882812 499.765625 1446.636719 495.441406 C 1444.308594 491.121094 1441.066406 484.886719 1439.320312 481.726562 C 1437.492188 478.566406 1435.828125 475.742188 1435.496094 475.492188 C 1435.246094 475.242188 1434.085938 473.414062 1433.085938 471.335938 C 1432.089844 469.257812 1430.925781 467.429688 1430.59375 467.179688 C 1430.34375 466.929688 1428.679688 464.683594 1427.019531 462.191406 C 1425.355469 459.695312 1421.199219 454.042969 1417.707031 449.722656 C 1414.214844 445.398438 1408.8125 439.164062 1405.738281 436.003906 C 1402.578125 432.84375 1397.839844 428.191406 1395.179688 425.777344 C 1392.433594 423.285156 1386.949219 418.796875 1382.792969 415.636719 C 1378.636719 412.476562 1374.8125 409.902344 1374.230469 409.816406 C 1373.730469 409.816406 1372.234375 408.988281 1370.90625 407.90625 C 1369.65625 406.824219 1366.996094 405.078125 1364.917969 404.082031 C 1362.839844 403.085938 1360.597656 401.921875 1359.929688 401.503906 C 1359.265625 401.007812 1356.441406 399.675781 1353.695312 398.511719 C 1350.953125 397.265625 1345.714844 395.1875 1342.058594 393.855469 C 1338.398438 392.527344 1332.996094 390.699219 1330.003906 389.867188 C 1327.011719 388.953125 1323.519531 387.789062 1322.105469 387.289062 C 1320.691406 386.789062 1315.707031 385.292969 1310.882812 384.046875 C 1306.0625 382.800781 1297.082031 380.304688 1290.933594 378.644531 C 1284.78125 376.898438 1275.800781 374.652344 1270.980469 373.488281 C 1266.160156 372.410156 1261.835938 371.246094 1261.421875 370.996094 C 1261.003906 370.664062 1256.929688 369.582031 1252.441406 368.5 C 1248.035156 367.503906 1243.714844 366.257812 1242.882812 365.757812 C 1242.132812 365.34375 1238.476562 364.179688 1234.816406 363.179688 C 1231.160156 362.183594 1227.753906 361.101562 1227.335938 360.769531 C 1226.921875 360.4375 1224.84375 359.691406 1222.765625 359.109375 C 1220.6875 358.609375 1216.03125 356.863281 1212.371094 355.285156 C 1208.714844 353.703125 1201.484375 350.210938 1196.246094 347.636719 C 1191.007812 345.058594 1184.023438 341.152344 1180.867188 338.90625 C 1177.625 336.746094 1173.050781 333.667969 1170.808594 332.089844 C 1168.480469 330.425781 1165.320312 328.183594 1163.742188 327.019531 C 1162.160156 325.9375 1157.671875 322.03125 1153.765625 318.539062 C 1149.941406 315.046875 1144.289062 309.644531 1141.296875 306.652344 C 1138.304688 303.660156 1133.8125 298.671875 1126.746094 289.941406 L 1121.757812 290.441406 C 1119.015625 290.691406 1112.117188 291.355469 1106.378906 291.773438 C 1100.644531 292.269531 1084.601562 292.4375 1070.632812 292.269531 C 1055.335938 292.019531 1041.789062 291.355469 1036.550781 290.609375 C 1031.726562 289.941406 1021.835938 288.28125 1014.519531 286.867188 C 1007.203125 285.453125 1000.304688 283.957031 999.140625 283.457031 C 997.976562 283.042969 993.902344 281.960938 989.996094 281.046875 C 986.089844 280.132812 981.847656 278.96875 980.4375 278.46875 C 979.023438 277.886719 975.117188 276.726562 971.707031 275.808594 C 968.300781 274.894531 964.390625 273.648438 962.980469 273.066406 C 961.566406 272.402344 958.074219 271.15625 955.082031 270.242188 C 952.089844 269.324219 946.351562 267.332031 942.195312 265.75 C 938.039062 264.171875 931.554688 261.679688 927.648438 260.265625 C 923.742188 258.769531 920.167969 257.273438 919.75 256.941406 C 919.335938 256.605469 917.589844 255.777344 916.007812 255.195312 C 914.429688 254.613281 909.359375 252.367188 904.785156 250.207031 C 900.214844 248.042969 894.394531 245.300781 891.902344 244.136719 C 889.40625 242.972656 884.003906 240.148438 879.847656 237.984375 C 875.691406 235.742188 870.453125 232.832031 868.207031 231.5 C 865.882812 230.171875 861.972656 227.84375 859.480469 226.179688 C 856.984375 224.601562 852.332031 221.609375 849.171875 219.53125 C 846.097656 217.453125 842.273438 214.957031 840.859375 214.042969 C 839.363281 213.128906 835.621094 210.46875 832.546875 208.222656 C 829.46875 205.898438 823.566406 201.324219 819.328125 198 C 815.089844 194.675781 810.433594 190.933594 808.851562 189.6875 C 807.355469 188.4375 803.78125 185.363281 800.957031 182.871094 C 798.210938 180.375 791.0625 173.640625 785.242188 167.90625 C 779.339844 162.167969 770.113281 152.277344 764.628906 145.875 C 759.222656 139.476562 753.238281 132.160156 751.410156 129.664062 C 749.664062 127.171875 746.421875 122.515625 744.261719 119.273438 C 742.097656 116.03125 739.523438 112.125 738.523438 110.546875 C 737.527344 108.964844 735.78125 105.972656 734.617188 103.894531 C 733.453125 101.816406 731.207031 97.742188 729.628906 94.75 C 728.050781 91.757812 726.136719 87.433594 725.304688 85.191406 C 724.390625 82.863281 723.476562 80.617188 723.0625 80.203125 C 722.644531 79.785156 721.398438 76.542969 720.152344 73.136719 C 718.988281 69.726562 716.910156 63.160156 715.664062 58.589844 C 714.414062 54.015625 713.003906 49.359375 712.503906 48.195312 C 712.089844 47.03125 710.675781 41.214844 709.34375 35.3125 C 708.097656 29.410156 706.683594 21.59375 706.1875 18.019531 C 705.269531 11.785156 705.1875 11.535156 703.859375 13.03125 C 703.027344 13.863281 701.113281 16.191406 699.617188 18.269531 C 698.121094 20.347656 696.292969 22.925781 695.710938 24.089844 C 695.046875 25.253906 692.21875 29.324219 689.394531 33.234375 C 686.484375 37.140625 683.242188 41.464844 682.078125 42.792969 C 680.914062 44.125 680 45.703125 680 46.117188 C 680 46.535156 679.5 47.367188 678.917969 47.863281 C 678.335938 48.445312 674.097656 54.347656 669.523438 61 C 664.953125 67.734375 660.464844 74.464844 659.550781 75.960938 C 658.632812 77.375 657.386719 79.203125 656.890625 79.871094 C 656.308594 80.535156 654.144531 83.527344 652.066406 86.6875 C 649.988281 89.761719 648.328125 92.671875 648.328125 93.085938 C 648.328125 93.503906 647.828125 94.167969 647.164062 94.582031 C 646.582031 94.917969 645.417969 96.496094 644.585938 98.074219 C 643.753906 99.65625 642.339844 101.984375 641.34375 103.144531 C 640.347656 104.394531 638.847656 106.636719 637.933594 108.132812 C 637.019531 109.628906 635.359375 112.375 634.195312 114.285156 C 633.03125 116.113281 631.367188 118.859375 630.453125 120.355469 C 629.539062 121.933594 627.378906 125.34375 625.632812 128.085938 C 623.96875 130.746094 622.554688 133.238281 622.554688 133.574219 C 622.640625 133.988281 621.808594 134.984375 620.894531 135.898438 C 619.980469 136.816406 619.230469 137.976562 619.230469 138.394531 C 619.230469 138.808594 617.898438 141.21875 616.320312 143.632812 C 614.742188 145.960938 613.410156 148.203125 613.410156 148.621094 C 613.410156 148.953125 611.914062 151.445312 610.167969 154.1875 C 608.507812 156.933594 606.761719 159.757812 606.429688 160.425781 C 606.09375 161.089844 604.597656 163.914062 603.019531 166.660156 C 601.441406 169.402344 599.113281 173.726562 597.78125 176.21875 C 596.453125 178.710938 592.546875 186.445312 589.136719 193.261719 C 585.644531 200.160156 581.738281 208.140625 580.324219 211.132812 C 578.996094 214.125 576.75 218.949219 575.335938 221.941406 C 574.007812 224.933594 572.261719 229.257812 571.429688 231.5 C 570.597656 233.828125 569.601562 236.074219 569.269531 236.488281 C 568.851562 236.90625 567.6875 239.898438 566.523438 243.140625 C 565.363281 246.382812 563.28125 252.117188 561.871094 256.023438 C 560.457031 259.933594 559.042969 263.839844 558.628906 264.753906 C 558.210938 265.667969 557.214844 268.496094 556.464844 270.988281 C 555.71875 273.484375 554.386719 277.472656 553.558594 279.71875 C 552.726562 282.046875 550.730469 288.945312 549.066406 295.097656 C 547.40625 301.25 544.996094 310.976562 543.664062 316.710938 C 542.335938 322.445312 540.753906 330.425781 540.253906 334.585938 C 539.757812 338.742188 539.175781 343.148438 539.007812 344.558594 C 538.757812 345.972656 538.175781 351.210938 537.679688 356.199219 C 536.765625 364.429688 536.847656 366.757812 538.511719 378.644531 C 539.507812 385.960938 540.671875 393.855469 541.085938 396.101562 C 541.585938 398.429688 543.082031 404 544.496094 408.570312 C 545.824219 413.144531 547.488281 417.964844 548.152344 419.378906 C 548.734375 420.792969 551.144531 425.777344 553.558594 430.601562 C 555.96875 435.421875 558.792969 440.660156 559.875 442.238281 C 560.957031 443.820312 564.613281 448.140625 567.9375 451.800781 C 571.179688 455.457031 578.328125 462.605469 583.816406 467.59375 C 589.21875 472.582031 601.773438 484.800781 611.75 494.613281 C 621.640625 504.421875 633.195312 516.640625 637.4375 521.628906 C 641.675781 526.617188 645.832031 531.6875 646.746094 532.851562 C 647.578125 534.015625 649.242188 536.011719 650.320312 537.425781 C 651.320312 538.835938 654.644531 543.492188 657.554688 547.816406 C 660.464844 552.140625 663.539062 557.042969 664.371094 558.625 C 665.285156 560.203125 666.53125 562.445312 667.28125 563.609375 C 668.027344 564.773438 670.9375 570.34375 673.847656 576.082031 C 676.757812 581.816406 679.75 588.136719 680.5 590.214844 C 681.246094 592.292969 682.078125 594.371094 682.410156 594.785156 C 682.742188 595.199219 684.324219 599.523438 685.984375 604.34375 C 687.648438 609.167969 689.808594 616.398438 690.804688 620.554688 C 691.804688 624.710938 692.886719 628.871094 693.300781 629.949219 C 693.714844 630.949219 694.714844 635.769531 695.460938 640.675781 C 696.625 647.988281 696.957031 655.304688 696.957031 679.996094 C 696.957031 704.933594 696.707031 711.75 695.546875 718.234375 C 694.714844 722.558594 692.800781 730.953125 691.222656 736.941406 C 689.726562 742.925781 687.398438 750.574219 686.234375 753.980469 C 684.988281 757.390625 683.074219 762.210938 681.996094 764.621094 C 680.832031 766.949219 679.917969 769.195312 679.917969 769.609375 C 679.917969 769.941406 677.339844 775.265625 674.179688 781.414062 C 671.105469 787.566406 667.195312 795.050781 665.617188 798.042969 C 663.957031 801.035156 661.378906 805.605469 659.882812 808.265625 C 658.300781 810.925781 655.890625 815.167969 654.5625 817.578125 C 653.230469 819.988281 648.742188 827.554688 644.667969 834.371094 C 640.59375 841.105469 636.769531 847.253906 636.1875 847.921875 C 635.523438 848.585938 634.445312 850.332031 633.613281 851.746094 C 632.78125 853.242188 630.867188 856.398438 629.371094 858.8125 C 627.875 861.304688 625.132812 865.542969 623.386719 868.289062 C 621.640625 871.03125 618.398438 876.433594 616.15625 880.339844 C 613.992188 884.25 611.832031 888.074219 611.332031 888.820312 C 610.917969 889.652344 605.847656 899.378906 600.277344 910.433594 C 594.625 921.574219 589.636719 931.21875 589.304688 931.882812 C 588.886719 932.546875 587.308594 935.957031 585.726562 939.363281 C 584.148438 942.773438 581.65625 948.09375 580.242188 951.253906 C 578.828125 954.328125 577.664062 957.070312 577.664062 957.488281 C 577.664062 957.820312 575.917969 961.808594 573.839844 966.382812 C 571.761719 970.953125 568.851562 977.105469 567.441406 980.097656 C 566.027344 983.09375 563.699219 987.414062 562.203125 989.660156 C 560.789062 991.988281 558.878906 994.480469 558.046875 995.3125 C 556.882812 996.394531 554.71875 996.890625 550.230469 997.140625 C 545.242188 997.472656 543.332031 997.222656 540.671875 995.976562 C 538.84375 995.144531 536.183594 994.066406 534.851562 993.484375 C 533.523438 992.984375 530.613281 990.824219 528.449219 988.660156 C 525.789062 985.917969 524.292969 983.507812 523.628906 980.929688 C 523.046875 978.851562 521.882812 974.945312 520.96875 972.203125 C 519.472656 967.796875 519.390625 965.96875 519.886719 956.824219 C 520.136719 951.085938 520.71875 944.019531 521.21875 941.027344 C 521.632812 938.035156 522.714844 929.222656 523.628906 921.492188 C 524.542969 913.761719 525.707031 905.53125 526.125 903.203125 C 526.621094 900.957031 527.289062 896.800781 527.785156 894.058594 C 528.203125 891.316406 529.117188 884.25 529.863281 878.261719 C 530.613281 872.277344 531.527344 866.125 531.859375 864.546875 C 532.273438 862.96875 533.023438 859.226562 533.605469 856.234375 C 534.105469 853.242188 536.183594 846.175781 538.175781 840.4375 C 540.171875 834.703125 542.832031 827.636719 543.996094 824.644531 C 545.160156 821.652344 548.484375 814.585938 551.3125 808.847656 C 554.136719 803.113281 558.460938 794.882812 560.957031 790.558594 C 563.367188 786.238281 566.609375 780.582031 568.105469 778.089844 C 569.601562 775.597656 572.34375 770.691406 574.257812 767.28125 C 576.167969 763.875 578.496094 759.71875 579.492188 758.136719 C 580.40625 756.558594 584.648438 748.828125 588.886719 741.097656 C 593.128906 733.367188 598.53125 722.808594 600.941406 717.820312 C 603.351562 712.832031 606.429688 706.015625 607.757812 702.855469 C 609.089844 699.695312 611.5 693.128906 613.078125 688.308594 C 614.660156 683.488281 616.570312 676.585938 617.234375 672.929688 C 617.898438 669.269531 619.0625 664.035156 619.8125 661.289062 C 620.894531 657.550781 621.226562 652.726562 621.140625 642.171875 C 621.140625 630.199219 620.808594 626.292969 618.898438 616.816406 C 617.652344 610.664062 616.070312 604.511719 615.324219 603.097656 C 614.65625 601.683594 613.410156 598.777344 612.496094 596.449219 C 611.582031 594.203125 609.335938 589.296875 607.34375 585.558594 C 605.429688 581.898438 602.851562 577.078125 601.691406 574.75 C 600.441406 572.507812 598.863281 570.09375 598.113281 569.429688 C 597.367188 568.765625 596.703125 567.933594 596.785156 567.601562 C 596.785156 567.1875 594.042969 563.445312 590.714844 559.289062 C 587.308594 555.046875 580.742188 547.648438 575.917969 542.828125 C 571.179688 538.007812 559.292969 526.367188 549.484375 517.058594 C 539.671875 507.664062 527.867188 495.527344 523.296875 490.039062 C 518.640625 484.554688 513.738281 478.566406 512.324219 476.738281 C 510.910156 474.910156 509.082031 472.082031 508.25 470.503906 C 507.5 468.925781 506.339844 467.011719 505.671875 466.347656 C 505.089844 465.683594 503.679688 463.4375 502.597656 461.359375 C 501.433594 459.28125 499.105469 454.625 497.277344 450.96875 C 495.449219 447.308594 493.535156 442.988281 492.871094 441.40625 C 492.289062 439.828125 491.125 437 490.375 435.171875 C 489.546875 433.34375 488.296875 429.1875 487.46875 426.027344 C 486.71875 422.871094 485.722656 419.460938 485.304688 418.546875 C 484.972656 417.632812 483.644531 413.308594 482.394531 408.988281 C 481.230469 404.664062 479.570312 398.429688 478.738281 395.269531 C 477.90625 392.109375 476.492188 384.960938 475.496094 379.476562 C 474.5 373.988281 473.335938 363.679688 472.917969 356.613281 C 472.503906 349.546875 472.253906 338.492188 472.421875 332.089844 C 472.667969 325.6875 473.25 315.628906 473.75 309.644531 C 474.25 303.660156 474.832031 298.253906 474.996094 297.589844 C 475.246094 296.925781 475.910156 292.019531 476.660156 286.785156 C 477.324219 281.546875 478.488281 274.980469 479.152344 272.234375 C 479.902344 269.492188 481.230469 263.921875 482.148438 259.765625 C 483.144531 255.609375 484.390625 251.371094 484.972656 250.207031 C 485.554688 249.042969 486.304688 246.796875 486.636719 245.21875 C 486.96875 243.636719 489.046875 237.402344 491.292969 231.5 C 493.453125 225.597656 496.613281 217.535156 498.191406 213.628906 C 499.769531 209.722656 502.179688 203.984375 503.511719 200.742188 C 504.839844 197.5 507.335938 191.765625 509.082031 187.855469 C 510.742188 183.949219 513.070312 178.546875 514.152344 175.804688 C 515.316406 173.058594 516.5625 170.398438 516.894531 169.984375 C 517.3125 169.566406 517.894531 168.238281 518.226562 167.074219 C 518.558594 165.910156 520.886719 160.671875 523.378906 155.4375 C 525.875 150.199219 529.449219 142.71875 531.359375 138.808594 C 533.273438 134.902344 537.511719 126.671875 540.921875 120.519531 C 544.246094 114.367188 547.320312 108.714844 547.738281 108.050781 C 548.152344 107.386719 550.5625 103.480469 553.140625 99.324219 C 555.636719 95.164062 558.628906 90.179688 559.792969 88.097656 C 560.957031 86.019531 563.117188 82.445312 564.613281 80.117188 C 566.109375 77.792969 569.433594 72.386719 572.09375 68.066406 C 574.753906 63.742188 577.746094 59.003906 578.746094 57.589844 C 579.742188 56.09375 581.90625 52.769531 583.484375 50.191406 C 585.0625 47.613281 589.304688 41.128906 592.878906 35.808594 C 596.453125 30.488281 600.609375 24.171875 602.1875 21.84375 C 603.769531 19.433594 605.097656 17.273438 605.097656 17.023438 C 605.097656 16.773438 603.933594 17.4375 602.519531 18.519531 C 601.109375 19.515625 598.363281 21.511719 596.453125 22.839844 C 594.457031 24.171875 590.132812 27.164062 586.726562 29.410156 C 583.316406 31.570312 579.246094 34.3125 577.664062 35.3125 C 576.085938 36.390625 570.597656 39.550781 565.609375 42.460938 C 560.621094 45.285156 555.136719 48.195312 553.554688 48.863281 C 551.976562 49.527344 549.734375 50.691406 548.570312 51.4375 C 547.488281 52.1875 544.496094 53.601562 541.917969 54.679688 C 539.425781 55.761719 534.351562 57.757812 530.695312 59.085938 C 527.039062 60.5 519.554688 63.078125 514.070312 64.90625 C 508.582031 66.652344 501.265625 68.730469 497.859375 69.476562 C 494.449219 70.226562 490.128906 71.308594 488.296875 71.890625 C 486.46875 72.554688 481.230469 73.632812 476.660156 74.382812 C 472.085938 75.132812 465.769531 76.296875 462.527344 76.875 C 459.285156 77.542969 455.210938 78.289062 453.382812 78.539062 C 451.554688 78.789062 447.980469 79.121094 445.484375 79.371094 C 442.992188 79.621094 439 80.035156 436.757812 80.285156 C 434.429688 80.535156 422.542969 80.699219 410.15625 80.699219 C 397.769531 80.785156 381.890625 80.367188 374.824219 79.785156 C 367.757812 79.289062 358.78125 78.289062 354.871094 77.707031 C 350.964844 77.042969 342.734375 75.546875 336.582031 74.382812 C 330.433594 73.136719 325.027344 71.972656 324.53125 71.722656 C 324.03125 71.390625 319.792969 70.144531 314.96875 68.894531 C 310.148438 67.730469 302.5 65.488281 297.925781 64.074219 C 293.355469 62.660156 289.28125 61.164062 288.78125 60.832031 C 288.285156 60.417969 286.039062 59.417969 283.796875 58.589844 C 281.46875 57.757812 275.566406 54.929688 270.496094 52.351562 C 265.421875 49.777344 259.105469 46.203125 256.363281 44.371094 C 253.703125 42.625 250.792969 40.464844 249.960938 39.71875 C 249.128906 38.886719 248.132812 38.222656 247.632812 38.222656 C 247.132812 38.222656 242.976562 34.3125 238.238281 29.574219 C 233.582031 24.835938 228.761719 19.683594 227.515625 18.1875 C 226.269531 16.605469 225.269531 15.109375 225.1875 14.777344 C 225.1875 14.363281 224.105469 12.367188 222.777344 10.207031 C 221.445312 7.960938 219.699219 4.386719 218.953125 2.058594 C 218.289062 -0.1875 217.289062 -2.761719 216.875 -3.511719 C 216.375 -4.34375 215.046875 -8.996094 213.882812 -13.902344 C 212.71875 -18.890625 211.386719 -24.542969 210.972656 -26.621094 C 210.472656 -28.78125 210.308594 -34.683594 210.640625 -40.753906 C 210.890625 -46.488281 211.472656 -51.5625 211.96875 -51.976562 C 212.386719 -52.390625 212.71875 -53.972656 212.71875 -55.300781 C 212.71875 -56.632812 213.464844 -60.953125 214.464844 -64.863281 C 215.378906 -68.769531 216.457031 -72.34375 216.792969 -72.757812 C 217.207031 -73.175781 218.203125 -75.417969 219.035156 -77.746094 C 219.867188 -79.992188 221.695312 -83.980469 223.109375 -86.476562 C 224.523438 -88.96875 226.933594 -92.878906 228.511719 -95.121094 C 230.09375 -97.367188 233.582031 -101.855469 236.328125 -105.097656 C 238.988281 -108.339844 242.976562 -112.664062 245.140625 -114.742188 C 247.300781 -116.820312 251.289062 -120.558594 254.117188 -123.054688 C 256.859375 -125.546875 262.265625 -129.953125 266.089844 -132.863281 C 269.914062 -135.773438 275.480469 -139.761719 278.558594 -141.757812 C 281.71875 -143.835938 284.542969 -145.5 285.042969 -145.5 C 285.542969 -145.5 285.875 -145.914062 285.875 -146.332031 C 285.875 -146.746094 288.035156 -148.242188 290.613281 -149.574219 C 293.273438 -150.984375 300.671875 -154.644531 307.070312 -157.804688 C 313.472656 -160.960938 320.789062 -164.203125 323.28125 -165.035156 C 325.777344 -165.867188 328.1875 -166.78125 328.6875 -167.113281 C 329.183594 -167.445312 332.09375 -168.527344 335.335938 -169.609375 C 338.578125 -170.605469 342.320312 -171.933594 343.648438 -172.515625 C 344.980469 -173.097656 348.722656 -174.261719 351.964844 -175.011719 C 355.207031 -175.757812 359.113281 -176.839844 360.691406 -177.503906 C 362.269531 -178.085938 367.925781 -179.417969 373.160156 -180.414062 C 378.398438 -181.414062 383.554688 -182.578125 384.550781 -182.992188 C 385.632812 -183.40625 392.199219 -184.488281 399.097656 -185.402344 C 406.082031 -186.316406 414.226562 -187.398438 417.222656 -187.8125 C 420.214844 -188.230469 428.609375 -188.894531 435.925781 -189.144531 C 443.492188 -189.476562 454.960938 -189.308594 462.527344 -188.8125 C 469.84375 -188.3125 478.40625 -187.5625 481.648438 -187.066406 C 484.890625 -186.648438 491.789062 -185.902344 497.027344 -185.320312 C 502.265625 -184.820312 509.578125 -183.824219 513.238281 -183.242188 C 516.894531 -182.578125 524.792969 -181.246094 530.695312 -180.414062 C 536.597656 -179.5 543.914062 -178.253906 546.90625 -177.589844 C 549.898438 -176.921875 554.886719 -175.925781 558.128906 -175.425781 C 561.371094 -174.84375 566.027344 -173.847656 568.519531 -173.183594 C 571.015625 -172.601562 577.746094 -170.9375 583.484375 -169.609375 C 589.21875 -168.277344 597.449219 -166.28125 601.773438 -165.117188 C 606.09375 -163.953125 610.585938 -162.542969 611.75 -162.042969 C 612.914062 -161.542969 616.652344 -160.214844 620.0625 -159.214844 C 623.46875 -158.136719 630.039062 -155.890625 634.609375 -154.226562 C 639.183594 -152.566406 645.5 -150.238281 648.742188 -149.15625 C 651.984375 -147.992188 654.976562 -146.746094 655.390625 -146.332031 C 655.808594 -146 657.71875 -145.25 659.550781 -144.667969 C 661.378906 -144.085938 664.371094 -142.921875 666.199219 -142.089844 C 668.027344 -141.261719 671.1875 -140.011719 673.265625 -139.265625 C 675.34375 -138.601562 677.007812 -138.101562 677.089844 -138.265625 C 677.089844 -138.351562 679.167969 -141.425781 681.578125 -145.082031 C 684.074219 -148.742188 687.230469 -153.3125 688.5625 -155.308594 C 689.976562 -157.222656 691.96875 -160.046875 693.050781 -161.542969 C 694.132812 -163.039062 697.125 -166.949219 699.703125 -170.273438 C 702.277344 -173.597656 707.351562 -179.914062 710.925781 -184.40625 C 714.582031 -188.8125 720.734375 -195.960938 724.640625 -200.28125 C 728.632812 -204.605469 736.527344 -212.835938 742.265625 -218.65625 C 748 -224.390625 756.398438 -232.453125 760.96875 -236.613281 C 765.542969 -240.683594 772.691406 -246.835938 776.765625 -250.246094 C 780.921875 -253.652344 785.410156 -257.3125 786.738281 -258.390625 C 788.152344 -259.390625 790.730469 -261.300781 792.558594 -262.546875 C 794.304688 -263.796875 796.800781 -265.625 797.960938 -266.707031 C 799.125 -267.703125 800.289062 -268.617188 800.625 -268.535156 C 801.039062 -268.535156 801.953125 -269.199219 802.703125 -270.03125 C 803.53125 -270.863281 807.523438 -273.769531 811.511719 -276.429688 C 815.585938 -279.175781 819.492188 -281.75 820.242188 -282.25 C 820.992188 -282.75 824.8125 -285.160156 828.722656 -287.652344 C 832.628906 -290.148438 837.367188 -292.976562 839.195312 -293.890625 C 840.941406 -294.804688 842.605469 -295.800781 842.855469 -296.132812 C 843.101562 -296.464844 851.832031 -301.039062 862.390625 -306.359375 C 872.949219 -311.597656 882.175781 -315.917969 882.921875 -315.917969 C 883.753906 -315.917969 884.417969 -316.25 884.417969 -316.75 C 884.417969 -317.25 886.582031 -318.328125 889.15625 -319.242188 C 891.816406 -320.160156 894.894531 -321.40625 896.058594 -322.070312 C 897.222656 -322.652344 900.214844 -323.816406 902.707031 -324.648438 C 905.203125 -325.480469 907.695312 -326.394531 908.113281 -326.808594 C 908.527344 -327.140625 912.269531 -328.636719 916.425781 -330.050781 C 920.582031 -331.464844 927.480469 -333.792969 931.804688 -335.121094 C 936.128906 -336.535156 943.277344 -338.613281 947.597656 -339.695312 C 951.921875 -340.773438 956.828125 -342.105469 958.40625 -342.605469 C 959.984375 -343.1875 965.804688 -344.515625 971.292969 -345.597656 C 976.777344 -346.675781 984.261719 -348.089844 987.917969 -348.753906 C 991.574219 -349.421875 997.726562 -350.335938 1001.632812 -350.75 C 1005.542969 -351.167969 1018.011719 -351.414062 1029.484375 -351.25 Z M 1031.5625 -293.890625 C 1029.066406 -293.558594 1022.5 -292.640625 1017.015625 -291.726562 C 1011.527344 -290.8125 1002.382812 -289.066406 996.648438 -287.738281 C 990.910156 -286.40625 982.097656 -284.246094 977.109375 -282.832031 C 972.121094 -281.417969 964.390625 -278.925781 960.070312 -277.347656 C 955.746094 -275.851562 949.34375 -273.523438 945.9375 -272.359375 C 942.527344 -271.113281 937.707031 -269.199219 935.296875 -268.117188 C 932.96875 -266.953125 930.804688 -266.039062 930.558594 -266.039062 C 930.308594 -266.039062 927.230469 -264.710938 923.65625 -263.046875 C 920.164062 -261.386719 912.933594 -257.976562 907.695312 -255.398438 C 902.457031 -252.90625 893.648438 -248.417969 888.160156 -245.421875 C 882.671875 -242.515625 876.1875 -238.773438 873.777344 -237.277344 C 871.449219 -235.699219 869.125 -234.449219 868.625 -234.449219 C 868.207031 -234.449219 867.210938 -233.703125 866.378906 -232.789062 C 865.546875 -231.789062 864.632812 -231.042969 864.21875 -231.125 C 863.886719 -231.125 859.398438 -228.296875 854.242188 -224.890625 C 849.171875 -221.480469 842.855469 -217.160156 840.359375 -215.332031 C 837.867188 -213.5 834.457031 -211.007812 832.878906 -209.925781 C 831.296875 -208.761719 828.804688 -206.933594 827.472656 -205.9375 C 826.0625 -204.9375 823.070312 -202.609375 820.824219 -200.78125 C 818.578125 -198.953125 812.925781 -194.296875 808.355469 -190.472656 C 803.78125 -186.648438 795.21875 -179 789.316406 -173.433594 C 783.414062 -167.945312 775.183594 -159.964844 771.027344 -155.890625 C 766.871094 -151.734375 760.46875 -145.167969 756.8125 -141.261719 C 753.15625 -137.351562 747.417969 -131.203125 744.175781 -127.625 C 740.851562 -123.96875 737.527344 -120.144531 736.859375 -119.0625 C 735.613281 -117.316406 735.699219 -117.234375 739.105469 -116.402344 C 741.101562 -115.90625 743.261719 -115.324219 743.925781 -115.074219 C 744.59375 -114.824219 747.75 -114.074219 750.992188 -113.410156 C 754.234375 -112.746094 762.796875 -111.664062 770.113281 -111 C 777.429688 -110.335938 787.820312 -109.753906 793.140625 -109.753906 C 798.542969 -109.753906 812.59375 -110.5 824.316406 -111.414062 C 836.121094 -112.332031 848.007812 -113.496094 850.75 -113.910156 C 853.496094 -114.324219 859.480469 -115.40625 864.050781 -116.320312 C 868.625 -117.234375 875.191406 -118.398438 878.601562 -118.980469 C 882.007812 -119.480469 885.417969 -120.226562 886.082031 -120.558594 C 886.746094 -120.894531 892.152344 -122.058594 898.136719 -122.972656 C 904.121094 -123.96875 910.273438 -125.214844 911.851562 -125.714844 C 913.433594 -126.214844 918.917969 -127.460938 923.90625 -128.542969 C 928.894531 -129.621094 936.957031 -131.449219 941.78125 -132.613281 C 946.601562 -133.777344 951.757812 -135.359375 953.167969 -136.023438 C 954.664062 -136.6875 958.988281 -137.933594 962.730469 -138.933594 C 966.554688 -139.847656 970.042969 -140.925781 970.460938 -141.34375 C 970.875 -141.675781 974.285156 -142.839844 977.941406 -143.835938 C 981.601562 -144.835938 985.007812 -146 985.425781 -146.332031 C 985.839844 -146.664062 989.082031 -147.910156 992.492188 -149.074219 C 995.898438 -150.238281 1001.386719 -152.234375 1004.542969 -153.398438 C 1007.703125 -154.644531 1011.277344 -156.140625 1012.441406 -156.722656 C 1013.605469 -157.304688 1016.347656 -158.46875 1018.675781 -159.214844 C 1020.921875 -160.046875 1027.488281 -162.957031 1033.226562 -165.785156 C 1038.960938 -168.609375 1045.445312 -172.019531 1047.773438 -173.265625 C 1050.015625 -174.597656 1055.835938 -178.335938 1060.65625 -181.496094 C 1065.480469 -184.738281 1070.550781 -188.3125 1071.964844 -189.476562 C 1073.378906 -190.640625 1075.789062 -192.550781 1077.285156 -193.714844 C 1078.78125 -194.878906 1081.523438 -197.125 1083.351562 -198.703125 C 1085.183594 -200.285156 1089.171875 -204.023438 1092.246094 -207.015625 C 1095.242188 -210.011719 1099.8125 -214.832031 1102.308594 -217.824219 C 1104.800781 -220.816406 1107.960938 -224.890625 1109.371094 -226.96875 C 1110.785156 -229.046875 1113.03125 -232.539062 1114.359375 -234.867188 C 1115.691406 -237.109375 1118.019531 -242.015625 1119.515625 -245.671875 C 1121.34375 -250.078125 1122.425781 -254.320312 1122.757812 -258.144531 C 1123.253906 -263.878906 1123.253906 -264.046875 1119.847656 -268.949219 C 1118.019531 -271.691406 1114.777344 -275.601562 1112.613281 -277.679688 C 1110.535156 -279.757812 1107.378906 -282.25 1105.714844 -283.25 C 1104.050781 -284.246094 1100.976562 -285.910156 1098.898438 -286.824219 C 1096.820312 -287.820312 1094.078125 -289.152344 1092.664062 -289.816406 C 1091.25 -290.480469 1087.011719 -291.644531 1083.101562 -292.394531 C 1079.195312 -293.058594 1073.625 -294.140625 1070.632812 -294.722656 C 1067.640625 -295.300781 1060.410156 -295.800781 1054.421875 -295.800781 C 1048.4375 -295.800781 1041.953125 -295.46875 1039.875 -295.136719 C 1037.796875 -294.722656 1034.054688 -294.222656 1031.5625 -293.890625 Z M 414.726562 -126.460938 C 410.820312 -125.964844 406.332031 -125.132812 404.75 -124.550781 C 403.171875 -124.050781 397.519531 -122.722656 392.28125 -121.722656 C 387.042969 -120.726562 378.8125 -118.730469 373.992188 -117.316406 C 369.171875 -115.988281 362.269531 -113.910156 358.613281 -112.746094 C 354.957031 -111.582031 349.550781 -109.585938 346.558594 -108.421875 C 343.566406 -107.257812 336.5 -104.015625 330.765625 -101.191406 C 325.027344 -98.363281 318.460938 -94.957031 316.214844 -93.542969 C 313.886719 -92.128906 311.476562 -90.632812 310.644531 -90.21875 C 309.898438 -89.71875 305.992188 -87.140625 301.917969 -84.398438 C 297.925781 -81.738281 293.4375 -78.496094 292.023438 -77.332031 C 290.613281 -76.167969 288.035156 -74.089844 286.289062 -72.761719 C 284.542969 -71.429688 280.46875 -67.855469 277.226562 -64.863281 C 273.984375 -61.871094 268.75 -56.464844 265.671875 -52.808594 C 262.597656 -49.152344 259.769531 -45.742188 259.355469 -45.328125 C 259.023438 -44.910156 257.191406 -41.667969 255.28125 -38.261719 C 253.367188 -34.851562 251.125 -29.199219 250.292969 -25.789062 C 249.460938 -22.382812 248.546875 -19.058594 248.214844 -18.476562 C 247.882812 -17.976562 248.382812 -14.984375 249.378906 -11.824219 C 250.292969 -8.75 251.625 -5.089844 252.207031 -3.761719 C 252.871094 -2.429688 254.949219 0.0625 256.945312 1.726562 C 258.9375 3.304688 263.09375 6.046875 266.335938 7.710938 C 269.578125 9.375 274.234375 11.617188 276.730469 12.78125 C 279.222656 13.863281 283.878906 15.609375 287.121094 16.523438 C 290.363281 17.519531 293.6875 18.683594 294.601562 19.101562 C 295.515625 19.515625 301.167969 20.929688 307.070312 22.09375 C 312.972656 23.257812 319.707031 24.585938 322.035156 24.917969 C 324.28125 25.335938 334.253906 25.917969 344.066406 26.25 C 355.289062 26.582031 367.425781 26.414062 376.488281 25.832031 C 384.46875 25.335938 393.445312 24.335938 396.4375 23.671875 C 399.429688 23.089844 406.332031 21.761719 411.816406 20.847656 C 417.304688 19.929688 424.203125 18.601562 427.195312 17.851562 C 430.1875 17.105469 435.175781 15.773438 438.417969 14.859375 C 441.660156 13.945312 447.066406 12.285156 450.472656 11.203125 C 453.882812 10.121094 459.867188 8.042969 463.773438 6.628906 C 467.683594 5.21875 473.25 2.890625 476.246094 1.558594 C 479.238281 0.144531 486.136719 -3.261719 491.625 -6.003906 C 497.109375 -8.75 502.515625 -11.742188 503.675781 -12.65625 C 504.839844 -13.488281 506.003906 -14.234375 506.335938 -14.152344 C 506.753906 -14.152344 508.996094 -15.480469 511.324219 -17.0625 C 513.738281 -18.640625 515.980469 -19.972656 516.3125 -19.972656 C 516.730469 -19.972656 520.46875 -22.300781 524.625 -25.125 C 528.867188 -27.867188 534.019531 -31.359375 536.097656 -32.773438 C 538.175781 -34.105469 543.414062 -37.929688 547.738281 -41.167969 C 552.144531 -44.328125 558.460938 -49.234375 561.785156 -51.976562 C 565.195312 -54.71875 570.597656 -59.125 573.839844 -61.785156 C 577.082031 -64.53125 581.238281 -67.9375 583.066406 -69.433594 C 584.898438 -70.929688 590.21875 -75.253906 594.871094 -79.078125 C 599.527344 -82.902344 606.34375 -88.472656 610.003906 -91.464844 C 613.742188 -94.457031 616.734375 -97.035156 616.734375 -97.285156 C 616.734375 -97.53125 610.917969 -99.609375 603.683594 -102.023438 C 596.453125 -104.351562 587.722656 -107.175781 584.316406 -108.171875 C 580.90625 -109.171875 573.589844 -111.082031 568.105469 -112.414062 C 562.617188 -113.742188 553.222656 -115.738281 547.320312 -116.820312 C 541.417969 -117.898438 535.351562 -119.148438 534.019531 -119.644531 C 532.691406 -120.0625 526.871094 -121.058594 521.136719 -121.808594 C 515.398438 -122.554688 508.5 -123.71875 505.753906 -124.382812 C 503.011719 -125.050781 494.949219 -126.128906 487.882812 -126.878906 C 480.816406 -127.625 465.4375 -128.292969 453.796875 -128.457031 C 442.160156 -128.539062 430.1875 -128.375 427.195312 -128.042969 C 424.203125 -127.710938 418.632812 -127.042969 414.726562 -126.460938 Z M 1204.058594 31.734375 C 1200.402344 33.234375 1196.496094 34.976562 1195.332031 35.726562 C 1194.167969 36.476562 1190.425781 38.96875 1187.015625 41.214844 C 1183.609375 43.457031 1177.457031 48.695312 1173.300781 52.851562 C 1169.144531 57.007812 1164.488281 61.996094 1162.910156 63.992188 C 1161.328125 65.902344 1159.335938 68.230469 1158.585938 69.0625 C 1157.753906 69.976562 1156.675781 71.472656 1156.09375 72.46875 C 1155.59375 73.550781 1154.015625 75.960938 1152.601562 77.875 C 1151.1875 79.785156 1149.027344 82.945312 1147.78125 84.941406 C 1146.617188 86.933594 1143.539062 92.671875 1140.960938 97.660156 C 1138.46875 102.648438 1135.394531 109.628906 1134.230469 113.039062 C 1132.980469 116.445312 1131.484375 120.9375 1130.902344 123.015625 C 1130.320312 125.09375 1128.742188 131.410156 1127.496094 137.148438 C 1125.335938 146.625 1125.167969 149.035156 1125.085938 164.164062 C 1125.085938 178.710938 1125.335938 181.707031 1126.914062 187.855469 C 1127.910156 191.765625 1129.40625 197.667969 1130.238281 201.074219 C 1131.152344 204.816406 1132.234375 207.394531 1132.980469 207.640625 C 1133.648438 207.890625 1136.058594 207.394531 1138.386719 206.726562 C 1140.628906 205.980469 1145.367188 204.398438 1148.777344 203.234375 C 1152.183594 202.074219 1157.839844 199.910156 1161.246094 198.496094 C 1164.65625 197.085938 1170.472656 194.425781 1174.132812 192.679688 C 1177.789062 190.933594 1182.945312 188.273438 1185.519531 186.777344 C 1188.097656 185.28125 1192.089844 183.035156 1194.25 181.707031 C 1196.410156 180.375 1200.234375 177.714844 1202.730469 175.886719 C 1205.140625 173.972656 1207.964844 171.894531 1208.882812 171.230469 C 1209.878906 170.566406 1213.785156 166.992188 1217.609375 163.332031 C 1221.515625 159.675781 1227.503906 153.109375 1230.992188 148.617188 C 1234.484375 144.214844 1238.144531 139.390625 1239.222656 137.8125 C 1240.222656 136.316406 1241.96875 133.738281 1242.964844 132.160156 C 1244.046875 130.578125 1246.125 127.003906 1247.621094 124.261719 C 1249.117188 121.519531 1251.445312 117.195312 1252.773438 114.703125 C 1254.105469 112.207031 1256.679688 106.804688 1258.511719 102.648438 C 1260.257812 98.492188 1262.832031 91.839844 1264.164062 87.683594 C 1265.492188 83.527344 1267.074219 77.625 1267.65625 74.382812 C 1268.238281 71.140625 1268.484375 66.652344 1268.238281 64.40625 C 1267.902344 61.664062 1266.492188 58.171875 1264.164062 54.097656 C 1262.167969 50.691406 1258.511719 45.953125 1256.015625 43.457031 C 1253.523438 41.046875 1250.113281 38.304688 1248.535156 37.390625 C 1246.957031 36.476562 1242.464844 34.230469 1238.558594 32.316406 C 1234.652344 30.488281 1229.25 28.660156 1226.503906 28.246094 C 1223.761719 27.746094 1220.769531 27.496094 1219.855469 27.496094 C 1218.941406 27.578125 1216.527344 27.914062 1214.449219 28.328125 C 1212.371094 28.742188 1207.71875 30.324219 1204.058594 31.734375 Z M 1204.058594 31.734375 " fill-opacity="1" fill-rule="evenodd"/></g></svg>