<svg xmlns="http://www.w3.org/2000/svg" xmlns:xlink="http://www.w3.org/1999/xlink" width="1920" zoomAndPan="magnify" viewBox="0 0 1440 809.999993" height="1080" preserveAspectRatio="xMidYMid meet" version="1.0"><defs><clipPath id="c31d969a57"><path d="M 103 0 L 1440 0 L 1440 810 L 103 810 Z M 103 0 " clip-rule="nonzero"/></clipPath><clipPath id="0f31b9579f"><path d="M -112.289062 122.878906 L 998.570312 -512.035156 L 1592.542969 527.199219 L 481.683594 1162.109375 Z M -112.289062 122.878906 " clip-rule="nonzero"/></clipPath><clipPath id="d8a9d12f45"><path d="M -112.289062 122.878906 L 998.570312 -512.035156 L 1592.542969 527.199219 L 481.683594 1162.109375 Z M -112.289062 122.878906 " clip-rule="nonzero"/></clipPath></defs><rect x="-144" width="1728" fill="#ffffff" y="-80.999999" height="971.999992" fill-opacity="1"/><rect x="-144" width="1728" fill="#e6f5fa" y="-80.999999" height="971.999992" fill-opacity="1"/><g clip-path="url(#c31d969a57)"><g clip-path="url(#0f31b9579f)"><g clip-path="url(#d8a9d12f45)"><path fill="#8fd6ff" d="M 850.097656 -426.664062 C 861.84375 -433.183594 872.121094 -438.578125 873.820312 -438.972656 C 875.445312 -439.324219 881.15625 -441.4375 886.527344 -443.640625 C 891.898438 -445.847656 896.773438 -447.574219 897.300781 -447.492188 C 897.871094 -447.335938 900.925781 -448.21875 903.96875 -449.285156 C 907.011719 -450.351562 910.726562 -451.417969 912.289062 -451.539062 C 913.808594 -451.738281 916.875 -452.429688 919.078125 -453.113281 C 921.355469 -453.839844 924.058594 -454.324219 925.144531 -454.273438 C 926.230469 -454.222656 928.195312 -454.480469 929.59375 -454.894531 C 930.992188 -455.308594 933.691406 -455.796875 935.699219 -455.984375 C 937.707031 -456.167969 942.511719 -456.511719 946.308594 -456.761719 C 950.109375 -457.007812 954.992188 -457.207031 957.082031 -457.246094 C 959.214844 -457.214844 962.921875 -457.125 965.394531 -457 C 967.910156 -456.804688 970.125 -456.628906 970.464844 -456.535156 C 970.808594 -456.441406 973.820312 -456.046875 977.246094 -455.605469 C 980.671875 -455.160156 988.195312 -453.597656 993.921875 -452.160156 C 999.714844 -450.761719 1007.675781 -448.101562 1011.621094 -446.417969 C 1015.636719 -444.769531 1019.421875 -443.1875 1019.992188 -443.03125 C 1020.601562 -442.804688 1022.257812 -441.925781 1023.585938 -440.953125 C 1024.910156 -439.980469 1026.140625 -439.339844 1026.359375 -439.460938 C 1026.535156 -439.660156 1028.355469 -438.488281 1030.386719 -436.957031 C 1032.445312 -435.539062 1034.421875 -434.265625 1034.792969 -434.289062 C 1035.238281 -434.351562 1036.324219 -433.625 1037.277344 -432.632812 C 1038.304688 -431.679688 1040.457031 -429.929688 1042.089844 -428.75 C 1043.726562 -427.570312 1046.6875 -424.746094 1048.683594 -422.429688 C 1050.683594 -420.109375 1053.363281 -416.257812 1054.730469 -413.867188 C 1056.097656 -411.476562 1058.382812 -406.632812 1059.742188 -403.085938 C 1061.210938 -399.503906 1062.585938 -394.910156 1062.742188 -392.785156 C 1063.011719 -390.632812 1063.386719 -387.964844 1063.601562 -386.742188 C 1063.894531 -385.5625 1063.996094 -383.027344 1063.914062 -381.152344 C 1063.757812 -379.238281 1063.574219 -376.535156 1063.386719 -375.179688 C 1063.199219 -373.824219 1061.988281 -368.710938 1060.695312 -363.742188 C 1059.433594 -358.890625 1056.742188 -351.488281 1054.695312 -347.339844 C 1052.761719 -343.15625 1049.128906 -336.5625 1046.539062 -332.683594 C 1043.953125 -328.800781 1041.253906 -324.949219 1040.445312 -324.007812 C 1039.597656 -323.140625 1037.949219 -321.140625 1036.769531 -319.503906 C 1035.589844 -317.871094 1033.199219 -315.15625 1031.535156 -313.53125 C 1029.753906 -311.9375 1028.171875 -310.167969 1028.015625 -309.601562 C 1027.820312 -309.101562 1025.242188 -306.378906 1022.335938 -303.566406 C 1019.425781 -300.75 1014.304688 -296.089844 1010.992188 -293.140625 C 1007.636719 -290.265625 1001.882812 -285.535156 998.273438 -282.605469 C 994.617188 -279.746094 987.613281 -274.683594 982.644531 -271.269531 C 977.636719 -267.925781 970.226562 -262.730469 966.167969 -259.738281 C 961.53125 -256.414062 945.6875 -246.972656 924.605469 -234.925781 C 905.914062 -224.242188 885.132812 -212.84375 878.507812 -209.636719 C 871.882812 -206.425781 860.15625 -200.878906 852.4375 -197.234375 C 844.675781 -193.660156 836.105469 -189.820312 833.25 -188.765625 C 830.433594 -187.636719 823.632812 -184.902344 818.085938 -182.503906 C 812.539062 -180.101562 806.941406 -177.957031 805.5 -177.617188 C 804.0625 -177.273438 797.832031 -175.058594 791.582031 -172.542969 C 785.328125 -170.027344 775.671875 -166.238281 769.960938 -164.125 C 764.289062 -161.941406 758.605469 -159.945312 757.125 -159.675781 C 755.6875 -159.332031 750.542969 -157.738281 745.742188 -156.050781 C 740.941406 -154.363281 733.3125 -151.734375 728.871094 -150.253906 C 724.429688 -148.773438 720.300781 -147.085938 719.703125 -146.453125 C 718.78125 -145.542969 719.058594 -145.222656 722.308594 -143.90625 C 724.339844 -143.050781 728.035156 -141.796875 730.609375 -141.15625 C 733.117188 -140.472656 735.484375 -139.519531 735.734375 -139.085938 C 736.023438 -138.578125 737.359375 -138.09375 738.707031 -138.09375 C 740.050781 -138.09375 741.386719 -137.605469 741.632812 -137.171875 C 741.996094 -136.707031 743.269531 -135.992188 744.523438 -135.652344 C 745.773438 -135.308594 749.78125 -133.851562 753.339844 -132.328125 C 756.933594 -130.921875 763.027344 -128.160156 766.753906 -126.347656 C 770.59375 -124.507812 773.949219 -122.675781 774.15625 -122.3125 C 774.363281 -121.949219 774.933594 -121.792969 775.292969 -122 C 775.65625 -122.207031 776.566406 -121.960938 777.230469 -121.472656 C 777.859375 -120.875 780.023438 -119.613281 782.023438 -118.640625 C 784.019531 -117.664062 786.265625 -116.257812 787.09375 -115.480469 C 787.808594 -114.738281 788.65625 -114.261719 788.945312 -114.425781 C 789.308594 -114.632812 790.964844 -113.753906 792.714844 -112.542969 C 794.503906 -111.261719 796.171875 -110.195312 796.585938 -110.144531 C 797 -110.089844 800.320312 -108.144531 804.152344 -105.816406 C 807.910156 -103.445312 816.519531 -97.796875 823.351562 -93.242188 C 830.113281 -88.648438 836.882812 -83.867188 838.300781 -82.5625 C 839.789062 -81.300781 841.539062 -80.089844 842.148438 -79.863281 C 842.71875 -79.707031 844.914062 -77.886719 846.859375 -75.828125 C 848.765625 -73.839844 850.886719 -71.976562 851.527344 -71.863281 C 852.167969 -71.75 854.457031 -69.597656 856.609375 -67.175781 C 858.761719 -64.753906 860.738281 -62.808594 861 -62.859375 C 861.257812 -62.910156 863.75 -60.394531 866.503906 -57.261719 C 869.332031 -54.164062 871.941406 -51.621094 872.355469 -51.566406 C 872.839844 -51.558594 874.847656 -49.726562 876.917969 -47.449219 C 879.0625 -45.214844 883.78125 -40.320312 887.496094 -36.675781 C 891.140625 -32.992188 896.367188 -27.714844 898.988281 -24.980469 C 901.605469 -22.25 905.890625 -17.777344 908.511719 -15.046875 C 911.128906 -12.3125 914.660156 -8.660156 916.355469 -7.035156 C 918.054688 -5.410156 921.074219 -2.140625 923 0.21875 C 925 2.539062 927.222656 4.917969 928.042969 5.507812 C 928.859375 6.097656 932.328125 9.976562 935.804688 14.046875 C 939.210938 18.15625 945.257812 25.367188 949.066406 30.015625 C 952.875 34.660156 956.550781 38.90625 957.171875 39.320312 C 957.71875 39.773438 961.320312 44.058594 965.058594 48.746094 C 968.796875 53.433594 973.371094 59.085938 975.171875 61.226562 C 976.972656 63.371094 980.542969 67.769531 983.195312 71.058594 C 985.769531 74.390625 990.65625 80.25 993.867188 84.183594 C 997.148438 88.074219 1003.046875 95.371094 1006.980469 100.234375 C 1010.914062 105.097656 1016.253906 111.753906 1018.976562 115.003906 C 1021.699219 118.253906 1026.078125 123.726562 1028.738281 127.203125 C 1031.398438 130.683594 1037.527344 138.714844 1042.175781 144.996094 C 1046.894531 151.234375 1051.769531 157.582031 1053.042969 158.96875 C 1054.390625 160.3125 1060.320312 168.839844 1066.242188 177.855469 C 1072.234375 186.828125 1078.820312 196.328125 1080.753906 198.875 C 1082.691406 201.421875 1088.40625 209.398438 1093.332031 216.675781 C 1098.257812 223.953125 1103.320312 230.957031 1104.667969 232.304688 C 1105.941406 233.691406 1111.207031 241.058594 1116.34375 248.695312 C 1121.550781 256.292969 1126.820312 263.660156 1128.09375 265.046875 C 1129.363281 266.433594 1134.789062 273.90625 1140.121094 281.722656 C 1145.453125 289.535156 1151.257812 297.847656 1153.109375 300.246094 C 1154.964844 302.648438 1161.566406 311.847656 1167.707031 320.738281 C 1173.84375 329.628906 1182.085938 341.355469 1185.976562 346.820312 C 1189.871094 352.285156 1194.992188 359.0625 1197.46875 361.878906 C 1199.867188 364.734375 1203.9375 370.003906 1206.523438 373.519531 C 1209.113281 377.039062 1212.207031 380.941406 1213.355469 382.109375 C 1214.503906 383.28125 1218.34375 387.8125 1221.875 392.140625 C 1225.40625 396.464844 1231.242188 403.316406 1234.867188 407.300781 C 1238.488281 411.285156 1243.417969 416.542969 1245.785156 418.839844 C 1248.230469 421.097656 1251.25 423.695312 1252.460938 424.636719 C 1253.746094 425.535156 1256.097656 427.460938 1257.722656 429.128906 C 1259.304688 430.722656 1260.828125 431.871094 1261.1875 431.664062 C 1261.476562 431.496094 1262.761719 432.398438 1264.023438 433.597656 C 1265.402344 434.828125 1270.359375 438.628906 1275.140625 441.949219 C 1279.996094 445.230469 1284.445312 447.972656 1285.191406 447.929688 C 1285.980469 447.960938 1286.785156 448.363281 1287.035156 448.800781 C 1287.324219 449.308594 1292.199219 450.941406 1297.890625 452.492188 C 1303.585938 454.046875 1311.574219 456.589844 1315.734375 458.152344 C 1319.898438 459.714844 1324.628906 461.433594 1326.222656 461.867188 C 1327.816406 462.304688 1332.574219 463.90625 1336.839844 465.3125 C 1341.144531 466.792969 1346.207031 468.417969 1348.144531 468.945312 C 1350.035156 469.402344 1354.320312 470.507812 1357.613281 471.222656 C 1360.945312 472.007812 1365.707031 472.941406 1368.304688 473.28125 C 1370.902344 473.621094 1373.242188 474.015625 1373.582031 474.109375 C 1373.925781 474.203125 1376.410156 474.511719 1379.152344 474.769531 C 1381.824219 475.070312 1385.21875 475.628906 1386.582031 476 C 1387.878906 476.414062 1389.234375 476.601562 1389.636719 476.464844 C 1389.925781 476.300781 1393.1875 476.457031 1396.945312 476.808594 C 1400.816406 477.191406 1405.089844 477.4375 1406.695312 477.386719 C 1408.265625 477.449219 1412.105469 477.273438 1415.160156 477.066406 C 1418.253906 476.929688 1422.363281 476.886719 1424.277344 477.042969 C 1426.195312 477.199219 1429.214844 477.105469 1430.921875 476.898438 C 1432.632812 476.691406 1434.265625 476.523438 1434.648438 476.691406 C 1434.992188 476.785156 1437.039062 476.667969 1439.308594 476.429688 C 1441.574219 476.191406 1443.625 476.078125 1444.007812 476.246094 C 1444.347656 476.335938 1446.542969 476.140625 1448.882812 475.859375 C 1451.179688 475.507812 1453.15625 475.4375 1453.28125 475.652344 C 1453.402344 475.871094 1455.410156 475.683594 1457.8125 475.175781 C 1460.183594 474.785156 1462.304688 474.628906 1462.46875 474.917969 C 1462.675781 475.28125 1464.28125 475.226562 1466.0625 474.980469 C 1467.875 474.617188 1470.109375 474.492188 1470.976562 474.667969 C 1471.804688 474.773438 1473.96875 474.6875 1475.636719 474.410156 C 1477.300781 474.128906 1479.425781 473.972656 1480.292969 474.148438 C 1481.121094 474.253906 1484.371094 474.222656 1487.507812 474.160156 C 1490.601562 474.023438 1494.875 473.601562 1497.058594 473.21875 C 1499.285156 472.90625 1503.734375 471.613281 1507.039062 470.496094 C 1510.628906 469.210938 1515.285156 468.277344 1518.722656 468.238281 C 1521.859375 468.175781 1526.785156 468.722656 1529.703125 469.457031 C 1532.851562 470.253906 1535.769531 471.660156 1536.960938 472.902344 C 1537.996094 474.042969 1539.207031 474.984375 1539.652344 474.921875 C 1540.023438 474.898438 1541.730469 477.382812 1543.429688 480.355469 C 1545.128906 483.324219 1546.402344 486.058594 1546.195312 486.367188 C 1545.914062 486.71875 1546.308594 488.417969 1546.96875 490.25 C 1547.777344 492.671875 1547.652344 495.144531 1546.597656 499.6875 C 1545.738281 503.0625 1544.105469 507.265625 1542.964844 508.972656 C 1541.871094 510.753906 1538.929688 514.355469 1536.5 516.996094 C 1534.023438 519.5625 1528.820312 524.074219 1524.90625 526.984375 C 1520.0625 530.617188 1513.335938 534.652344 1503.421875 539.839844 C 1495.503906 543.980469 1486.003906 548.546875 1482.265625 549.914062 C 1478.570312 551.351562 1472.484375 553.484375 1468.75 554.851562 C 1464.972656 556.144531 1461.113281 557.292969 1460.109375 557.386719 C 1459.105469 557.480469 1455.304688 558.402344 1451.664062 559.425781 C 1448.019531 560.453125 1442.203125 562.046875 1438.734375 562.875 C 1435.269531 563.703125 1431.90625 564.375 1431.335938 564.222656 C 1430.808594 564.136719 1428.023438 564.480469 1425.289062 565.082031 C 1422.515625 565.609375 1420.25 565.847656 1420.042969 565.484375 C 1419.878906 565.195312 1419.320312 565.226562 1418.882812 565.476562 C 1418.378906 565.765625 1414.777344 566.1875 1410.933594 566.367188 C 1407.09375 566.542969 1401.796875 566.6875 1399.105469 566.6875 C 1396.527344 566.71875 1390.007812 566.410156 1384.75 565.953125 C 1379.492188 565.5 1373.777344 564.921875 1372.050781 564.753906 C 1370.28125 564.515625 1367.714844 564.0625 1366.242188 563.84375 C 1364.773438 563.628906 1360.695312 562.882812 1357.105469 562.148438 C 1353.511719 561.414062 1345.96875 559.476562 1340.316406 558 C 1334.625 556.445312 1325.132812 553.125 1319.085938 550.621094 C 1312.96875 548.160156 1307.992188 546.007812 1307.867188 545.789062 C 1307.742188 545.570312 1306.242188 544.796875 1304.484375 544.070312 C 1302.765625 543.417969 1300.851562 542.589844 1300.351562 542.394531 C 1299.855469 542.199219 1298.042969 541.214844 1296.460938 540.292969 C 1294.949219 539.332031 1293.335938 538.523438 1292.992188 538.429688 C 1292.578125 538.378906 1290.882812 537.425781 1289.101562 536.332031 C 1287.320312 535.234375 1283.347656 532.988281 1280.261719 531.289062 C 1277.179688 529.59375 1274.011719 527.75 1273.121094 527.203125 C 1272.300781 526.613281 1270.097656 525.277344 1268.246094 524.222656 C 1266.464844 523.125 1263.101562 521.109375 1260.824219 519.8125 C 1258.578125 518.40625 1253.113281 514.898438 1248.609375 511.898438 C 1244.105469 508.894531 1238 504.601562 1235 502.375 C 1231.996094 500.152344 1228.25 497.296875 1226.613281 496.117188 C 1224.980469 494.9375 1222.546875 492.867188 1221.128906 491.5625 C 1219.710938 490.257812 1218.105469 488.964844 1217.535156 488.808594 C 1217.039062 488.613281 1215.082031 487.039062 1213.3125 485.457031 C 1211.503906 483.800781 1209.421875 482.011719 1208.605469 481.421875 C 1207.785156 480.832031 1205.28125 478.800781 1203.117188 476.867188 C 1200.953125 474.929688 1195.957031 470.386719 1192.023438 466.871094 C 1188.160156 463.308594 1183.160156 458.765625 1181.070312 456.789062 C 1178.90625 454.855469 1175.078125 451.179688 1172.582031 448.664062 C 1170.089844 446.152344 1165.894531 442.011719 1163.402344 439.496094 C 1160.90625 436.980469 1156.464844 432.40625 1153.597656 429.238281 C 1150.730469 426.074219 1147.800781 423.132812 1147.027344 422.617188 C 1146.292969 422.171875 1143.339844 418.859375 1140.496094 415.394531 C 1137.679688 411.8125 1134.769531 408.574219 1134.148438 408.160156 C 1133.457031 407.785156 1130.214844 403.96875 1126.882812 399.816406 C 1123.621094 395.625 1120.226562 391.703125 1119.410156 391.113281 C 1118.589844 390.523438 1115.175781 386.230469 1111.667969 381.601562 C 1108.230469 376.933594 1104.296875 372.070312 1103.023438 370.683594 C 1101.675781 369.339844 1097.898438 364.578125 1094.660156 360.085938 C 1091.347656 355.636719 1085.777344 348.246094 1082.339844 343.578125 C 1078.90625 338.910156 1073.316406 331.148438 1069.898438 326.179688 C 1066.554688 321.171875 1059.835938 311.269531 1054.910156 303.992188 C 1049.980469 296.714844 1039.628906 280.625 1031.835938 268.164062 C 1024.113281 255.660156 1014.828125 240.589844 1011.289062 234.734375 C 1007.746094 228.875 996 209.832031 985.203125 192.457031 C 974.476562 175.039062 964.199219 158.902344 962.347656 156.5 C 960.492188 154.101562 953.816406 144.269531 947.492188 134.714844 C 941.238281 125.121094 934.488281 115.332031 932.636719 112.929688 C 930.785156 110.53125 924.261719 101.472656 918.25 92.800781 C 912.234375 84.128906 903.476562 71.832031 898.789062 65.476562 C 894.097656 59.125 889.792969 53.609375 889.171875 53.195312 C 888.621094 52.738281 885.082031 48.898438 881.480469 44.613281 C 877.804688 40.371094 872.257812 34.027344 869.183594 30.496094 C 866.035156 27.011719 862.859375 23.636719 862.042969 23.046875 C 861.152344 22.496094 858.851562 20.160156 856.78125 17.882812 C 854.640625 15.648438 850.425781 11.132812 847.261719 7.945312 C 844.09375 4.757812 838.988281 -0.300781 835.90625 -3.34375 C 832.820312 -6.386719 827.996094 -11.125 825.109375 -13.992188 C 822.148438 -16.820312 817.492188 -21.269531 814.652344 -23.875 C 811.816406 -26.484375 807.605469 -30.324219 805.316406 -32.476562 C 802.957031 -34.585938 800.371094 -36.761719 799.550781 -37.351562 C 798.808594 -37.980469 796.652344 -39.730469 794.914062 -41.429688 C 793.144531 -43.011719 790.671875 -45.152344 789.429688 -45.980469 C 788.257812 -46.851562 785.980469 -48.816406 784.441406 -50.339844 C 782.898438 -51.859375 781.335938 -53.082031 780.921875 -53.132812 C 780.507812 -53.183594 778.621094 -54.800781 776.6875 -56.671875 C 774.710938 -58.617188 772.824219 -60.234375 772.453125 -60.210938 C 772.007812 -60.148438 771.035156 -60.84375 770.125 -61.765625 C 769.183594 -62.570312 766.523438 -64.703125 764.226562 -66.371094 C 761.886719 -68.109375 758.105469 -70.851562 755.851562 -72.445312 C 753.59375 -74.039062 747.878906 -77.980469 743.222656 -81.085938 C 738.566406 -84.191406 734.03125 -87.078125 733.191406 -87.367188 C 732.425781 -87.699219 730.730469 -88.648438 729.445312 -89.550781 C 728.203125 -90.378906 726.433594 -91.289062 725.554688 -91.652344 C 724.714844 -91.941406 720.472656 -93.648438 716.113281 -95.386719 C 711.0625 -97.496094 706.023438 -98.75 695.402344 -99.503906 L 694.898438 -96.523438 C 694.648438 -94.941406 694.226562 -91.140625 693.945312 -88.097656 C 693.699219 -85.167969 693.429688 -81.941406 693.398438 -81.152344 C 693.40625 -80.292969 693.292969 -77.632812 693.160156 -75.347656 C 692.996094 -72.945312 693.121094 -70.710938 693.328125 -70.347656 C 693.535156 -69.984375 693.523438 -69.5 693.234375 -69.332031 C 692.871094 -69.125 692.789062 -67.253906 693.015625 -65.171875 C 693.214844 -62.976562 693.214844 -60.960938 693.046875 -60.578125 C 692.882812 -60.195312 693.121094 -52.546875 693.546875 -43.5625 C 693.972656 -34.578125 694.34375 -25.851562 694.28125 -24.28125 C 694.148438 -22.664062 694.054688 -19.632812 693.984375 -17.574219 C 693.941406 -15.625 693.765625 -12.066406 693.671875 -9.707031 C 693.539062 -7.417969 692.671875 -0.867188 691.863281 4.785156 C 690.941406 10.402344 690.023438 16.023438 689.824219 17.195312 C 689.558594 18.40625 687.09375 27.886719 684.269531 38.246094 C 681.402344 48.535156 678.785156 57.910156 678.402344 59.09375 C 677.980469 60.199219 675.816406 65.664062 673.652344 71.128906 C 671.417969 76.636719 668.355469 84.058594 666.792969 87.546875 C 665.273438 91.105469 663.832031 94.8125 663.59375 95.910156 C 663.316406 96.933594 662.851562 97.96875 662.5625 98.132812 C 662.199219 98.339844 661.121094 100.492188 660.023438 102.945312 C 658.898438 105.515625 657.675781 108.421875 657.210938 109.457031 C 656.746094 110.492188 655.648438 112.945312 654.820312 114.859375 C 653.921875 116.816406 651.890625 121.339844 650.183594 124.910156 C 648.445312 128.59375 645.878906 134.195312 644.390625 137.640625 C 642.929688 140.976562 641.554688 143.78125 641.335938 143.902344 C 641.121094 144.027344 639.917969 146.636719 638.625 149.585938 C 637.300781 152.648438 634.703125 158.363281 632.832031 162.316406 C 630.957031 166.269531 629.117188 170.113281 628.597656 170.886719 C 628.152344 171.621094 627.699219 172.84375 627.511719 173.527344 C 627.398438 174.167969 625.761719 177.699219 624.054688 181.269531 C 622.277344 184.882812 620.421875 188.535156 619.90625 189.3125 C 619.386719 190.089844 618.828125 191.464844 618.5 192.230469 C 618.207031 193.070312 617.089844 195.820312 615.921875 198.316406 C 614.824219 200.769531 613.820312 202.882812 613.605469 203.003906 C 613.386719 203.128906 612.953125 204.050781 612.558594 205.042969 C 612.28125 206.070312 610.757812 209.628906 609.269531 213.078125 C 607.738281 216.449219 606.027344 220.023438 605.335938 220.996094 C 604.757812 222 603.917969 223.726562 603.609375 224.867188 C 603.183594 225.972656 602.46875 227.917969 601.902344 229.109375 C 601.371094 230.371094 599.871094 233.632812 598.652344 236.542969 C 597.390625 239.378906 595.960938 242.597656 595.496094 243.632812 C 595.070312 244.738281 592.886719 249.832031 590.664062 254.851562 C 588.40625 259.984375 585.386719 266.804688 584 270.097656 C 582.5 273.359375 579.890625 279.558594 578.070312 283.769531 C 576.246094 287.984375 574.332031 292.539062 573.835938 293.6875 C 573.308594 294.949219 572.605469 297.082031 572.234375 298.449219 C 571.859375 299.8125 571.332031 301.078125 571.011719 301.355469 C 570.722656 301.523438 568.40625 306.882812 565.878906 313.226562 C 563.242188 319.542969 557.175781 334.828125 552.292969 347.136719 C 547.410156 359.441406 543.125 370.445312 542.742188 371.625 C 542.359375 372.804688 540.691406 377.121094 539.089844 381.210938 C 537.484375 385.296875 535.683594 389.882812 535.167969 391.332031 C 534.578125 392.824219 533.46875 395.761719 532.652344 397.863281 C 531.804688 400.078125 529.207031 407.136719 526.835938 413.585938 C 524.46875 420.035156 521.714844 427.664062 520.742188 430.332031 C 519.738281 433.117188 518.230469 437.535156 517.328125 440.164062 C 516.429688 442.792969 515.351562 445.621094 514.949219 446.429688 C 514.542969 447.234375 513.550781 450.207031 512.734375 452.980469 C 511.84375 455.796875 510.363281 460.773438 509.308594 463.972656 C 508.296875 467.242188 506.207031 473.339844 504.796875 477.601562 C 503.390625 481.867188 500.988281 489.101562 499.59375 493.554688 C 498.125 498.046875 494.800781 508.882812 492.144531 517.515625 C 489.484375 526.148438 485.109375 541.527344 482.304688 551.585938 C 479.613281 561.679688 475.703125 576.699219 473.726562 584.84375 C 471.792969 593.0625 469.464844 602.945312 468.5625 606.921875 C 467.734375 610.855469 466.628906 615.8125 466.183594 617.890625 C 465.667969 620.015625 465.128906 623.109375 464.851562 624.804688 C 464.527344 626.429688 464.011719 629.226562 463.617188 630.890625 C 463.226562 632.558594 462.4375 636.5625 461.757812 639.742188 C 461.113281 642.992188 459.964844 649.222656 459.199219 653.601562 C 458.4375 657.980469 457.660156 662.171875 457.472656 662.851562 C 457.328125 663.609375 456.925781 665.761719 456.582031 667.6875 C 456.355469 669.644531 455.382812 675.675781 454.453125 681.109375 C 453.480469 686.472656 452.964844 691.285156 453.171875 691.648438 C 453.378906 692.011719 453.253906 693.136719 452.820312 694.058594 C 452.457031 694.9375 452.125 696.378906 452.0625 697.277344 C 452 698.179688 451.597656 701.675781 451.050781 705.257812 C 450.574219 708.796875 450.378906 711.984375 450.585938 712.347656 C 450.792969 712.710938 450.6875 713.539062 450.386719 714.191406 C 450.046875 714.769531 449.621094 717.894531 449.394531 721.199219 C 449.167969 724.5 448.898438 727.730469 448.671875 728.339844 C 448.515625 728.910156 448.0625 732.820312 447.804688 736.910156 C 447.472656 741.039062 447.246094 745.011719 447.183594 745.914062 C 447.078125 746.742188 446.933594 750.1875 446.707031 753.488281 C 446.480469 756.792969 446.316406 759.867188 446.347656 760.425781 C 446.335938 760.910156 446.171875 763.984375 445.941406 767.285156 C 445.675781 770.515625 445.488281 773.890625 445.425781 774.789062 C 445.324219 775.617188 445.28125 778.238281 445.074219 780.566406 C 444.980469 782.925781 444.980469 784.945312 445.105469 785.160156 C 445.230469 785.378906 445.15625 788.113281 444.960938 791.300781 C 444.722656 794.414062 444.527344 798.273438 444.652344 799.839844 C 444.703125 801.441406 444.816406 804.835938 444.847656 807.414062 C 444.851562 810.105469 444.933594 814.960938 445.046875 818.355469 C 445.160156 821.75 445.367188 826.820312 445.523438 829.613281 C 445.679688 832.410156 446.105469 838.703125 446.445312 843.503906 C 446.789062 848.308594 447.359375 853.171875 447.648438 854.351562 C 447.9375 855.53125 448.0625 857.765625 448.042969 859.414062 C 448.019531 861.058594 448.199219 862.878906 448.527344 863.460938 C 448.859375 864.039062 449.304688 866.667969 449.410156 869.203125 C 449.625 871.769531 449.917969 874.296875 450.207031 874.804688 C 450.453125 875.238281 450.839844 877.421875 450.960938 879.65625 C 451.117188 881.777344 451.492188 885.121094 451.894531 887.003906 C 452.296875 888.890625 453.011719 893.671875 453.601562 897.5625 C 454.195312 901.453125 455.0625 906.339844 455.589844 908.441406 C 456.121094 910.542969 456.535156 913.285156 456.605469 914.589844 C 456.679688 915.890625 457.21875 918.851562 457.902344 921.058594 C 458.554688 923.375 460.1875 929.9375 461.523438 935.804688 C 462.859375 941.675781 464.632812 948.640625 465.417969 951.363281 C 466.277344 954.042969 466.972656 957.105469 467.0625 958.109375 C 467.15625 959.113281 468.460938 963.75 470.066406 968.40625 C 471.597656 973.105469 474.632812 981.945312 476.734375 988.144531 C 480.160156 998.007812 481.683594 1001.175781 489.34375 1014.578125 C 495.679688 1025.660156 500.585938 1033.238281 507.570312 1042.605469 C 512.789062 1049.714844 517.695312 1055.945312 518.511719 1056.535156 C 519.332031 1057.125 522 1060.113281 524.382812 1063.273438 C 526.761719 1066.429688 530.46875 1070.558594 532.632812 1072.492188 C 534.722656 1074.46875 536.75 1076.671875 537.164062 1077.398438 C 537.539062 1078.050781 539.515625 1079.996094 541.585938 1081.601562 C 543.542969 1083.171875 547.019531 1086.566406 549.171875 1088.988281 C 551.324219 1091.410156 553.964844 1094.515625 555.042969 1095.726562 C 556.242188 1097.15625 557.246094 1099.753906 557.828125 1102.785156 C 558.34375 1105.371094 558.34375 1109.410156 557.878906 1111.789062 C 557.300781 1114.140625 556.046875 1117.160156 555.035156 1118.414062 C 554.132812 1119.699219 551.339844 1121.871094 548.949219 1123.238281 C 546.558594 1124.605469 542.726562 1126.3125 540.566406 1127.066406 C 538.328125 1127.863281 536.40625 1128.195312 536.238281 1127.90625 C 536.03125 1127.542969 533.984375 1127.660156 531.582031 1128.164062 C 529.210938 1128.558594 527.089844 1128.714844 526.925781 1128.425781 C 526.71875 1128.0625 525.214844 1127.960938 523.652344 1128.082031 C 522.019531 1128.25 519.574219 1128.011719 518.28125 1127.597656 C 516.945312 1127.113281 515.550781 1126.851562 515.113281 1127.101562 C 514.679688 1127.351562 512.527344 1126.945312 510.238281 1126.140625 C 507.992188 1125.40625 505.25 1124.472656 504.257812 1124.082031 C 503.261719 1123.6875 500.582031 1122.527344 498.386719 1121.378906 C 496.195312 1120.230469 493.574219 1118.84375 492.652344 1118.410156 C 491.765625 1117.859375 486.910156 1115.253906 481.972656 1112.5 C 477.035156 1109.746094 469.6875 1105.296875 465.722656 1102.566406 C 461.683594 1099.875 458.132812 1097.195312 457.886719 1096.761719 C 457.597656 1096.253906 455.910156 1094.816406 454.230469 1093.5625 C 452.515625 1092.238281 449.59375 1089.484375 447.792969 1087.34375 C 445.921875 1085.242188 443.621094 1082.902344 442.679688 1082.09375 C 441.738281 1081.289062 438.25 1077.035156 434.9375 1072.585938 C 431.699219 1068.09375 426.378906 1061.136719 423.242188 1057.164062 C 418.335938 1050.933594 415.207031 1045.800781 401.53125 1021.035156 C 392.835938 1005.148438 384.773438 989.859375 383.644531 987.046875 C 382.515625 984.230469 380.023438 978.351562 378.054688 973.902344 C 376.085938 969.453125 373.757812 963.863281 372.949219 961.441406 C 372.070312 959.058594 369.824219 952.945312 368.011719 947.921875 C 366.199219 942.902344 364.535156 937.800781 364.316406 936.582031 C 364.171875 935.316406 363.167969 932.046875 362.113281 929.191406 C 361.054688 926.335938 359.792969 921.769531 359.304688 919.070312 C 358.707031 916.335938 357.992188 913.574219 357.660156 912.992188 C 357.328125 912.414062 356.375 908.730469 355.527344 904.890625 C 354.636719 900.976562 353.1875 893.730469 352.234375 888.703125 C 351.207031 883.714844 349.945312 877.128906 349.398438 873.984375 C 348.847656 870.839844 347.988281 866.140625 347.542969 863.511719 C 347.097656 860.882812 346.300781 855.28125 345.804688 851.050781 C 345.304688 846.816406 344.664062 841.992188 344.382812 840.328125 C 344.105469 838.660156 343.867188 836.394531 343.84375 835.347656 C 343.824219 834.304688 343.484375 830.171875 343.109375 826.15625 C 342.664062 822.183594 342.40625 818.199219 342.4375 817.410156 C 342.539062 816.582031 342.488281 814.980469 342.351562 813.902344 C 342.25 812.710938 342 810.933594 341.9375 809.816406 C 341.761719 808.664062 341.710938 807.0625 341.8125 806.234375 C 341.84375 805.445312 341.691406 803.324219 341.554688 801.574219 C 341.347656 799.867188 341.152344 796.328125 341.152344 793.636719 C 341.121094 791.058594 340.972656 785.089844 340.859375 780.347656 C 340.746094 775.609375 340.671875 770.265625 340.609375 768.476562 C 340.546875 766.6875 340.652344 763.167969 340.773438 760.691406 C 340.898438 758.21875 341.011719 755.558594 340.972656 754.8125 C 341.003906 754.027344 340.960938 750.589844 340.992188 747.113281 C 341.023438 743.636719 341.136719 738.957031 341.269531 736.671875 C 341.402344 734.382812 341.589844 728.992188 341.753906 724.570312 C 341.890625 720.265625 342.28125 716.582031 342.570312 716.414062 C 342.933594 716.207031 342.863281 715.578125 342.53125 714.996094 C 342.199219 714.417969 342.167969 712.511719 342.476562 710.703125 C 342.789062 708.890625 342.964844 707.347656 342.839844 707.132812 C 342.714844 706.914062 342.972656 702.824219 343.378906 697.980469 C 343.738281 693.066406 344.371094 685.59375 344.691406 681.277344 C 344.9375 677.003906 345.488281 673.421875 345.777344 673.253906 C 346.140625 673.046875 346.109375 672.488281 345.859375 672.054688 C 345.570312 671.546875 345.652344 669 345.921875 666.445312 C 346.261719 663.847656 346.769531 660.867188 346.976562 659.882812 C 347.214844 658.785156 347.308594 657.769531 347.183594 657.554688 C 347.058594 657.335938 347.347656 653.808594 347.90625 649.738281 C 348.421875 645.601562 349.066406 641.003906 349.28125 639.535156 C 349.5 638.066406 350.925781 629.464844 352.476562 620.40625 C 354.03125 611.351562 356.304688 599.1875 357.484375 593.515625 C 358.738281 587.804688 361.035156 577.359375 362.628906 570.394531 C 364.21875 563.429688 367.480469 550.128906 369.878906 540.875 C 372.28125 531.621094 374.867188 521.6875 375.644531 518.839844 C 376.417969 515.992188 379.511719 505.09375 382.480469 494.652344 C 385.453125 484.207031 389.734375 469.839844 392.03125 462.761719 C 394.328125 455.683594 397.214844 446.4375 398.550781 442.214844 C 399.886719 437.992188 401.839844 432.164062 402.761719 429.238281 C 403.753906 426.265625 405.679688 420.550781 407.066406 416.589844 C 408.410156 412.550781 410.945312 405.046875 412.832031 399.933594 C 414.671875 394.75 417.1875 387.546875 418.4375 383.851562 C 419.691406 380.15625 421.242188 375.808594 421.75 374.171875 C 422.328125 372.496094 423.394531 369.484375 424.210938 367.382812 C 425.03125 365.28125 426.964844 359.753906 428.578125 355.179688 C 430.191406 350.605469 433.050781 342.820312 435.058594 337.925781 C 437.023438 332.957031 439.132812 327.234375 439.847656 325.289062 C 440.519531 323.269531 441.699219 320.289062 442.28125 318.609375 C 442.859375 316.933594 443.675781 314.832031 443.964844 313.996094 C 444.253906 313.15625 446.6875 307.152344 449.316406 300.652344 C 451.945312 294.152344 455.046875 286.804688 456.144531 284.351562 C 457.316406 281.855469 458.554688 278.648438 458.816406 277.25 C 459.1875 275.882812 459.714844 274.621094 460.003906 274.457031 C 460.367188 274.25 461.722656 271.070312 463.160156 267.367188 C 464.671875 263.617188 466.214844 260.429688 466.535156 260.152344 C 466.898438 259.945312 467.320312 258.835938 467.300781 257.792969 C 467.351562 256.703125 467.921875 255.515625 468.5 255.183594 C 469.082031 254.851562 469.578125 253.703125 469.484375 252.699219 C 469.390625 251.695312 469.742188 250.628906 470.105469 250.421875 C 470.464844 250.214844 472.019531 247.214844 473.46875 243.695312 C 474.957031 240.246094 476.25 237.296875 476.46875 237.171875 C 476.6875 237.050781 478.042969 233.871094 479.625 230.082031 C 481.207031 226.296875 482.5625 223.117188 482.78125 222.992188 C 483 222.867188 483.433594 221.949219 483.710938 220.921875 C 484.105469 219.929688 485.75 215.914062 487.332031 212.125 C 488.988281 208.296875 490.53125 205.109375 490.75 204.984375 C 490.964844 204.859375 491.867188 202.902344 492.828125 200.71875 C 493.75 198.460938 494.734375 195.976562 494.960938 195.367188 C 495.1875 194.757812 496.84375 190.925781 498.644531 187.015625 C 500.515625 183.0625 503.28125 176.964844 504.875 173.363281 C 506.4375 169.875 508.164062 166.003906 508.703125 164.925781 C 509.242188 163.851562 510.503906 161.015625 511.539062 158.789062 C 512.53125 156.492188 513.503906 154.492188 513.722656 154.371094 C 513.9375 154.246094 514.839844 152.289062 515.800781 150.105469 C 516.792969 147.808594 517.613281 145.707031 517.707031 145.363281 C 517.796875 145.023438 518.894531 142.570312 520.054688 139.890625 C 521.328125 137.238281 522.722656 134.808594 523.085938 134.601562 C 523.449219 134.394531 523.605469 133.824219 523.398438 133.460938 C 523.191406 133.097656 523.4375 132.1875 523.925781 131.527344 C 524.523438 130.894531 525.640625 128.8125 526.4375 127.011719 C 527.234375 125.210938 528.199219 123.027344 528.644531 122.292969 C 529.089844 121.558594 530.597656 118.484375 532.007812 115.566406 C 533.414062 112.644531 534.925781 109.574219 535.371094 108.835938 C 535.886719 108.0625 537.429688 104.875 538.867188 101.839844 C 540.335938 98.695312 541.722656 96.074219 542.011719 95.910156 C 542.417969 95.773438 542.808594 94.78125 543.015625 93.796875 C 543.222656 92.816406 544.226562 90.703125 545.191406 89.191406 C 546.109375 87.609375 547.34375 85.558594 547.847656 84.597656 C 548.398438 83.707031 549.679688 81.242188 550.726562 79.203125 C 551.800781 77.050781 552.898438 75.269531 553.1875 75.105469 C 553.59375 74.96875 554.046875 73.75 554.390625 72.496094 C 554.730469 71.246094 555.1875 70.023438 555.515625 69.929688 C 555.878906 69.722656 556.636719 68.523438 557.265625 67.105469 C 558.011719 65.71875 559.398438 63.097656 560.496094 61.316406 C 561.550781 59.464844 563.269531 56.753906 564.191406 55.167969 C 565.109375 53.585938 566.683594 50.957031 567.605469 49.375 C 568.484375 47.71875 570.296875 44.664062 571.527344 42.613281 C 572.757812 40.566406 575.933594 35.191406 578.605469 30.785156 C 581.203125 26.414062 584.214844 21.425781 585.164062 19.730469 C 586.160156 18.105469 587.898438 15.09375 589.128906 13.042969 C 590.402344 11.066406 591.902344 8.476562 592.628906 7.390625 C 593.308594 6.230469 594.636719 3.839844 595.585938 2.144531 C 596.570312 0.332031 598.203125 -2.523438 599.117188 -4.292969 C 600.097656 -6.105469 601.722656 -9.148438 602.777344 -11.003906 C 603.792969 -12.925781 606.152344 -17.542969 608.003906 -21.199219 C 609.855469 -24.851562 611.6875 -28.203125 611.96875 -28.554688 C 612.246094 -28.910156 613.21875 -30.90625 614.046875 -32.820312 C 614.90625 -34.851562 615.746094 -36.578125 615.960938 -36.703125 C 616.179688 -36.828125 616.613281 -37.746094 616.933594 -38.699219 C 617.289062 -39.765625 620.433594 -47.714844 623.949219 -56.359375 C 627.429688 -65.074219 630.5625 -73.207031 630.976562 -74.503906 C 631.277344 -75.828125 632.882812 -81.261719 634.339844 -86.613281 C 635.871094 -92.003906 637.007812 -96.402344 636.78125 -96.464844 C 636.625 -96.570312 635.664062 -95.058594 634.648438 -93.132812 C 633.636719 -91.207031 632.527344 -88.941406 632.238281 -88.101562 C 631.949219 -87.265625 630.933594 -85.339844 629.898438 -83.785156 C 628.894531 -82.347656 627.21875 -79.5625 626.164062 -77.710938 C 625.148438 -75.785156 622.964844 -72.039062 621.320312 -69.367188 C 619.675781 -66.699219 617.761719 -63.488281 617.078125 -62.328125 C 616.394531 -61.171875 614.957031 -58.808594 613.816406 -57.101562 C 612.753906 -55.4375 611.800781 -53.738281 611.707031 -53.398438 C 611.613281 -53.054688 608.613281 -47.878906 604.949219 -41.84375 C 601.285156 -35.8125 597.28125 -29.195312 596.089844 -27.074219 C 594.902344 -24.953125 593.050781 -21.972656 592.085938 -20.460938 C 591.082031 -19.023438 589.933594 -16.828125 589.550781 -15.648438 C 589.167969 -14.46875 588.484375 -13.308594 587.976562 -13.019531 C 587.542969 -12.769531 586.921875 -11.839844 586.707031 -11.042969 C 586.53125 -10.171875 585.453125 -8.019531 584.355469 -6.238281 C 583.21875 -4.53125 581.925781 -2.253906 581.417969 -1.292969 C 580.867188 -0.402344 579.585938 2.0625 578.582031 4.171875 C 577.464844 6.253906 576.511719 7.953125 576.367188 8.035156 C 576.292969 8.074219 572.746094 14.140625 568.566406 21.625 C 564.34375 29.035156 560.542969 35.339844 560.183594 35.546875 C 559.820312 35.753906 559.179688 36.984375 558.796875 38.164062 C 558.414062 39.34375 557.179688 41.394531 556.09375 42.6875 C 555.050781 44.054688 553.984375 45.722656 553.871094 46.363281 C 553.796875 47.078125 552.730469 48.742188 551.644531 50.035156 C 550.597656 51.402344 549.667969 52.800781 549.617188 53.214844 C 549.523438 53.554688 547.722656 56.796875 545.527344 60.355469 C 543.292969 63.84375 540.035156 69.070312 538.210938 71.9375 C 536.433594 74.878906 533.171875 80.105469 530.9375 83.59375 C 528.742188 87.15625 526.09375 91.265625 525.050781 92.628906 C 524.046875 94.070312 522.917969 95.964844 522.628906 96.800781 C 522.378906 97.710938 521.136719 99.574219 519.90625 100.953125 C 518.789062 102.359375 517.929688 103.714844 518.136719 104.078125 C 518.300781 104.367188 517.089844 106.117188 515.550781 107.960938 C 513.894531 109.769531 512.714844 111.40625 512.835938 111.625 C 512.960938 111.839844 511.894531 113.507812 510.425781 115.308594 C 509 117.183594 507.714844 118.972656 507.621094 119.3125 C 507.570312 119.726562 506.027344 122.242188 504.125 124.964844 C 502.21875 127.6875 499.34375 131.734375 497.75 133.992188 C 496.113281 136.175781 493.132812 140.378906 491.054688 143.296875 C 488.933594 146.144531 486.335938 149.839844 485.15625 151.472656 C 483.933594 153.035156 480.972656 156.9375 478.53125 160.066406 C 476.089844 163.191406 473.128906 167.09375 471.949219 168.730469 C 470.726562 170.292969 468.761719 172.570312 467.550781 173.644531 C 466.339844 174.722656 465.148438 176.171875 464.964844 176.855469 C 464.851562 177.496094 462.988281 179.617188 460.929688 181.5625 C 458.898438 183.394531 456.789062 185.757812 456.28125 186.71875 C 455.773438 187.679688 453.765625 189.886719 451.882812 191.636719 C 450 193.382812 448.199219 195.277344 448.003906 195.777344 C 447.804688 196.273438 444.214844 200.246094 440.085938 204.625 C 435.914062 208.933594 431.503906 213.664062 430.285156 215.226562 C 429.023438 216.714844 426.300781 219.519531 424.242188 221.46875 C 422.140625 223.339844 418.238281 227.109375 415.503906 229.726562 C 412.773438 232.347656 408.449219 236.546875 405.933594 239.042969 C 403.417969 241.539062 398.121094 246.390625 394.351562 249.890625 C 390.542969 253.316406 386.050781 257.230469 384.40625 258.554688 C 382.71875 259.808594 380.804688 261.671875 379.996094 262.613281 C 379.191406 263.554688 374.511719 267.476562 369.605469 271.339844 C 364.703125 275.199219 358.863281 279.785156 356.679688 281.515625 C 354.496094 283.242188 347.957031 287.941406 342.078125 291.78125 C 336.3125 295.652344 324.492188 302.890625 315.945312 307.777344 C 307.394531 312.660156 295.378906 319.050781 289.191406 322.007812 C 283.074219 324.929688 276.472656 327.835938 274.453125 328.511719 C 272.433594 329.183594 267.921875 330.707031 264.363281 331.875 C 260.84375 333.117188 255.730469 334.597656 252.957031 335.125 C 250.253906 335.613281 247.566406 336.285156 247.058594 336.574219 C 246.621094 336.824219 244.511719 337.167969 242.503906 337.351562 C 240.496094 337.539062 236.894531 337.964844 234.597656 338.316406 C 232.257812 338.59375 230.207031 338.710938 230.113281 338.378906 C 229.90625 338.015625 229.277344 338.089844 228.695312 338.421875 C 228.117188 338.75 224.585938 339.132812 220.933594 339.300781 C 217.238281 339.394531 213.605469 339.257812 212.808594 339.042969 C 212.085938 338.785156 211.257812 338.679688 210.9375 338.960938 C 210.644531 339.125 206.960938 338.734375 202.78125 338.144531 C 198.628906 337.441406 191.0625 335.804688 186.054688 334.4375 C 181.042969 333.074219 174.566406 330.816406 171.644531 329.410156 C 168.726562 328.003906 164.960938 326.121094 163.222656 325.09375 C 161.449219 324.183594 157.652344 321.742188 154.660156 319.703125 C 151.667969 317.664062 148.117188 314.984375 146.699219 313.679688 C 145.28125 312.375 143.605469 311.125 143.109375 310.925781 C 142.613281 310.730469 139.664062 307.417969 136.609375 303.589844 C 133.554688 299.761719 130.480469 296.230469 129.746094 295.785156 C 128.96875 295.269531 125.410156 289.710938 121.847656 283.480469 C 118.246094 277.179688 115.015625 270.855469 114.714844 269.488281 C 114.488281 268.082031 112.757812 263.207031 111.007812 258.632812 C 109.257812 254.058594 107.902344 249.835938 108.058594 249.265625 C 108.140625 248.738281 107.46875 246.046875 106.609375 243.367188 C 105.75 240.683594 104.984375 236.988281 104.921875 235.199219 C 104.929688 233.367188 104.722656 231.660156 104.558594 231.371094 C 104.351562 231.007812 104.019531 227.738281 103.78125 224.125 C 103.5 220.441406 103.292969 216.042969 103.285156 214.511719 C 103.34375 212.9375 103.511719 209.191406 103.644531 206.230469 C 103.78125 203.269531 103.925781 199.824219 103.820312 198.632812 C 103.832031 197.472656 104.234375 195.992188 104.691406 195.445312 C 105.144531 194.894531 105.320312 194.027344 105.074219 193.59375 C 104.78125 193.085938 104.9375 190.496094 105.351562 187.859375 C 105.765625 185.21875 106.644531 180.871094 107.246094 178.222656 C 107.917969 175.53125 109.191406 170.191406 110.171875 166.359375 C 111.15625 162.53125 114.136719 153.621094 116.761719 146.445312 C 119.464844 139.230469 121.75 133.3125 121.96875 133.1875 C 122.1875 133.0625 122.621094 132.140625 122.898438 131.117188 C 123.292969 130.125 124.441406 127.257812 125.539062 124.804688 C 126.707031 122.308594 127.898438 120.1875 128.332031 119.9375 C 128.765625 119.691406 128.851562 119.164062 128.644531 118.800781 C 128.4375 118.4375 129.027344 116.949219 129.882812 115.589844 C 130.816406 114.195312 131.59375 112.695312 131.683594 112.351562 C 131.777344 112.011719 132.667969 109.867188 133.816406 107.671875 C 134.964844 105.480469 136.425781 102.820312 137.148438 101.730469 C 137.875 100.644531 140.398438 96.320312 142.707031 92.117188 C 145.085938 87.871094 150.023438 79.863281 153.675781 74.3125 C 157.328125 68.765625 160.941406 63.816406 161.59375 63.445312 C 162.316406 63.03125 162.730469 62.410156 162.484375 61.976562 C 162.234375 61.539062 163.546875 59.636719 165.347656 57.742188 C 167.179688 55.734375 168.503906 54.015625 168.382812 53.796875 C 168.257812 53.582031 169.832031 51.625 171.839844 49.417969 C 173.960938 47.246094 175.636719 45.132812 175.730469 44.792969 C 175.78125 44.378906 177.488281 42.152344 179.597656 39.792969 C 181.710938 37.433594 184.703125 34.089844 186.398438 32.351562 C 187.980469 30.582031 190.621094 27.632812 192.234375 25.746094 C 193.777344 23.90625 197.730469 19.722656 200.917969 16.554688 C 204.105469 13.386719 208.371094 9.414062 210.335938 7.808594 C 212.304688 6.203125 215.046875 3.773438 216.390625 2.425781 C 217.777344 1.152344 222.351562 -2.613281 226.585938 -5.804688 C 230.777344 -9.0625 236.65625 -13.578125 239.550781 -15.90625 C 243.207031 -18.761719 255.574219 -26.214844 279.261719 -39.757812 C 302.445312 -53.007812 315.507812 -60.085938 319.242188 -61.453125 C 322.359375 -62.5625 329.519531 -65.5 335.214844 -67.984375 C 340.949219 -70.398438 347.859375 -73.101562 350.582031 -73.886719 C 353.304688 -74.671875 358.324219 -76.484375 361.761719 -77.871094 C 365.195312 -79.261719 369.855469 -80.863281 372.214844 -81.445312 C 374.460938 -82.054688 378.09375 -83.265625 380.285156 -84.136719 C 382.367188 -85.035156 387.136719 -86.609375 390.738281 -87.707031 C 394.382812 -88.734375 401.398438 -90.917969 406.328125 -92.386719 C 411.210938 -93.929688 417.496094 -95.886719 420.132812 -96.820312 C 422.773438 -97.75 425.753906 -98.589844 426.757812 -98.683594 C 427.761719 -98.777344 431.695312 -99.964844 435.542969 -101.300781 C 439.425781 -102.75 443.285156 -103.898438 444.144531 -103.910156 C 445.117188 -103.890625 449.050781 -105.082031 453.085938 -106.425781 C 457.082031 -107.84375 460.796875 -108.910156 461.324219 -108.828125 C 461.855469 -108.746094 465.570312 -109.8125 469.605469 -111.15625 C 473.601562 -112.578125 477.316406 -113.644531 477.800781 -113.632812 C 478.332031 -113.550781 481.351562 -114.316406 484.550781 -115.277344 C 487.75 -116.242188 493.453125 -117.867188 497.351562 -118.945312 C 501.253906 -120.019531 506.265625 -121.347656 508.625 -121.925781 C 510.910156 -122.464844 515.847656 -123.746094 519.492188 -124.773438 C 523.175781 -125.726562 528.507812 -127.332031 531.488281 -128.167969 C 534.425781 -129.078125 539.105469 -130.3125 541.910156 -130.953125 C 544.753906 -131.523438 550.945312 -133.140625 555.769531 -134.453125 C 560.589844 -135.769531 566.636719 -137.300781 569.222656 -137.820312 C 571.808594 -138.335938 576.011719 -139.390625 578.476562 -140.128906 C 580.898438 -140.933594 583.445312 -141.523438 583.972656 -141.441406 C 584.5 -141.359375 587.925781 -142.261719 591.527344 -143.359375 C 595.085938 -144.527344 598.511719 -145.429688 599 -145.417969 C 599.527344 -145.335938 603.179688 -146.175781 607.125 -147.179688 C 611.027344 -148.253906 617.214844 -149.871094 620.859375 -150.894531 C 624.5 -151.921875 628.300781 -152.84375 629.304688 -152.933594 C 630.308594 -153.027344 632.738281 -153.648438 634.800781 -154.25 C 638.289062 -155.378906 638.535156 -155.617188 640.066406 -159.664062 C 641.019531 -162.035156 641.992188 -164.03125 642.28125 -164.199219 C 642.644531 -164.40625 642.921875 -165.429688 642.902344 -166.472656 C 642.953125 -167.5625 643.523438 -168.75 644.101562 -169.082031 C 644.683594 -169.414062 645.179688 -170.5625 645.085938 -171.566406 C 644.992188 -172.570312 645.34375 -173.636719 645.707031 -173.84375 C 646.070312 -174.050781 647.144531 -176.203125 648.023438 -178.53125 C 648.976562 -180.902344 650.09375 -182.984375 650.414062 -183.261719 C 650.777344 -183.46875 651.203125 -184.578125 651.179688 -185.621094 C 651.230469 -186.710938 651.800781 -187.898438 652.382812 -188.230469 C 652.960938 -188.5625 653.457031 -189.710938 653.363281 -190.714844 C 653.269531 -191.71875 653.621094 -192.785156 653.984375 -192.992188 C 654.347656 -193.199219 655.847656 -196.460938 657.285156 -200.164062 C 658.796875 -203.914062 660.410156 -207.140625 660.804688 -207.460938 C 661.3125 -207.753906 661.621094 -208.21875 661.457031 -208.507812 C 661.25 -208.871094 662.46875 -211.777344 664.117188 -215.121094 C 665.875 -218.433594 667.1875 -221.683594 667.1875 -222.355469 C 667.261719 -223.070312 667.664062 -223.878906 668.097656 -224.125 C 668.605469 -224.417969 669.363281 -225.617188 669.746094 -226.796875 C 670.128906 -227.976562 671.234375 -230.242188 672.15625 -231.828125 C 673.117188 -233.339844 673.875 -235.210938 673.914062 -235.8125 C 673.988281 -236.527344 674.535156 -237.417969 675.1875 -237.789062 C 675.914062 -238.203125 676.59375 -239.363281 676.832031 -240.460938 C 677 -241.515625 677.960938 -243.699219 678.925781 -245.210938 C 679.886719 -246.722656 680.734375 -248.265625 680.828125 -248.605469 C 680.878906 -249.019531 681.75 -250.863281 682.804688 -252.714844 C 683.859375 -254.566406 685.703125 -257.734375 686.976562 -259.710938 C 688.207031 -261.761719 690.046875 -264.929688 691.105469 -266.78125 C 692.160156 -268.632812 694.054688 -271.542969 695.265625 -273.292969 C 696.546875 -275.082031 697.570312 -276.820312 697.550781 -277.195312 C 697.488281 -277.640625 698.523438 -279.191406 699.859375 -280.722656 C 701.195312 -282.253906 702.082031 -283.726562 701.917969 -284.015625 C 701.710938 -284.378906 702.921875 -286.125 704.503906 -287.898438 C 706.121094 -289.78125 707.257812 -291.488281 707.09375 -291.777344 C 706.886719 -292.140625 707.363281 -292.988281 708.105469 -293.703125 C 708.882812 -294.53125 710.839844 -296.996094 712.472656 -299.179688 C 714.066406 -301.4375 716.394531 -304.59375 717.574219 -306.226562 C 718.753906 -307.863281 721.46875 -311.527344 723.515625 -314.332031 C 725.523438 -317.210938 727.519531 -319.601562 727.8125 -319.765625 C 728.171875 -319.972656 729.671875 -321.890625 731.164062 -323.988281 C 732.726562 -326.132812 734.960938 -328.949219 736.089844 -330.167969 C 737.257812 -331.320312 740.382812 -334.929688 743.085938 -338.109375 C 745.746094 -341.359375 749.6875 -345.726562 751.925781 -347.871094 C 754.117188 -350.085938 756.332031 -352.601562 756.882812 -353.488281 C 757.472656 -354.308594 759.769531 -356.679688 762.128906 -358.605469 C 764.445312 -360.601562 766.535156 -362.660156 766.691406 -363.230469 C 766.886719 -363.726562 769.546875 -366.304688 772.582031 -368.902344 C 775.613281 -371.5 778.417969 -374.160156 778.832031 -374.78125 C 779.203125 -375.476562 782.878906 -378.632812 786.851562 -381.769531 C 790.785156 -384.976562 794.75 -388.300781 795.515625 -389.316406 C 796.320312 -390.257812 801.941406 -394.71875 808.039062 -399.355469 C 814.132812 -403.992188 821.417969 -409.40625 824.222656 -411.394531 C 827.027344 -413.382812 838.640625 -420.308594 850.097656 -426.664062 Z M 863.210938 -334.777344 C 860.488281 -332.644531 853.324219 -327.011719 847.269531 -322.304688 C 841.21875 -317.59375 832.894531 -310.628906 828.695312 -306.878906 C 824.535156 -303.0625 818.210938 -297.140625 814.671875 -293.578125 C 811.132812 -290.019531 806.453125 -285.421875 804.261719 -283.207031 C 802.023438 -281.066406 799.5625 -278.3125 798.621094 -277.101562 C 797.679688 -275.890625 795.203125 -273.320312 793 -271.292969 C 790.828125 -269.378906 789.128906 -267.640625 789.253906 -267.421875 C 789.378906 -267.203125 787.515625 -265.082031 785.03125 -262.703125 C 782.546875 -260.320312 780.292969 -257.878906 780.136719 -257.308594 C 779.941406 -256.8125 778.078125 -254.691406 776.058594 -252.671875 C 774.082031 -250.582031 772.21875 -248.460938 772.023438 -247.960938 C 771.824219 -247.464844 770.109375 -245.425781 768.347656 -243.460938 C 766.589844 -241.492188 764.871094 -239.453125 764.675781 -238.957031 C 764.519531 -238.386719 762.90625 -236.503906 761.28125 -234.804688 C 759.582031 -233.066406 757.792969 -230.988281 757.246094 -230.097656 C 756.738281 -229.132812 755.238281 -227.21875 753.972656 -225.730469 C 752.710938 -224.238281 750.011719 -221.058594 747.941406 -218.628906 C 745.914062 -216.121094 743.46875 -212.996094 742.578125 -211.527344 C 741.722656 -210.171875 740.417969 -208.753906 739.835938 -208.421875 C 739.257812 -208.089844 738.957031 -207.4375 739.164062 -207.078125 C 739.371094 -206.714844 741.398438 -207.199219 743.554688 -208.144531 C 745.738281 -209.199219 752.898438 -212.8125 759.441406 -216.164062 C 765.9375 -219.59375 776.09375 -224.53125 782 -227.140625 C 787.871094 -229.820312 800.351562 -235.222656 809.699219 -239.21875 C 819.042969 -243.214844 833.761719 -250.089844 842.300781 -254.488281 C 850.835938 -258.890625 873.71875 -271.488281 893.105469 -282.46875 C 914.011719 -294.324219 930.144531 -303.929688 932.941406 -306.101562 C 935.445312 -308.109375 941.242188 -312.769531 945.785156 -316.421875 C 950.285156 -320.148438 956.082031 -325.480469 958.6875 -328.316406 C 961.339844 -331.082031 964.949219 -335.355469 966.761719 -337.734375 C 968.574219 -340.117188 971.109375 -343.585938 972.421875 -345.488281 C 973.738281 -347.394531 975.652344 -350.601562 976.695312 -352.640625 C 977.773438 -354.792969 978.796875 -356.53125 979.015625 -356.65625 C 979.160156 -356.738281 980.058594 -359.367188 980.929688 -362.558594 C 981.765625 -365.632812 982.40625 -369.554688 982.324219 -371.042969 C 982.242188 -372.535156 981.507812 -374.996094 980.71875 -376.375 C 979.933594 -377.75 978.058594 -379.851562 976.652344 -380.96875 C 974.890625 -382.367188 972.304688 -383.195312 969.191406 -383.433594 C 966.5625 -383.660156 963.984375 -383.628906 963.476562 -383.339844 C 963.042969 -383.089844 961.230469 -382.726562 959.511719 -382.707031 C 957.90625 -382.65625 952.960938 -381.558594 948.613281 -380.417969 C 944.308594 -379.207031 939.125 -377.683594 937.105469 -377.011719 C 935.085938 -376.339844 926.890625 -372.519531 918.929688 -368.449219 C 910.972656 -364.382812 902.476562 -359.910156 900.125 -358.472656 C 897.734375 -357.105469 889.609375 -351.980469 882.023438 -347.261719 C 874.4375 -342.539062 865.972656 -336.835938 863.210938 -334.777344 Z M 358.769531 22.832031 C 351.089844 27.894531 342.945312 33.320312 340.761719 35.046875 C 338.578125 36.777344 331.230469 42.417969 324.417969 47.65625 C 317.609375 52.894531 307.941406 60.535156 302.902344 64.664062 C 297.863281 68.792969 293.328125 72.632812 292.914062 73.253906 C 292.460938 73.804688 289.613281 76.390625 286.582031 78.988281 C 283.507812 81.515625 278.09375 86.339844 274.429688 89.683594 C 270.769531 93.027344 264.632812 98.9375 260.769531 102.777344 C 256.953125 106.6875 252.097656 111.480469 250.039062 113.429688 C 248.019531 115.445312 245.804688 117.960938 245.082031 119.046875 C 244.355469 120.136719 242.773438 121.90625 241.5625 122.980469 C 240.351562 124.058594 238.34375 126.261719 237.164062 127.898438 C 235.984375 129.535156 233.738281 132.164062 232.113281 133.859375 C 230.519531 135.445312 229.332031 136.894531 229.453125 137.109375 C 229.578125 137.328125 228.003906 139.285156 225.996094 141.488281 C 223.875 143.664062 222.035156 146.15625 221.816406 146.953125 C 221.601562 147.75 220.980469 148.683594 220.542969 148.929688 C 220.035156 149.222656 217.8125 152.222656 215.535156 155.636719 C 213.257812 159.054688 210.992188 162.65625 210.484375 163.617188 C 209.9375 164.507812 208.796875 166.890625 208.011719 168.878906 C 207.113281 170.832031 206.160156 172.53125 205.796875 172.738281 C 205.507812 172.902344 205.226562 173.929688 205.175781 175.015625 C 205.199219 176.058594 204.773438 177.167969 204.410156 177.375 C 204.046875 177.582031 203.167969 179.238281 202.601562 181.101562 C 201.917969 182.933594 200.148438 188.75 198.6875 194.101562 C 197.230469 199.453125 195.585938 206.160156 195.066406 208.953125 C 194.59375 211.820312 193.886719 215.296875 193.472656 216.59375 C 193.101562 217.957031 192.914062 219.3125 193.050781 219.71875 C 193.214844 220.007812 193.238281 221.726562 193.113281 223.527344 C 192.875 225.296875 192.957031 229.476562 193.144531 232.832031 C 193.332031 236.183594 194.253906 240.65625 195.082031 242.777344 C 195.949219 244.972656 197.667969 247.640625 199.085938 248.945312 C 200.703125 250.425781 202.730469 251.285156 205.703125 251.605469 C 208.144531 251.84375 211.941406 251.59375 214.34375 251.085938 C 216.628906 250.546875 219.445312 250.09375 220.53125 250.144531 C 221.835938 250.074219 229.796875 246.003906 245.421875 237.359375 C 258.691406 229.96875 271.898438 222.132812 276.648438 218.839844 C 281.179688 215.671875 291.601562 208.179688 299.832031 202.226562 C 308.058594 196.273438 318.925781 188.046875 324.007812 183.988281 C 329.128906 180.003906 333.621094 176.089844 334.035156 175.46875 C 334.40625 174.777344 338.082031 171.617188 342.015625 168.410156 C 345.988281 165.273438 349.765625 161.960938 350.355469 161.144531 C 350.945312 160.324219 354.175781 157.230469 357.488281 154.28125 C 360.839844 151.402344 365.960938 146.746094 368.914062 144 C 371.902344 141.332031 377.046875 136.371094 380.453125 133.082031 C 383.816406 129.71875 387.46875 126.1875 388.421875 125.164062 C 389.371094 124.136719 393.9375 119.511719 398.46875 114.996094 C 403.003906 110.484375 408.632812 104.863281 411.003906 102.453125 C 413.371094 100.039062 417.925781 95.226562 421.207031 91.71875 C 424.527344 88.28125 427.976562 84.390625 428.84375 83.21875 C 429.714844 82.050781 431.679688 79.773438 433.242188 78.304688 C 434.765625 76.761719 436.410156 74.761719 436.917969 73.800781 C 437.421875 72.839844 438.925781 70.921875 440.226562 69.503906 C 441.53125 68.085938 442.824219 66.484375 443.023438 65.984375 C 443.21875 65.488281 445.039062 63.296875 447.015625 61.203125 C 448.992188 59.113281 450.640625 57.117188 450.691406 56.703125 C 450.785156 56.359375 452.492188 54.132812 454.601562 51.773438 C 456.714844 49.414062 459.703125 46.070312 461.359375 44.257812 C 462.984375 42.5625 465.230469 39.933594 466.277344 38.566406 C 467.28125 37.128906 469.351562 34.695312 470.871094 33.152344 C 472.390625 31.609375 475.765625 27.761719 478.46875 24.582031 C 481.128906 21.332031 484.644531 17.398438 486.300781 15.585938 C 487.925781 13.890625 489.789062 11.769531 490.378906 10.949219 C 490.96875 10.132812 493.503906 7.335938 496.019531 4.84375 C 498.492188 2.277344 502.671875 -1.84375 505.230469 -4.265625 C 507.746094 -6.761719 510.601562 -9.835938 511.46875 -11.003906 C 512.296875 -12.246094 514.667969 -14.65625 516.550781 -16.40625 C 518.433594 -18.15625 520.234375 -20.050781 520.433594 -20.546875 C 520.628906 -21.042969 522.210938 -22.816406 523.992188 -24.410156 C 525.699219 -25.960938 529.714844 -30.371094 532.914062 -34.023438 C 536.070312 -37.75 540.292969 -42.472656 542.269531 -44.5625 C 544.289062 -46.582031 546.355469 -49.011719 546.90625 -49.902344 C 547.496094 -50.71875 549.460938 -52.996094 551.304688 -54.820312 C 553.105469 -56.714844 556.800781 -60.84375 559.5 -64.023438 C 562.203125 -67.199219 565.679688 -71.207031 567.375 -72.945312 C 568.960938 -74.714844 570.820312 -76.835938 571.410156 -77.652344 C 572.003906 -78.472656 574.1875 -80.871094 576.234375 -83.003906 C 578.324219 -85.066406 579.886719 -87.207031 579.824219 -87.652344 C 579.722656 -88.171875 575.582031 -86.667969 569.671875 -84.058594 C 564.207031 -81.515625 548.578125 -74.214844 534.816406 -67.695312 C 521.121094 -61.214844 502.554688 -52.332031 493.675781 -48.023438 C 484.796875 -43.71875 473.90625 -38.550781 469.457031 -36.585938 C 465.007812 -34.617188 450.269531 -27.445312 436.742188 -20.675781 C 423.171875 -13.976562 405.300781 -4.722656 396.988281 -0.261719 C 388.71875 4.273438 379.914062 9.210938 377.386719 10.847656 C 374.863281 12.480469 366.488281 17.84375 358.769531 22.832031 Z M 358.769531 22.832031 " fill-opacity="1" fill-rule="evenodd"/></g></g></g></svg>