<svg xmlns="http://www.w3.org/2000/svg" xmlns:xlink="http://www.w3.org/1999/xlink" width="1920" zoomAndPan="magnify" viewBox="0 0 1440 809.999993" height="1080" preserveAspectRatio="xMidYMid meet" version="1.0"><defs><clipPath id="fae4d1f988"><path d="M 0 0 L 443.09375 0 L 443.09375 810 L 0 810 Z M 0 0 " clip-rule="nonzero"/></clipPath><clipPath id="7545542ffd"><path d="M 0 0 L 443 0 L 443 810 L 0 810 Z M 0 0 " clip-rule="nonzero"/></clipPath><clipPath id="ea185f12c4"><rect x="0" width="444" y="0" height="810"/></clipPath><clipPath id="1a27993009"><path d="M 537.191406 79.246094 L 1393.953125 79.246094 L 1393.953125 809.746094 L 537.191406 809.746094 Z M 537.191406 79.246094 " clip-rule="nonzero"/></clipPath></defs><rect x="-144" width="1728" fill="#ffffff" y="-80.999999" height="971.999992" fill-opacity="1"/><rect x="-144" width="1728" fill="#e6f5fa" y="-80.999999" height="971.999992" fill-opacity="1"/><g clip-path="url(#fae4d1f988)"><g transform="matrix(1, 0, 0, 1, 0, 0.000000000000039746)"><g clip-path="url(#ea185f12c4)"><g clip-path="url(#7545542ffd)"><path fill="#8fd6ff" d="M -376.035156 -381.671875 C -389.003906 -381.507812 -400.058594 -380.925781 -405.546875 -380.09375 C -410.367188 -379.34375 -415.769531 -378.429688 -417.601562 -378.015625 C -419.429688 -377.515625 -424.085938 -376.601562 -427.992188 -375.851562 C -431.898438 -375.105469 -436.636719 -373.773438 -438.632812 -372.859375 C -440.542969 -372.03125 -442.621094 -371.28125 -443.121094 -371.28125 C -443.703125 -371.28125 -447.277344 -369.785156 -451.019531 -367.957031 C -454.84375 -366.128906 -458.085938 -364.628906 -458.335938 -364.628906 C -458.585938 -364.628906 -461.410156 -362.886719 -464.652344 -360.640625 C -467.976562 -358.480469 -471.46875 -356.152344 -472.46875 -355.484375 C -473.464844 -354.820312 -477.289062 -351.746094 -481.03125 -348.585938 C -484.769531 -345.511719 -487.847656 -342.765625 -487.847656 -342.433594 C -487.847656 -342.019531 -489.34375 -340.273438 -491.171875 -338.445312 C -493 -336.617188 -496.992188 -332.125 -500.066406 -328.46875 C -503.226562 -324.8125 -507.050781 -319.738281 -508.710938 -317.246094 C -510.292969 -314.75 -513.035156 -310.347656 -514.699219 -307.4375 C -516.359375 -304.609375 -517.773438 -302.117188 -517.773438 -301.867188 C -517.773438 -301.617188 -518.6875 -299.457031 -519.769531 -297.128906 C -520.933594 -294.71875 -522.261719 -290.144531 -522.761719 -286.902344 C -523.261719 -283.660156 -524.089844 -279.753906 -524.507812 -278.175781 C -524.921875 -276.59375 -525.253906 -269.527344 -525.253906 -262.628906 C -525.253906 -253.734375 -524.757812 -247.082031 -523.675781 -240.597656 C -522.679688 -234.863281 -520.765625 -228.046875 -518.855469 -223.222656 C -517.109375 -218.902344 -515.28125 -214.746094 -514.78125 -214.078125 C -514.28125 -213.414062 -513.035156 -211.171875 -512.121094 -209.007812 C -511.121094 -206.765625 -510.042969 -205.019531 -509.625 -205.019531 C -509.292969 -205.101562 -508.546875 -204.019531 -508.046875 -202.773438 C -507.464844 -201.527344 -506.300781 -199.699219 -505.46875 -198.785156 C -504.636719 -197.871094 -502.726562 -195.207031 -501.148438 -192.964844 C -499.566406 -190.636719 -493.414062 -183.902344 -487.429688 -177.917969 C -481.527344 -172.015625 -474.378906 -165.449219 -471.71875 -163.371094 C -468.976562 -161.375 -465.234375 -158.546875 -463.40625 -157.050781 C -461.492188 -155.554688 -457.585938 -152.730469 -454.59375 -150.734375 C -451.601562 -148.738281 -448.109375 -146.410156 -446.695312 -145.496094 C -445.28125 -144.664062 -442.707031 -143.085938 -440.875 -142.171875 C -439.046875 -141.171875 -430.816406 -136.933594 -422.589844 -132.777344 C -414.359375 -128.621094 -407.042969 -125.210938 -406.378906 -125.210938 C -405.710938 -125.210938 -404.546875 -124.714844 -403.882812 -124.132812 C -403.21875 -123.550781 -399.644531 -121.886719 -395.984375 -120.472656 C -392.328125 -119.0625 -386.011719 -116.566406 -381.855469 -114.988281 C -377.695312 -113.40625 -370.214844 -110.832031 -365.226562 -109.167969 C -360.238281 -107.503906 -353.839844 -105.59375 -351.09375 -104.84375 C -348.351562 -104.179688 -342.199219 -102.601562 -337.378906 -101.4375 C -332.558594 -100.273438 -326.738281 -98.777344 -324.492188 -98.113281 C -322.164062 -97.445312 -314.933594 -95.699219 -308.28125 -94.121094 C -301.632812 -92.542969 -288.746094 -89.714844 -279.601562 -87.886719 C -270.457031 -85.972656 -260.316406 -83.894531 -257.15625 -83.148438 C -253.996094 -82.484375 -248.011719 -81.402344 -243.855469 -80.738281 C -239.699219 -80.070312 -233.964844 -78.910156 -230.96875 -78.242188 C -227.976562 -77.578125 -221.824219 -76.414062 -217.253906 -75.75 C -212.679688 -75.085938 -203.121094 -73.753906 -196.054688 -72.921875 C -185.496094 -71.59375 -179.097656 -71.34375 -160.722656 -71.507812 C -148.421875 -71.675781 -136.035156 -72.175781 -133.289062 -72.671875 C -130.546875 -73.171875 -123.230469 -74.253906 -117.082031 -75 C -110.929688 -75.75 -104.527344 -76.828125 -102.949219 -77.410156 C -101.367188 -77.910156 -98.792969 -78.660156 -94.632812 -79.488281 L -94.71875 -63.445312 C -94.800781 -54.71875 -95.132812 -43.742188 -95.464844 -39.171875 C -95.796875 -34.597656 -96.878906 -25.039062 -97.875 -17.972656 C -98.875 -10.90625 -100.039062 -3.757812 -100.453125 -2.179688 C -100.871094 -0.597656 -102.367188 4.640625 -103.695312 9.460938 C -105.027344 14.28125 -107.105469 20.765625 -108.351562 24.007812 C -109.597656 27.25 -111.761719 32.238281 -113.171875 35.230469 C -114.585938 38.222656 -116 41.214844 -116.414062 41.882812 C -116.746094 42.546875 -118.242188 45.207031 -119.574219 47.699219 C -120.988281 50.195312 -123.148438 53.851562 -124.394531 55.765625 C -125.644531 57.675781 -127.722656 60.917969 -129.132812 62.832031 C -130.464844 64.824219 -132.542969 67.570312 -133.707031 68.984375 C -134.871094 70.394531 -136.949219 72.972656 -138.277344 74.800781 C -139.609375 76.546875 -146.011719 83.28125 -152.410156 89.683594 C -158.8125 96.167969 -166.128906 102.898438 -168.621094 104.8125 C -171.117188 106.722656 -176.019531 110.464844 -179.429688 113.207031 C -182.835938 115.867188 -186.992188 118.945312 -188.738281 120.109375 C -190.402344 121.1875 -194.308594 123.847656 -197.46875 125.925781 C -200.542969 128.003906 -204.453125 130.5 -206.03125 131.496094 C -207.609375 132.496094 -210.769531 134.324219 -212.929688 135.570312 C -215.175781 136.816406 -219.082031 139.0625 -221.660156 140.558594 C -224.320312 141.972656 -229.972656 144.882812 -234.296875 147.042969 C -238.617188 149.203125 -244.851562 152.195312 -248.011719 153.695312 C -251.171875 155.273438 -256.574219 157.683594 -259.816406 159.015625 C -263.140625 160.425781 -266.050781 161.589844 -266.300781 161.589844 C -266.550781 161.589844 -268.878906 162.589844 -271.457031 163.753906 C -274.117188 165 -277.773438 166.414062 -279.601562 166.996094 C -281.429688 167.578125 -284.757812 168.824219 -287.082031 169.820312 C -289.328125 170.734375 -293.652344 172.230469 -296.644531 173.230469 C -299.636719 174.144531 -305.621094 176.054688 -309.945312 177.46875 C -314.269531 178.882812 -322 181.042969 -326.988281 182.375 C -331.976562 183.621094 -337.460938 185.117188 -339.039062 185.617188 C -340.621094 186.113281 -346.605469 187.277344 -352.34375 188.191406 C -358.078125 189.105469 -363.648438 190.023438 -364.8125 190.269531 C -365.976562 190.605469 -376.449219 190.769531 -388.089844 190.769531 C -399.726562 190.769531 -410.617188 190.519531 -412.195312 190.269531 C -413.777344 190.023438 -419.261719 189.273438 -424.25 188.609375 C -429.238281 187.945312 -433.476562 187.277344 -433.644531 187.195312 C -433.8125 187.027344 -433.476562 184.867188 -432.894531 182.375 C -432.316406 179.878906 -431.566406 177.386719 -431.234375 176.96875 C -430.902344 176.554688 -429.320312 170.902344 -427.742188 164.5 C -426.078125 158.097656 -424.417969 150.617188 -423.917969 147.875 C -423.417969 145.128906 -422.589844 136.902344 -422.089844 129.585938 C -421.589844 122.269531 -421.175781 114.789062 -421.09375 112.960938 C -421.09375 111.128906 -421.339844 106.476562 -421.671875 102.566406 C -422.007812 98.660156 -422.671875 90.597656 -423.085938 84.695312 C -423.585938 78.792969 -424.5 71.476562 -425.082031 68.484375 C -425.664062 65.492188 -426.992188 59.339844 -427.992188 54.765625 C -428.988281 50.195312 -430.320312 45.289062 -430.902344 43.960938 C -431.484375 42.628906 -432.648438 39.386719 -433.394531 36.894531 C -434.226562 34.398438 -435.308594 31.40625 -435.972656 30.242188 C -436.554688 29.078125 -438.796875 24.425781 -440.960938 19.851562 C -443.121094 15.28125 -446.28125 9.460938 -447.859375 6.964844 C -449.523438 4.472656 -452.515625 0.234375 -454.59375 -2.511719 C -456.671875 -5.171875 -459.082031 -8.328125 -459.996094 -9.578125 C -460.910156 -10.742188 -463.488281 -13.734375 -465.816406 -16.226562 C -468.0625 -18.722656 -471.636719 -22.460938 -473.714844 -24.539062 C -475.792969 -26.617188 -480.113281 -30.609375 -483.273438 -33.433594 C -486.515625 -36.261719 -490.757812 -39.585938 -492.75 -40.917969 C -494.746094 -42.246094 -498.902344 -44.90625 -501.894531 -46.820312 C -504.886719 -48.730469 -507.632812 -50.3125 -507.964844 -50.394531 C -508.378906 -50.394531 -510.375 -51.226562 -512.535156 -52.304688 C -514.78125 -53.386719 -518.1875 -54.71875 -520.269531 -55.300781 C -522.347656 -55.878906 -525.671875 -56.960938 -527.75 -57.625 C -529.910156 -58.375 -536.0625 -59.039062 -542.296875 -59.289062 C -549.28125 -59.539062 -554.433594 -59.371094 -556.84375 -58.707031 C -558.921875 -58.125 -564.160156 -57.210938 -568.484375 -56.628906 C -572.804688 -56.046875 -578.042969 -55.132812 -580.121094 -54.550781 C -582.199219 -53.96875 -584.445312 -53.21875 -585.109375 -52.804688 C -585.773438 -52.472656 -588.433594 -51.476562 -590.929688 -50.726562 C -593.421875 -49.894531 -597.746094 -48.148438 -600.488281 -46.652344 C -603.234375 -45.238281 -607.554688 -42.746094 -610.050781 -41.082031 C -612.542969 -39.503906 -615.203125 -37.507812 -615.867188 -36.761719 C -616.535156 -36.011719 -617.613281 -35.347656 -618.113281 -35.429688 C -618.695312 -35.429688 -623.847656 -30.859375 -629.417969 -25.289062 C -635.070312 -19.636719 -641.140625 -13.234375 -642.96875 -10.988281 C -644.714844 -8.828125 -647.125 -5.835938 -648.289062 -4.339844 C -649.453125 -2.925781 -651.699219 0.316406 -653.359375 2.808594 C -655.023438 5.304688 -657.183594 8.710938 -658.097656 10.292969 C -659.097656 11.871094 -661.339844 16.195312 -663.171875 19.851562 C -664.917969 23.507812 -667.242188 28.746094 -668.242188 31.492188 C -669.238281 34.234375 -670.820312 39.472656 -671.734375 43.128906 C -673.144531 48.863281 -673.394531 52.605469 -673.480469 70.5625 C -673.480469 83.78125 -673.144531 93.339844 -672.480469 96.75 C -671.980469 99.742188 -670.320312 105.894531 -668.988281 110.464844 C -667.578125 115.039062 -665.5 121.023438 -664.335938 123.765625 C -663.085938 126.507812 -660.511719 132.078125 -658.515625 136.234375 C -656.519531 140.390625 -653.445312 146.128906 -651.699219 149.121094 C -650.035156 152.113281 -646.710938 157.351562 -644.464844 160.757812 C -642.136719 164.167969 -639.0625 168.824219 -637.484375 171.066406 C -635.902344 173.3125 -630.75 179.714844 -626.175781 185.199219 C -621.523438 190.769531 -614.539062 198.25 -610.632812 201.910156 C -606.640625 205.566406 -602.070312 209.722656 -600.324219 211.136719 C -598.578125 212.550781 -594.253906 215.792969 -590.679688 218.203125 C -587.105469 220.699219 -582.367188 223.773438 -580.289062 225.019531 C -578.128906 226.265625 -572.058594 229.425781 -566.820312 231.921875 C -561.582031 234.496094 -556.347656 236.992188 -555.183594 237.574219 C -554.019531 238.238281 -551.027344 239.320312 -548.53125 240.148438 C -546.039062 240.980469 -543.542969 241.894531 -543.128906 242.226562 C -542.714844 242.644531 -538.972656 243.890625 -534.816406 245.136719 C -530.660156 246.386719 -526.917969 247.632812 -526.503906 247.882812 C -526.085938 248.046875 -526.585938 248.960938 -527.75 249.875 C -528.914062 250.789062 -531.824219 252.871094 -534.316406 254.53125 C -536.8125 256.195312 -540.550781 258.605469 -542.628906 259.851562 C -544.707031 261.097656 -549.445312 263.675781 -553.105469 265.589844 C -556.761719 267.417969 -561.832031 269.746094 -564.328125 270.578125 C -566.820312 271.492188 -569.316406 272.570312 -569.730469 272.902344 C -570.148438 273.238281 -572.808594 274.234375 -575.550781 274.980469 C -578.292969 275.8125 -581.453125 276.8125 -582.617188 277.308594 C -583.78125 277.808594 -588.601562 279.304688 -593.421875 280.636719 C -598.246094 281.964844 -606.308594 283.960938 -611.296875 285.125 C -616.285156 286.289062 -620.855469 287.535156 -621.273438 287.867188 C -621.6875 288.285156 -623.765625 288.863281 -625.84375 289.199219 C -627.921875 289.53125 -632.410156 290.527344 -635.820312 291.527344 C -639.230469 292.441406 -645.796875 294.1875 -650.367188 295.433594 C -654.941406 296.679688 -663.003906 298.839844 -668.242188 300.335938 C -673.480469 301.75 -678.550781 303.332031 -679.464844 303.746094 C -680.378906 304.160156 -683.621094 305.242188 -686.695312 306.238281 C -689.855469 307.152344 -693.015625 308.234375 -693.761719 308.652344 C -694.59375 309.148438 -697.503906 310.3125 -700.246094 311.226562 C -702.992188 312.226562 -706.148438 313.554688 -707.3125 314.136719 C -708.476562 314.71875 -712.550781 316.796875 -716.457031 318.710938 C -720.363281 320.621094 -725.769531 323.613281 -728.511719 325.195312 C -731.253906 326.855469 -736.328125 330.265625 -739.734375 332.757812 C -743.144531 335.253906 -749.542969 340.40625 -753.867188 344.148438 C -758.191406 347.886719 -765.253906 354.621094 -769.578125 359.109375 C -773.902344 363.683594 -779.472656 370 -782.132812 373.160156 C -784.707031 376.320312 -788.78125 381.472656 -791.109375 384.632812 C -793.519531 387.707031 -795.433594 390.367188 -795.433594 390.617188 C -795.433594 390.867188 -796.929688 393.195312 -798.757812 395.855469 C -800.503906 398.433594 -802 401.09375 -802.082031 401.675781 C -802.082031 402.171875 -802.582031 403.171875 -803.164062 403.753906 C -803.746094 404.25 -805.492188 406.996094 -806.988281 409.738281 C -808.566406 412.480469 -810.976562 416.96875 -812.390625 419.714844 C -813.886719 422.457031 -816.714844 428.277344 -818.625 432.597656 C -820.621094 436.921875 -823.449219 443.15625 -824.945312 446.316406 C -826.441406 449.476562 -827.9375 453.050781 -828.269531 454.214844 C -828.601562 455.378906 -829.183594 456.707031 -829.515625 457.125 C -829.933594 457.539062 -831.011719 460.199219 -832.09375 462.941406 C -833.089844 465.6875 -834.171875 468.347656 -834.585938 468.761719 C -834.921875 469.175781 -836.25 472.417969 -837.414062 475.828125 C -838.660156 479.234375 -839.90625 482.476562 -840.324219 482.894531 C -840.65625 483.308594 -841.820312 486.386719 -842.816406 489.542969 C -843.816406 492.703125 -844.980469 495.777344 -845.3125 496.195312 C -845.644531 496.609375 -846.722656 499.6875 -847.722656 502.84375 C -848.71875 506.003906 -849.964844 509.414062 -850.464844 510.328125 C -850.964844 511.242188 -852.046875 514.402344 -852.875 517.394531 C -853.707031 520.386719 -854.789062 523.546875 -855.203125 524.460938 C -855.703125 525.375 -857.03125 529.695312 -858.28125 534.019531 C -859.527344 538.34375 -861.355469 545.492188 -862.519531 549.816406 C -863.601562 554.136719 -865.011719 559.625 -865.761719 561.867188 C -866.425781 564.195312 -867.757812 570.679688 -868.671875 576.417969 C -869.585938 582.152344 -870.667969 587.554688 -871.082031 588.472656 C -871.496094 589.386719 -872.328125 594.457031 -873.078125 599.695312 C -873.742188 604.929688 -874.574219 611.164062 -874.824219 613.410156 C -875.15625 615.738281 -875.320312 620.394531 -875.40625 623.800781 C -875.40625 628.957031 -875.15625 630.203125 -873.910156 631.117188 C -872.996094 631.699219 -871 632.199219 -869.417969 632.199219 C -867.839844 632.28125 -865.761719 632.199219 -864.847656 632.113281 C -863.933594 632.03125 -861.523438 631.117188 -859.445312 630.035156 C -857.367188 628.957031 -854.871094 627.210938 -853.875 626.128906 C -852.875 625.132812 -851.628906 622.386719 -851.128906 620.0625 C -850.632812 617.734375 -849.882812 615.488281 -849.46875 615.074219 C -849.136719 614.65625 -847.972656 610.085938 -846.972656 605.097656 C -845.894531 600.109375 -844.8125 595.535156 -844.480469 595.121094 C -844.148438 594.707031 -842.984375 590.550781 -841.902344 585.976562 C -840.820312 581.40625 -839.660156 577.496094 -839.410156 577.25 C -839.078125 577 -837.996094 573.757812 -837.082031 569.933594 C -836.082031 566.191406 -834.835938 561.867188 -834.171875 560.457031 C -833.507812 558.960938 -832.175781 555.050781 -831.179688 551.894531 C -830.179688 548.734375 -828.933594 544.992188 -828.269531 543.578125 C -827.6875 542.167969 -826.191406 538.425781 -824.945312 535.265625 C -823.78125 532.109375 -821.953125 527.203125 -820.953125 524.375 C -819.957031 521.632812 -818.710938 518.808594 -818.210938 518.140625 C -817.710938 517.476562 -816.796875 515.480469 -816.214844 513.652344 C -815.632812 511.824219 -813.140625 506.003906 -810.644531 500.765625 C -808.152344 495.53125 -805.492188 489.710938 -804.742188 487.882812 C -804.078125 486.054688 -803.082031 483.976562 -802.5 483.308594 C -802 482.644531 -800.835938 480.398438 -800.003906 478.320312 C -799.171875 476.242188 -798.175781 474.164062 -797.84375 473.75 C -797.511719 473.332031 -795.433594 469.34375 -793.1875 465.019531 C -790.859375 460.699219 -787.617188 454.464844 -785.871094 451.304688 C -784.042969 448.144531 -782.382812 445.320312 -782.046875 445.070312 C -781.800781 444.820312 -780.636719 442.992188 -779.636719 440.914062 C -778.640625 438.835938 -777.476562 437.003906 -777.144531 436.757812 C -776.894531 436.507812 -775.230469 434.261719 -773.570312 431.769531 C -771.90625 429.273438 -767.75 423.621094 -764.257812 419.296875 C -760.765625 414.976562 -755.363281 408.742188 -752.289062 405.582031 C -749.128906 402.421875 -744.390625 397.765625 -741.730469 395.355469 C -738.984375 392.863281 -733.5 388.375 -729.34375 385.214844 C -725.1875 382.054688 -721.363281 379.476562 -720.78125 379.394531 C -720.28125 379.394531 -718.785156 378.5625 -717.457031 377.484375 C -716.207031 376.402344 -713.546875 374.65625 -711.46875 373.660156 C -709.390625 372.660156 -707.148438 371.496094 -706.480469 371.082031 C -705.816406 370.582031 -702.992188 369.253906 -700.246094 368.089844 C -697.503906 366.84375 -692.265625 364.765625 -688.609375 363.433594 C -684.949219 362.105469 -679.546875 360.273438 -676.554688 359.445312 C -673.5625 358.53125 -670.070312 357.367188 -668.65625 356.867188 C -667.242188 356.367188 -662.257812 354.871094 -657.433594 353.625 C -652.613281 352.378906 -643.632812 349.882812 -637.484375 348.222656 C -631.332031 346.476562 -622.351562 344.230469 -617.53125 343.066406 C -612.710938 341.984375 -608.386719 340.824219 -607.972656 340.574219 C -607.554688 340.242188 -603.480469 339.160156 -598.992188 338.078125 C -594.585938 337.082031 -590.265625 335.835938 -589.433594 335.335938 C -588.683594 334.921875 -585.027344 333.757812 -581.371094 332.757812 C -577.710938 331.761719 -574.304688 330.679688 -573.886719 330.347656 C -573.472656 330.015625 -571.394531 329.265625 -569.316406 328.683594 C -567.238281 328.1875 -562.582031 326.441406 -558.921875 324.859375 C -555.265625 323.28125 -548.035156 319.789062 -542.796875 317.214844 C -537.558594 314.636719 -530.574219 310.730469 -527.417969 308.484375 C -524.175781 306.324219 -519.601562 303.246094 -517.359375 301.667969 C -515.03125 300.003906 -511.871094 297.761719 -510.292969 296.597656 C -508.710938 295.515625 -504.222656 291.609375 -500.316406 288.117188 C -496.492188 284.625 -490.839844 279.222656 -487.847656 276.230469 C -484.855469 273.238281 -480.363281 268.25 -473.296875 259.519531 L -468.3125 260.019531 C -465.566406 260.269531 -458.667969 260.933594 -452.929688 261.347656 C -447.195312 261.847656 -431.152344 262.015625 -417.183594 261.847656 C -401.886719 261.597656 -388.339844 260.933594 -383.101562 260.183594 C -378.277344 259.519531 -368.386719 257.855469 -361.070312 256.445312 C -353.753906 255.03125 -346.855469 253.535156 -345.691406 253.035156 C -344.527344 252.621094 -340.453125 251.539062 -336.546875 250.625 C -332.640625 249.710938 -328.402344 248.546875 -326.988281 248.046875 C -325.574219 247.464844 -321.667969 246.300781 -318.257812 245.386719 C -314.851562 244.472656 -310.941406 243.226562 -309.53125 242.644531 C -308.117188 241.980469 -304.625 240.730469 -301.632812 239.816406 C -298.640625 238.902344 -292.902344 236.910156 -288.746094 235.328125 C -284.589844 233.75 -278.105469 231.253906 -274.199219 229.84375 C -270.292969 228.34375 -266.71875 226.847656 -266.300781 226.515625 C -265.886719 226.183594 -264.140625 225.351562 -262.558594 224.769531 C -260.980469 224.1875 -255.910156 221.945312 -251.335938 219.78125 C -246.765625 217.621094 -240.945312 214.878906 -238.453125 213.714844 C -235.957031 212.550781 -230.554688 209.722656 -226.398438 207.5625 C -222.242188 205.316406 -217.003906 202.410156 -214.761719 201.078125 C -212.433594 199.75 -208.523438 197.421875 -206.03125 195.757812 C -203.539062 194.179688 -198.882812 191.1875 -195.722656 189.109375 C -192.648438 187.03125 -188.824219 184.535156 -187.410156 183.621094 C -185.914062 182.707031 -182.171875 180.046875 -179.097656 177.800781 C -176.019531 175.472656 -170.117188 170.902344 -165.878906 167.578125 C -161.640625 164.25 -156.984375 160.511719 -155.402344 159.261719 C -153.90625 158.015625 -150.332031 154.941406 -147.507812 152.445312 C -144.761719 149.953125 -137.613281 143.21875 -131.792969 137.484375 C -125.890625 131.746094 -116.664062 121.855469 -111.179688 115.453125 C -105.773438 109.050781 -99.789062 101.738281 -97.960938 99.242188 C -96.214844 96.75 -92.972656 92.09375 -90.8125 88.851562 C -88.648438 85.609375 -86.074219 81.703125 -85.074219 80.121094 C -84.078125 78.542969 -82.332031 75.550781 -81.167969 73.472656 C -80.003906 71.394531 -77.757812 67.320312 -76.179688 64.328125 C -74.601562 61.335938 -72.6875 57.011719 -71.855469 54.765625 C -70.941406 52.441406 -70.027344 50.195312 -69.613281 49.78125 C -69.195312 49.363281 -67.949219 46.121094 -66.703125 42.714844 C -65.539062 39.304688 -63.460938 32.738281 -62.214844 28.164062 C -60.964844 23.59375 -59.554688 18.9375 -59.054688 17.773438 C -58.640625 16.609375 -57.226562 10.789062 -55.894531 4.886719 C -54.648438 -1.015625 -53.234375 -8.828125 -52.738281 -12.402344 C -51.824219 -18.636719 -51.738281 -18.886719 -50.410156 -17.390625 C -49.578125 -16.558594 -47.664062 -14.230469 -46.167969 -12.152344 C -44.671875 -10.074219 -42.84375 -7.496094 -42.261719 -6.335938 C -41.597656 -5.171875 -38.769531 -1.097656 -35.945312 2.808594 C -33.035156 6.71875 -29.792969 11.039062 -28.628906 12.371094 C -27.464844 13.699219 -26.550781 15.28125 -26.550781 15.695312 C -26.550781 16.109375 -26.050781 16.941406 -25.46875 17.441406 C -24.886719 18.023438 -20.648438 23.925781 -16.074219 30.574219 C -11.503906 37.308594 -7.015625 44.042969 -6.101562 45.539062 C -5.1875 46.953125 -3.9375 48.78125 -3.441406 49.445312 C -2.859375 50.113281 -0.695312 53.105469 1.382812 56.265625 C 3.460938 59.339844 5.121094 62.25 5.121094 62.664062 C 5.121094 63.082031 5.621094 63.746094 6.285156 64.160156 C 6.867188 64.492188 8.03125 66.074219 8.863281 67.652344 C 9.695312 69.230469 11.109375 71.558594 12.105469 72.722656 C 13.101562 73.972656 14.597656 76.214844 15.515625 77.710938 C 16.429688 79.207031 18.089844 81.953125 19.253906 83.863281 C 20.417969 85.691406 22.082031 88.4375 22.996094 89.933594 C 23.910156 91.511719 26.070312 94.917969 27.816406 97.664062 C 29.480469 100.324219 30.894531 102.816406 30.894531 103.148438 C 30.808594 103.566406 31.640625 104.5625 32.554688 105.476562 C 33.46875 106.390625 34.21875 107.554688 34.21875 107.972656 C 34.21875 108.386719 35.546875 110.796875 37.128906 113.207031 C 38.707031 115.535156 40.039062 117.78125 40.039062 118.195312 C 40.039062 118.527344 41.535156 121.023438 43.28125 123.765625 C 44.941406 126.507812 46.6875 129.335938 47.019531 130 C 47.351562 130.667969 48.851562 133.492188 50.429688 136.234375 C 52.007812 138.980469 54.335938 143.300781 55.667969 145.796875 C 56.996094 148.289062 60.902344 156.019531 64.3125 162.839844 C 67.804688 169.738281 71.710938 177.71875 73.125 180.710938 C 74.453125 183.703125 76.699219 188.527344 78.113281 191.519531 C 79.441406 194.511719 81.1875 198.835938 82.019531 201.078125 C 82.851562 203.40625 83.847656 205.652344 84.179688 206.066406 C 84.597656 206.480469 85.761719 209.476562 86.925781 212.71875 C 88.085938 215.960938 90.164062 221.695312 91.578125 225.601562 C 92.992188 229.507812 94.40625 233.417969 94.820312 234.332031 C 95.238281 235.246094 96.234375 238.070312 96.984375 240.566406 C 97.730469 243.058594 99.0625 247.050781 99.890625 249.292969 C 100.722656 251.621094 102.71875 258.523438 104.382812 264.675781 C 106.042969 270.824219 108.453125 280.550781 109.785156 286.289062 C 111.113281 292.023438 112.695312 300.003906 113.191406 304.160156 C 113.691406 308.316406 114.273438 312.722656 114.441406 314.136719 C 114.691406 315.550781 115.273438 320.789062 115.769531 325.777344 C 116.683594 334.003906 116.601562 336.332031 114.9375 348.222656 C 113.941406 355.535156 112.777344 363.433594 112.363281 365.679688 C 111.863281 368.007812 110.367188 373.574219 108.953125 378.148438 C 107.625 382.71875 105.960938 387.542969 105.296875 388.957031 C 104.714844 390.367188 102.304688 395.355469 99.890625 400.179688 C 97.480469 405 94.65625 410.238281 93.574219 411.816406 C 92.492188 413.394531 88.835938 417.71875 85.511719 421.375 C 82.269531 425.035156 75.121094 432.183594 69.632812 437.171875 C 64.230469 442.160156 51.675781 454.378906 41.699219 464.1875 C 31.808594 474 20.253906 486.21875 16.011719 491.207031 C 11.773438 496.195312 7.617188 501.265625 6.703125 502.429688 C 5.871094 503.59375 4.207031 505.589844 3.128906 507.003906 C 2.128906 508.414062 -1.195312 513.070312 -4.105469 517.394531 C -7.015625 521.714844 -10.089844 526.621094 -10.921875 528.199219 C -11.835938 529.78125 -13.082031 532.023438 -13.832031 533.1875 C -14.578125 534.351562 -17.488281 539.921875 -20.398438 545.65625 C -23.308594 551.394531 -26.300781 557.710938 -27.050781 559.789062 C -27.796875 561.867188 -28.628906 563.945312 -28.960938 564.363281 C -29.292969 564.777344 -30.875 569.101562 -32.535156 573.921875 C -34.199219 578.746094 -36.359375 585.976562 -37.359375 590.132812 C -38.355469 594.289062 -39.4375 598.445312 -39.851562 599.527344 C -40.265625 600.523438 -41.265625 605.347656 -42.011719 610.25 C -43.175781 617.566406 -43.507812 624.882812 -43.507812 649.574219 C -43.507812 674.511719 -43.261719 681.328125 -42.097656 687.8125 C -41.265625 692.136719 -39.351562 700.53125 -37.773438 706.515625 C -36.277344 712.503906 -33.949219 720.152344 -32.785156 723.558594 C -31.539062 726.96875 -29.625 731.789062 -28.546875 734.199219 C -27.382812 736.527344 -26.46875 738.773438 -26.46875 739.1875 C -26.46875 739.519531 -23.890625 744.839844 -20.730469 750.992188 C -17.65625 757.144531 -13.75 764.625 -12.167969 767.617188 C -10.507812 770.613281 -7.929688 775.183594 -6.433594 777.84375 C -4.851562 780.503906 -2.441406 784.742188 -1.113281 787.15625 C 0.21875 789.566406 4.707031 797.128906 8.78125 803.949219 C 12.855469 810.679688 16.679688 816.832031 17.261719 817.496094 C 17.925781 818.164062 19.003906 819.910156 19.835938 821.320312 C 20.667969 822.816406 22.582031 825.976562 24.078125 828.386719 C 25.574219 830.882812 28.316406 835.121094 30.0625 837.863281 C 31.808594 840.609375 35.050781 846.011719 37.292969 849.917969 C 39.457031 853.824219 41.617188 857.648438 42.117188 858.398438 C 42.53125 859.230469 47.601562 868.957031 53.171875 880.011719 C 58.824219 891.152344 63.8125 900.796875 64.144531 901.460938 C 64.5625 902.125 66.140625 905.535156 67.71875 908.941406 C 69.300781 912.351562 71.792969 917.671875 73.207031 920.832031 C 74.621094 923.90625 75.785156 926.648438 75.785156 927.066406 C 75.785156 927.398438 77.53125 931.386719 79.609375 935.960938 C 81.6875 940.53125 84.597656 946.683594 86.007812 949.675781 C 87.421875 952.667969 89.75 956.992188 91.246094 959.238281 C 92.660156 961.566406 94.570312 964.058594 95.402344 964.890625 C 96.566406 965.96875 98.726562 966.46875 103.21875 966.71875 C 108.207031 967.050781 110.117188 966.800781 112.777344 965.554688 C 114.605469 964.722656 117.265625 963.644531 118.597656 963.0625 C 119.925781 962.5625 122.835938 960.402344 125 958.238281 C 127.660156 955.496094 129.15625 953.085938 129.820312 950.507812 C 130.402344 948.429688 131.566406 944.523438 132.480469 941.777344 C 133.976562 937.375 134.058594 935.542969 133.5625 926.398438 C 133.3125 920.664062 132.730469 913.597656 132.230469 910.605469 C 131.816406 907.613281 130.734375 898.800781 129.820312 891.070312 C 128.90625 883.335938 127.742188 875.109375 127.324219 872.78125 C 126.828125 870.535156 126.160156 866.378906 125.664062 863.636719 C 125.246094 860.890625 124.332031 853.824219 123.585938 847.839844 C 122.835938 841.855469 121.921875 835.703125 121.589844 834.125 C 121.175781 832.542969 120.425781 828.804688 119.84375 825.8125 C 119.34375 822.816406 117.265625 815.753906 115.273438 810.015625 C 113.277344 804.28125 110.617188 797.214844 109.453125 794.222656 C 108.289062 791.226562 104.964844 784.160156 102.136719 778.425781 C 99.308594 772.691406 94.988281 764.460938 92.492188 760.136719 C 90.082031 755.8125 86.839844 750.160156 85.34375 747.667969 C 83.847656 745.171875 81.105469 740.269531 79.191406 736.859375 C 77.28125 733.453125 74.953125 729.296875 73.957031 727.714844 C 73.039062 726.136719 68.800781 718.40625 64.5625 710.675781 C 60.320312 702.941406 54.917969 692.386719 52.507812 687.398438 C 50.097656 682.410156 47.019531 675.59375 45.691406 672.433594 C 44.359375 669.273438 41.949219 662.707031 40.371094 657.886719 C 38.789062 653.0625 36.878906 646.164062 36.214844 642.507812 C 35.546875 638.847656 34.386719 633.609375 33.636719 630.867188 C 32.554688 627.125 32.222656 622.304688 32.304688 611.746094 C 32.304688 599.777344 32.640625 595.871094 34.550781 586.390625 C 35.796875 580.242188 37.378906 574.089844 38.125 572.675781 C 38.789062 571.261719 40.039062 568.351562 40.953125 566.023438 C 41.867188 563.78125 44.109375 558.875 46.105469 555.136719 C 48.019531 551.476562 50.59375 546.65625 51.757812 544.328125 C 53.007812 542.082031 54.585938 539.671875 55.335938 539.007812 C 56.082031 538.34375 56.746094 537.511719 56.664062 537.179688 C 56.664062 536.761719 59.40625 533.023438 62.734375 528.867188 C 66.140625 524.625 72.707031 517.226562 77.53125 512.40625 C 82.269531 507.582031 94.15625 495.945312 103.964844 486.636719 C 113.773438 477.242188 125.578125 465.105469 130.152344 459.617188 C 134.808594 454.128906 139.710938 448.144531 141.125 446.316406 C 142.539062 444.488281 144.367188 441.660156 145.199219 440.082031 C 145.945312 438.5 147.109375 436.589844 147.777344 435.925781 C 148.359375 435.257812 149.769531 433.015625 150.851562 430.9375 C 152.015625 428.859375 154.34375 424.203125 156.171875 420.546875 C 158 416.886719 159.914062 412.566406 160.578125 410.984375 C 161.160156 409.40625 162.324219 406.578125 163.074219 404.75 C 163.902344 402.921875 165.152344 398.765625 165.980469 395.605469 C 166.730469 392.445312 167.726562 389.039062 168.144531 388.125 C 168.476562 387.210938 169.804688 382.886719 171.054688 378.5625 C 172.214844 374.242188 173.878906 368.007812 174.710938 364.847656 C 175.542969 361.6875 176.957031 354.539062 177.953125 349.050781 C 178.949219 343.566406 180.113281 333.257812 180.53125 326.191406 C 180.945312 319.125 181.195312 308.070312 181.027344 301.667969 C 180.777344 295.265625 180.199219 285.207031 179.699219 279.222656 C 179.199219 273.238281 178.617188 267.832031 178.453125 267.167969 C 178.203125 266.503906 177.539062 261.597656 176.789062 256.359375 C 176.125 251.125 174.960938 244.554688 174.296875 241.8125 C 173.546875 239.070312 172.214844 233.5 171.300781 229.34375 C 170.304688 225.1875 169.058594 220.945312 168.476562 219.78125 C 167.894531 218.621094 167.144531 216.375 166.8125 214.796875 C 166.480469 213.214844 164.402344 206.980469 162.15625 201.078125 C 159.996094 195.175781 156.835938 187.113281 155.257812 183.207031 C 153.679688 179.296875 151.269531 173.5625 149.9375 170.320312 C 148.609375 167.078125 146.113281 161.339844 144.367188 157.433594 C 142.707031 153.527344 140.378906 148.125 139.296875 145.378906 C 138.132812 142.636719 136.886719 139.976562 136.554688 139.5625 C 136.136719 139.144531 135.554688 137.816406 135.222656 136.652344 C 134.890625 135.488281 132.5625 130.25 130.070312 125.011719 C 127.574219 119.777344 124 112.292969 122.089844 108.386719 C 120.175781 104.480469 115.9375 96.25 112.527344 90.097656 C 109.203125 83.945312 106.128906 78.292969 105.710938 77.628906 C 105.296875 76.964844 102.886719 73.054688 100.308594 68.898438 C 97.8125 64.742188 94.820312 59.753906 93.65625 57.675781 C 92.492188 55.597656 90.332031 52.023438 88.835938 49.695312 C 87.339844 47.367188 84.015625 41.964844 81.355469 37.640625 C 78.695312 33.320312 75.703125 28.582031 74.703125 27.167969 C 73.707031 25.671875 71.542969 22.347656 69.964844 19.769531 C 68.386719 17.191406 64.144531 10.707031 60.570312 5.386719 C 56.996094 0.0664062 52.839844 -6.25 51.261719 -8.578125 C 49.679688 -10.988281 48.351562 -13.152344 48.351562 -13.402344 C 48.351562 -13.648438 49.515625 -12.984375 50.929688 -11.902344 C 52.339844 -10.90625 55.085938 -8.910156 56.996094 -7.582031 C 58.992188 -6.25 63.316406 -3.257812 66.722656 -1.015625 C 70.132812 1.148438 74.203125 3.890625 75.785156 4.886719 C 77.363281 5.96875 82.851562 9.128906 87.839844 12.039062 C 92.828125 14.863281 98.3125 17.773438 99.890625 18.4375 C 101.472656 19.105469 103.714844 20.269531 104.878906 21.015625 C 105.960938 21.765625 108.953125 23.175781 111.53125 24.257812 C 114.023438 25.339844 119.097656 27.332031 122.753906 28.664062 C 126.410156 30.078125 133.894531 32.65625 139.378906 34.484375 C 144.867188 36.230469 152.183594 38.308594 155.589844 39.054688 C 159 39.804688 163.320312 40.882812 165.152344 41.464844 C 166.980469 42.132812 172.214844 43.210938 176.789062 43.960938 C 181.359375 44.707031 187.679688 45.871094 190.921875 46.453125 C 194.164062 47.121094 198.238281 47.867188 200.066406 48.117188 C 201.894531 48.367188 205.46875 48.699219 207.964844 48.949219 C 210.457031 49.199219 214.449219 49.613281 216.691406 49.863281 C 219.019531 50.113281 230.90625 50.277344 243.292969 50.277344 C 255.679688 50.363281 271.558594 49.945312 278.625 49.363281 C 285.691406 48.863281 294.667969 47.867188 298.578125 47.285156 C 302.484375 46.621094 310.714844 45.125 316.867188 43.960938 C 323.015625 42.714844 328.421875 41.550781 328.917969 41.300781 C 329.417969 40.96875 333.65625 39.71875 338.480469 38.472656 C 343.300781 37.308594 350.949219 35.066406 355.519531 33.652344 C 360.09375 32.238281 364.167969 30.742188 364.664062 30.410156 C 365.164062 29.996094 367.410156 28.996094 369.652344 28.164062 C 371.980469 27.332031 377.882812 24.507812 382.953125 21.929688 C 388.027344 19.351562 394.34375 15.777344 397.085938 13.949219 C 399.746094 12.203125 402.65625 10.042969 403.488281 9.292969 C 404.320312 8.464844 405.316406 7.796875 405.816406 7.796875 C 406.316406 7.796875 410.472656 3.890625 415.210938 -0.847656 C 419.863281 -5.585938 424.6875 -10.738281 425.933594 -12.238281 C 427.179688 -13.816406 428.179688 -15.3125 428.261719 -15.644531 C 428.261719 -16.0625 429.34375 -18.054688 430.671875 -20.21875 C 432.003906 -22.460938 433.75 -26.035156 434.496094 -28.363281 C 435.160156 -30.609375 436.160156 -33.1875 436.574219 -33.933594 C 437.074219 -34.765625 438.402344 -39.421875 439.566406 -44.324219 C 440.730469 -49.3125 442.0625 -54.964844 442.476562 -57.042969 C 442.976562 -59.207031 443.140625 -65.109375 442.808594 -71.175781 C 442.558594 -76.914062 441.976562 -81.984375 441.480469 -82.398438 C 441.0625 -82.816406 440.730469 -84.394531 440.730469 -85.726562 C 440.730469 -87.054688 439.984375 -91.378906 438.984375 -95.285156 C 438.070312 -99.191406 436.988281 -102.765625 436.65625 -103.183594 C 436.242188 -103.597656 435.246094 -105.84375 434.414062 -108.171875 C 433.582031 -110.414062 431.753906 -114.40625 430.339844 -116.898438 C 428.925781 -119.394531 426.515625 -123.300781 424.9375 -125.542969 C 423.355469 -127.789062 419.863281 -132.277344 417.121094 -135.519531 C 414.460938 -138.761719 410.472656 -143.085938 408.308594 -145.164062 C 406.148438 -147.242188 402.15625 -150.984375 399.332031 -153.476562 C 396.589844 -155.972656 391.183594 -160.375 387.359375 -163.285156 C 383.535156 -166.195312 377.96875 -170.1875 374.890625 -172.179688 C 371.730469 -174.257812 368.90625 -175.921875 368.40625 -175.921875 C 367.90625 -175.921875 367.574219 -176.339844 367.574219 -176.753906 C 367.574219 -177.167969 365.414062 -178.664062 362.835938 -179.996094 C 360.175781 -181.410156 352.777344 -185.066406 346.378906 -188.226562 C 339.976562 -191.382812 332.660156 -194.625 330.167969 -195.457031 C 327.671875 -196.289062 325.261719 -197.203125 324.761719 -197.535156 C 324.265625 -197.867188 321.355469 -198.949219 318.113281 -200.03125 C 314.871094 -201.027344 311.128906 -202.359375 309.800781 -202.941406 C 308.46875 -203.523438 304.726562 -204.6875 301.484375 -205.433594 C 298.242188 -206.183594 294.335938 -207.261719 292.757812 -207.929688 C 291.179688 -208.511719 285.523438 -209.839844 280.289062 -210.835938 C 275.050781 -211.835938 269.894531 -213 268.898438 -213.414062 C 267.816406 -213.832031 261.25 -214.910156 254.351562 -215.824219 C 247.367188 -216.738281 239.21875 -217.820312 236.226562 -218.234375 C 233.234375 -218.652344 224.839844 -219.316406 217.523438 -219.566406 C 209.957031 -219.898438 198.484375 -219.734375 190.921875 -219.234375 C 183.605469 -218.734375 175.042969 -217.988281 171.800781 -217.488281 C 168.558594 -217.074219 161.660156 -216.324219 156.421875 -215.742188 C 151.183594 -215.242188 143.867188 -214.246094 140.210938 -213.664062 C 136.554688 -213 128.65625 -211.667969 122.753906 -210.835938 C 116.851562 -209.921875 109.535156 -208.675781 106.542969 -208.011719 C 103.550781 -207.347656 98.5625 -206.347656 95.320312 -205.847656 C 92.078125 -205.269531 87.421875 -204.269531 84.929688 -203.605469 C 82.433594 -203.023438 75.703125 -201.359375 69.964844 -200.03125 C 64.230469 -198.699219 56 -196.707031 51.675781 -195.542969 C 47.351562 -194.378906 42.863281 -192.964844 41.699219 -192.464844 C 40.535156 -191.964844 36.796875 -190.636719 33.386719 -189.640625 C 29.980469 -188.558594 23.410156 -186.3125 18.839844 -184.652344 C 14.265625 -182.988281 7.949219 -180.660156 4.707031 -179.578125 C 1.464844 -178.417969 -1.527344 -177.167969 -1.945312 -176.753906 C -2.359375 -176.421875 -4.269531 -175.671875 -6.101562 -175.089844 C -7.929688 -174.507812 -10.921875 -173.34375 -12.75 -172.515625 C -14.578125 -171.683594 -17.738281 -170.4375 -19.816406 -169.6875 C -21.894531 -169.023438 -23.558594 -168.523438 -23.640625 -168.691406 C -23.640625 -168.773438 -25.71875 -171.847656 -28.128906 -175.507812 C -30.625 -179.164062 -33.78125 -183.738281 -35.113281 -185.730469 C -36.527344 -187.644531 -38.519531 -190.46875 -39.601562 -191.964844 C -40.683594 -193.464844 -43.675781 -197.371094 -46.253906 -200.695312 C -48.828125 -204.019531 -53.902344 -210.339844 -57.476562 -214.828125 C -61.132812 -219.234375 -67.285156 -226.382812 -71.191406 -230.707031 C -75.183594 -235.027344 -83.078125 -243.257812 -88.816406 -249.078125 C -94.550781 -254.8125 -102.949219 -262.878906 -107.519531 -267.035156 C -112.09375 -271.109375 -119.242188 -277.257812 -123.316406 -280.667969 C -127.472656 -284.074219 -131.960938 -287.734375 -133.292969 -288.816406 C -134.703125 -289.8125 -137.28125 -291.722656 -139.109375 -292.972656 C -140.855469 -294.21875 -143.351562 -296.046875 -144.515625 -297.128906 C -145.675781 -298.125 -146.839844 -299.039062 -147.175781 -298.957031 C -147.589844 -298.957031 -148.503906 -299.621094 -149.253906 -300.453125 C -150.082031 -301.285156 -154.074219 -304.195312 -158.0625 -306.855469 C -162.136719 -309.597656 -166.042969 -312.175781 -166.792969 -312.671875 C -167.542969 -313.171875 -171.367188 -315.582031 -175.273438 -318.078125 C -179.179688 -320.570312 -183.917969 -323.398438 -185.746094 -324.3125 C -187.492188 -325.226562 -189.15625 -326.222656 -189.40625 -326.554688 C -189.652344 -326.890625 -198.382812 -331.460938 -208.941406 -336.78125 C -219.5 -342.019531 -228.726562 -346.339844 -229.472656 -346.339844 C -230.304688 -346.339844 -230.96875 -346.675781 -230.96875 -347.171875 C -230.96875 -347.671875 -233.132812 -348.753906 -235.707031 -349.667969 C -238.367188 -350.582031 -241.445312 -351.828125 -242.609375 -352.492188 C -243.773438 -353.074219 -246.765625 -354.238281 -249.257812 -355.070312 C -251.753906 -355.902344 -254.246094 -356.816406 -254.664062 -357.230469 C -255.078125 -357.5625 -258.820312 -359.0625 -262.976562 -360.472656 C -267.132812 -361.886719 -274.03125 -364.214844 -278.355469 -365.542969 C -282.679688 -366.957031 -289.828125 -369.035156 -294.148438 -370.117188 C -298.472656 -371.199219 -303.378906 -372.527344 -304.957031 -373.027344 C -306.535156 -373.609375 -312.355469 -374.9375 -317.84375 -376.019531 C -323.328125 -377.101562 -330.8125 -378.511719 -334.46875 -379.179688 C -338.125 -379.84375 -344.277344 -380.757812 -348.1875 -381.171875 C -352.09375 -381.589844 -364.5625 -381.839844 -376.035156 -381.671875 Z M -378.113281 -324.3125 C -375.617188 -323.980469 -369.050781 -323.066406 -363.566406 -322.152344 C -358.078125 -321.234375 -348.933594 -319.492188 -343.199219 -318.160156 C -337.460938 -316.832031 -328.648438 -314.667969 -323.660156 -313.253906 C -318.671875 -311.84375 -310.941406 -309.347656 -306.621094 -307.769531 C -302.296875 -306.273438 -295.894531 -303.945312 -292.488281 -302.78125 C -289.078125 -301.535156 -284.257812 -299.621094 -281.847656 -298.542969 C -279.519531 -297.378906 -277.359375 -296.464844 -277.109375 -296.464844 C -276.859375 -296.464844 -273.78125 -295.132812 -270.207031 -293.46875 C -266.714844 -291.808594 -259.484375 -288.398438 -254.246094 -285.820312 C -249.007812 -283.328125 -240.199219 -278.839844 -234.710938 -275.847656 C -229.222656 -272.9375 -222.738281 -269.195312 -220.328125 -267.699219 C -218 -266.121094 -215.675781 -264.875 -215.175781 -264.875 C -214.757812 -264.875 -213.761719 -264.125 -212.929688 -263.210938 C -212.097656 -262.210938 -211.183594 -261.464844 -210.769531 -261.546875 C -210.4375 -261.546875 -205.949219 -258.722656 -200.792969 -255.3125 C -195.722656 -251.90625 -189.40625 -247.582031 -186.910156 -245.753906 C -184.417969 -243.925781 -181.007812 -241.429688 -179.429688 -240.347656 C -177.847656 -239.183594 -175.355469 -237.355469 -174.023438 -236.359375 C -172.613281 -235.363281 -169.621094 -233.035156 -167.375 -231.203125 C -165.128906 -229.375 -159.476562 -224.71875 -154.90625 -220.898438 C -150.332031 -217.074219 -141.769531 -209.425781 -135.867188 -203.855469 C -129.964844 -198.367188 -121.734375 -190.386719 -117.578125 -186.3125 C -113.421875 -182.15625 -107.019531 -175.589844 -103.363281 -171.683594 C -99.707031 -167.777344 -93.96875 -161.625 -90.726562 -158.050781 C -87.402344 -154.390625 -84.078125 -150.566406 -83.414062 -149.488281 C -82.164062 -147.742188 -82.25 -147.65625 -85.65625 -146.828125 C -87.652344 -146.328125 -89.8125 -145.746094 -90.476562 -145.496094 C -91.144531 -145.246094 -94.300781 -144.5 -97.542969 -143.832031 C -100.785156 -143.167969 -109.347656 -142.089844 -116.664062 -141.421875 C -123.980469 -140.757812 -134.371094 -140.175781 -139.691406 -140.175781 C -145.09375 -140.175781 -159.144531 -140.925781 -170.867188 -141.839844 C -182.671875 -142.753906 -194.558594 -143.917969 -197.300781 -144.332031 C -200.046875 -144.75 -206.03125 -145.828125 -210.601562 -146.742188 C -215.175781 -147.65625 -221.742188 -148.820312 -225.152344 -149.402344 C -228.558594 -149.902344 -231.96875 -150.652344 -232.632812 -150.984375 C -233.296875 -151.316406 -238.703125 -152.480469 -244.6875 -153.394531 C -250.671875 -154.390625 -256.824219 -155.636719 -258.402344 -156.136719 C -259.984375 -156.636719 -265.46875 -157.882812 -270.457031 -158.964844 C -275.445312 -160.042969 -283.507812 -161.875 -288.332031 -163.039062 C -293.152344 -164.199219 -298.308594 -165.78125 -299.71875 -166.445312 C -301.214844 -167.109375 -305.539062 -168.359375 -309.28125 -169.355469 C -313.105469 -170.269531 -316.597656 -171.351562 -317.011719 -171.765625 C -317.425781 -172.097656 -320.835938 -173.261719 -324.492188 -174.261719 C -328.152344 -175.257812 -331.558594 -176.421875 -331.976562 -176.753906 C -332.390625 -177.085938 -335.632812 -178.332031 -339.042969 -179.496094 C -342.449219 -180.660156 -347.9375 -182.65625 -351.09375 -183.820312 C -354.253906 -185.066406 -357.828125 -186.5625 -358.992188 -187.144531 C -360.15625 -187.726562 -362.898438 -188.890625 -365.226562 -189.640625 C -367.472656 -190.46875 -374.039062 -193.378906 -379.777344 -196.207031 C -385.511719 -199.03125 -391.996094 -202.441406 -394.324219 -203.6875 C -396.566406 -205.019531 -402.386719 -208.757812 -407.207031 -211.917969 C -412.03125 -215.160156 -417.101562 -218.734375 -418.515625 -219.898438 C -419.929688 -221.0625 -422.339844 -222.976562 -423.835938 -224.140625 C -425.332031 -225.300781 -428.074219 -227.546875 -429.902344 -229.125 C -431.734375 -230.707031 -435.722656 -234.445312 -438.800781 -237.441406 C -441.792969 -240.433594 -446.363281 -245.253906 -448.859375 -248.246094 C -451.351562 -251.238281 -454.511719 -255.3125 -455.925781 -257.390625 C -457.335938 -259.46875 -459.582031 -262.960938 -460.910156 -265.289062 C -462.242188 -267.535156 -464.570312 -272.4375 -466.066406 -276.097656 C -467.894531 -280.5 -468.976562 -284.742188 -469.308594 -288.566406 C -469.808594 -294.300781 -469.808594 -294.46875 -466.398438 -299.371094 C -464.570312 -302.117188 -461.328125 -306.023438 -459.167969 -308.101562 C -457.085938 -310.179688 -453.929688 -312.671875 -452.265625 -313.671875 C -450.601562 -314.667969 -447.527344 -316.332031 -445.449219 -317.246094 C -443.371094 -318.242188 -440.628906 -319.574219 -439.214844 -320.238281 C -437.800781 -320.902344 -433.5625 -322.066406 -429.65625 -322.816406 C -425.746094 -323.480469 -420.175781 -324.5625 -417.183594 -325.144531 C -414.191406 -325.726562 -406.960938 -326.222656 -400.972656 -326.222656 C -394.988281 -326.222656 -388.503906 -325.890625 -386.425781 -325.558594 C -384.347656 -325.144531 -380.605469 -324.644531 -378.113281 -324.3125 Z M 238.722656 -156.886719 C 242.628906 -156.386719 247.117188 -155.554688 248.699219 -154.972656 C 250.277344 -154.472656 255.929688 -153.144531 261.167969 -152.148438 C 266.40625 -151.148438 274.636719 -149.152344 279.457031 -147.742188 C 284.277344 -146.410156 291.179688 -144.332031 294.835938 -143.167969 C 298.492188 -142.003906 303.898438 -140.007812 306.890625 -138.847656 C 309.882812 -137.683594 316.949219 -134.441406 322.683594 -131.613281 C 328.421875 -128.785156 334.988281 -125.378906 337.234375 -123.964844 C 339.558594 -122.550781 341.972656 -121.054688 342.800781 -120.640625 C 343.550781 -120.140625 347.457031 -117.5625 351.53125 -114.820312 C 355.523438 -112.160156 360.011719 -108.917969 361.425781 -107.753906 C 362.835938 -106.589844 365.414062 -104.511719 367.160156 -103.183594 C 368.90625 -101.851562 372.980469 -98.277344 376.222656 -95.285156 C 379.464844 -92.292969 384.699219 -86.890625 387.777344 -83.230469 C 390.851562 -79.574219 393.679688 -76.164062 394.09375 -75.75 C 394.425781 -75.332031 396.257812 -72.089844 398.167969 -68.683594 C 400.078125 -65.273438 402.324219 -59.621094 403.15625 -56.214844 C 403.988281 -52.804688 404.902344 -49.480469 405.234375 -48.898438 C 405.566406 -48.398438 405.066406 -45.40625 404.070312 -42.246094 C 403.15625 -39.171875 401.824219 -35.511719 401.242188 -34.183594 C 400.578125 -32.851562 398.5 -30.359375 396.503906 -28.695312 C 394.511719 -27.117188 390.355469 -24.375 387.113281 -22.710938 C 383.871094 -21.046875 379.214844 -18.804688 376.71875 -17.640625 C 374.226562 -16.558594 369.570312 -14.8125 366.328125 -13.898438 C 363.085938 -12.902344 359.761719 -11.738281 358.847656 -11.324219 C 357.933594 -10.90625 352.28125 -9.492188 346.378906 -8.328125 C 340.476562 -7.164062 333.742188 -5.835938 331.414062 -5.503906 C 329.167969 -5.085938 319.191406 -4.503906 309.382812 -4.171875 C 298.160156 -3.839844 286.023438 -4.007812 276.960938 -4.589844 C 268.980469 -5.085938 260.003906 -6.085938 257.011719 -6.75 C 254.019531 -7.332031 247.117188 -8.664062 241.632812 -9.578125 C 236.144531 -10.492188 229.246094 -11.820312 226.253906 -12.570312 C 223.257812 -13.316406 218.273438 -14.648438 215.03125 -15.5625 C 211.789062 -16.476562 206.382812 -18.140625 202.976562 -19.21875 C 199.566406 -20.300781 193.582031 -22.378906 189.675781 -23.792969 C 185.765625 -25.207031 180.199219 -27.53125 177.203125 -28.863281 C 174.210938 -30.277344 167.3125 -33.683594 161.824219 -36.429688 C 156.339844 -39.171875 150.933594 -42.164062 149.773438 -43.078125 C 148.609375 -43.910156 147.445312 -44.65625 147.109375 -44.574219 C 146.695312 -44.574219 144.449219 -45.90625 142.125 -47.484375 C 139.710938 -49.0625 137.46875 -50.394531 137.136719 -50.394531 C 136.71875 -50.394531 132.980469 -52.722656 128.824219 -55.546875 C 124.582031 -58.292969 119.429688 -61.78125 117.351562 -63.195312 C 115.273438 -64.527344 110.035156 -68.351562 105.710938 -71.59375 C 101.304688 -74.75 94.988281 -79.65625 91.664062 -82.398438 C 88.253906 -85.144531 82.851562 -89.550781 79.609375 -92.210938 C 76.367188 -94.953125 72.210938 -98.359375 70.382812 -99.855469 C 68.550781 -101.355469 63.230469 -105.675781 58.578125 -109.5 C 53.921875 -113.324219 47.105469 -118.894531 43.445312 -121.886719 C 39.707031 -124.878906 36.710938 -127.457031 36.710938 -127.707031 C 36.710938 -127.957031 42.53125 -130.035156 49.765625 -132.445312 C 56.996094 -134.773438 65.726562 -137.597656 69.132812 -138.597656 C 72.542969 -139.59375 79.859375 -141.507812 85.34375 -142.835938 C 90.832031 -144.167969 100.226562 -146.160156 106.128906 -147.242188 C 112.03125 -148.324219 118.097656 -149.570312 119.429688 -150.070312 C 120.757812 -150.484375 126.578125 -151.480469 132.3125 -152.230469 C 138.050781 -152.976562 144.949219 -154.140625 147.691406 -154.808594 C 150.4375 -155.472656 158.5 -156.554688 165.566406 -157.300781 C 172.632812 -158.050781 188.011719 -158.714844 199.648438 -158.878906 C 211.289062 -158.964844 223.257812 -158.796875 226.253906 -158.464844 C 229.246094 -158.132812 234.816406 -157.46875 238.722656 -156.886719 Z M -550.609375 1.3125 C -546.953125 2.808594 -543.046875 4.554688 -541.882812 5.304688 C -540.71875 6.050781 -536.976562 8.546875 -533.570312 10.789062 C -530.160156 13.035156 -524.007812 18.273438 -519.851562 22.429688 C -515.695312 26.585938 -511.039062 31.574219 -509.460938 33.570312 C -507.878906 35.480469 -505.886719 37.808594 -505.136719 38.640625 C -504.304688 39.554688 -503.226562 41.050781 -502.644531 42.046875 C -502.144531 43.128906 -500.566406 45.539062 -499.152344 47.453125 C -497.738281 49.363281 -495.578125 52.523438 -494.332031 54.519531 C -493.167969 56.511719 -490.089844 62.25 -487.515625 67.238281 C -485.019531 72.226562 -481.945312 79.207031 -480.78125 82.617188 C -479.53125 86.023438 -478.035156 90.511719 -477.453125 92.59375 C -476.871094 94.671875 -475.292969 100.988281 -474.046875 106.722656 C -471.886719 116.199219 -471.71875 118.613281 -471.636719 133.742188 C -471.636719 148.289062 -471.886719 151.28125 -473.464844 157.433594 C -474.460938 161.339844 -475.957031 167.242188 -476.789062 170.652344 C -477.703125 174.394531 -478.785156 176.96875 -479.53125 177.21875 C -480.199219 177.46875 -482.609375 176.96875 -484.9375 176.304688 C -487.179688 175.558594 -491.917969 173.976562 -495.328125 172.8125 C -498.738281 171.648438 -504.390625 169.488281 -507.796875 168.074219 C -511.207031 166.660156 -517.023438 164 -520.683594 162.257812 C -524.339844 160.511719 -529.496094 157.851562 -532.070312 156.355469 C -534.648438 154.855469 -538.640625 152.613281 -540.800781 151.28125 C -542.960938 149.953125 -546.785156 147.292969 -549.28125 145.464844 C -551.691406 143.550781 -554.519531 141.472656 -555.433594 140.808594 C -556.429688 140.144531 -560.335938 136.570312 -564.160156 132.910156 C -568.066406 129.253906 -574.054688 122.683594 -577.546875 118.195312 C -581.035156 113.789062 -584.695312 108.96875 -585.773438 107.390625 C -586.773438 105.894531 -588.519531 103.316406 -589.515625 101.738281 C -590.597656 100.15625 -592.675781 96.582031 -594.171875 93.839844 C -595.667969 91.09375 -597.996094 86.773438 -599.324219 84.277344 C -600.65625 81.785156 -603.234375 76.382812 -605.0625 72.226562 C -606.808594 68.066406 -609.382812 61.417969 -610.714844 57.261719 C -612.042969 53.105469 -613.625 47.203125 -614.207031 43.960938 C -614.789062 40.71875 -615.039062 36.230469 -614.789062 33.984375 C -614.457031 31.242188 -613.042969 27.75 -610.714844 23.675781 C -608.71875 20.269531 -605.0625 15.527344 -602.566406 13.035156 C -600.074219 10.625 -596.664062 7.882812 -595.085938 6.964844 C -593.507812 6.050781 -589.015625 3.808594 -585.109375 1.894531 C -581.203125 0.0664062 -575.800781 -1.761719 -573.054688 -2.179688 C -570.3125 -2.675781 -567.320312 -2.925781 -566.40625 -2.925781 C -565.492188 -2.84375 -563.078125 -2.511719 -561 -2.09375 C -558.921875 -1.679688 -554.269531 -0.0976562 -550.609375 1.3125 Z M -550.609375 1.3125 " fill-opacity="1" fill-rule="evenodd"/></g></g></g></g><g clip-path="url(#1a27993009)"><path fill="#8ed3fc" d="M 763.859375 191.832031 C 756.515625 178.96875 754.90625 167.730469 759.457031 160.996094 C 763.972656 154.296875 773.535156 152.894531 780.765625 152.894531 C 798.777344 152.894531 822.339844 161.53125 843.785156 176 C 871.742188 194.863281 916.578125 252.566406 938.265625 281.648438 C 903.175781 272.425781 832.882812 252.429688 804.933594 233.566406 C 786.851562 221.371094 772.261719 206.546875 763.859375 191.832031 Z M 1084.234375 176 C 1105.679688 161.53125 1129.234375 152.894531 1147.246094 152.894531 C 1154.476562 152.894531 1164.039062 154.296875 1168.5625 160.996094 C 1173.105469 167.730469 1171.503906 178.96875 1164.152344 191.832031 C 1155.75 206.546875 1141.160156 221.371094 1123.078125 233.566406 C 1095.136719 252.429688 1024.835938 272.425781 989.753906 281.648438 C 1011.429688 252.566406 1056.269531 194.863281 1084.234375 176 Z M 595.277344 948.511719 L 1332.734375 948.511719 L 1332.734375 442.121094 L 1394.191406 442.121094 L 1394.191406 287.265625 L 1096.597656 287.265625 C 1134.675781 280.375 1171.714844 270.621094 1191.773438 257.082031 C 1217.429688 239.769531 1236.34375 215.652344 1245.035156 189.171875 C 1253.960938 162.003906 1251.140625 135.574219 1237.097656 114.746094 C 1221.882812 92.203125 1195.105469 79.277344 1163.625 79.277344 C 1138.101562 79.277344 1111.289062 87.878906 1088.144531 103.5 C 1040.78125 135.460938 977.550781 263.015625 965.828125 287.253906 L 962.183594 287.253906 C 950.464844 263.015625 887.230469 135.460938 839.875 103.5 C 816.722656 87.878906 789.917969 79.277344 764.386719 79.277344 C 732.910156 79.277344 706.136719 92.203125 690.921875 114.746094 C 676.878906 135.574219 674.050781 162.003906 682.976562 189.171875 C 691.675781 215.652344 710.589844 239.769531 736.238281 257.082031 C 756.304688 270.621094 793.34375 280.375 831.414062 287.265625 L 533.820312 287.265625 L 533.820312 442.121094 L 595.277344 442.121094 L 595.277344 948.511719 " fill-opacity="1" fill-rule="nonzero"/></g></svg>