<svg xmlns="http://www.w3.org/2000/svg" xmlns:xlink="http://www.w3.org/1999/xlink" width="500" zoomAndPan="magnify" viewBox="0 0 375 374.999991" height="500" preserveAspectRatio="xMidYMid meet" version="1.0"><defs><clipPath id="8f17a26b58"><path d="M 1.875 0 L 373.125 0 L 373.125 247.5 L 1.875 247.5 Z M 1.875 0 " clip-rule="nonzero"/></clipPath></defs><g clip-path="url(#8f17a26b58)"><path fill="#8ed3fc" d="M 101.160156 48.566406 C 97.992188 43.019531 97.296875 38.167969 99.261719 35.265625 C 101.207031 32.375 105.335938 31.769531 108.453125 31.769531 C 116.222656 31.769531 126.386719 35.496094 135.640625 41.738281 C 147.699219 49.875 167.042969 74.765625 176.394531 87.3125 C 161.257812 83.335938 130.9375 74.707031 118.878906 66.570312 C 111.078125 61.308594 104.785156 54.914062 101.160156 48.566406 Z M 239.363281 41.738281 C 248.613281 35.496094 258.777344 31.769531 266.546875 31.769531 C 269.664062 31.769531 273.792969 32.375 275.742188 35.265625 C 277.703125 38.167969 277.011719 43.019531 273.839844 48.566406 C 270.214844 54.914062 263.921875 61.308594 256.121094 66.570312 C 244.066406 74.707031 213.742188 83.335938 198.609375 87.3125 C 207.957031 74.765625 227.300781 49.875 239.363281 41.738281 Z M 28.4375 374.988281 L 346.5625 374.988281 L 346.5625 156.539062 L 373.074219 156.539062 L 373.074219 89.738281 L 244.699219 89.738281 C 261.125 86.761719 277.101562 82.554688 285.753906 76.714844 C 296.824219 69.246094 304.980469 58.84375 308.730469 47.421875 C 312.582031 35.699219 311.367188 24.296875 305.304688 15.3125 C 298.742188 5.589844 287.191406 0.0117188 273.613281 0.0117188 C 262.601562 0.0117188 251.035156 3.722656 241.050781 10.460938 C 220.621094 24.25 193.34375 79.273438 188.285156 89.730469 L 186.714844 89.730469 C 181.660156 79.273438 154.378906 24.25 133.953125 10.460938 C 123.964844 3.722656 112.402344 0.0117188 101.386719 0.0117188 C 87.808594 0.0117188 76.257812 5.589844 69.695312 15.3125 C 63.636719 24.296875 62.417969 35.699219 66.269531 47.421875 C 70.019531 58.84375 78.179688 69.246094 89.246094 76.714844 C 97.902344 82.554688 113.878906 86.761719 130.300781 89.738281 L 1.925781 89.738281 L 1.925781 156.539062 L 28.4375 156.539062 L 28.4375 374.988281 " fill-opacity="1" fill-rule="nonzero"/></g></svg>